<?xml version="1.0" encoding="iso-8859-1"?>
<!-- Generator: Adobe Illustrator 19.0.0, SVG Export Plug-In . SVG Version: 6.00 Build 0)  -->
<svg xmlns="http://www.w3.org/2000/svg" xmlns:xlink="http://www.w3.org/1999/xlink" version="1.1" id="Capa_1" x="0px" y="0px" viewBox="0 0 496 496" style="enable-background:new 0 0 496 496;" xml:space="preserve">
<g>
	<path style="fill:#FFA64D;" d="M304,120c-13.232,0-24-10.768-24-24s10.768-24,24-24s24,10.768,24,24S317.232,120,304,120z"/>
	<path style="fill:#FFA64D;" d="M192,120c-13.232,0-24-10.768-24-24s10.768-24,24-24s24,10.768,24,24S205.232,120,192,120z"/>
</g>
<g>
	<path style="fill:#333333;" d="M481.68,241.48c4.096-4.904,6.32-11.016,6.32-17.48s-2.224-12.576-6.32-17.48L492.944,184H362.912   c3.272-10.088,5.088-20.832,5.088-32v-48C368,46.656,321.344,0,264,0h-32c-57.344,0-104,46.656-104,104v48   c0,11.168,1.816,21.912,5.088,32H3.056l11.264,22.52C10.224,211.424,8,217.536,8,224s2.224,12.576,6.32,17.48L3.056,264H24v45.6   l82.072-45.6h24.656l12.52,29.224c5.808,13.544,8.752,27.888,8.752,42.632c0,28.912-11.256,56.088-31.696,76.528L76.688,456H104   c13.232,0,24,10.768,24,24v12.952l17.776-8.896c13.352-6.672,29.36-5.672,41.784,2.6l7.128,4.752l16.408-28.712   c4.032-7.048,7.368-14.4,10.248-21.912C223.056,451.096,224,461.536,224,472c0,13.232,10.768,24,24,24s24-10.768,24-24   c0-10.592,0.912-21.048,2.6-31.328c2.896,7.552,6.248,14.944,10.296,22.032l16.408,28.712l7.128-4.752   c12.416-8.28,28.424-9.28,41.784-2.6L368,492.952V480c0-13.232,10.768-24,24-24h27.312l-43.616-43.616   C355.256,391.944,344,364.768,344,335.856c0-14.744,2.944-29.088,8.752-42.632L365.272,264h24.656L472,309.6V264h20.944   L481.68,241.48z M144,104c0-48.52,39.48-88,88-88h32c48.52,0,88,39.48,88,88v48c0,48.52-39.48,88-88,88h-32   c-48.52,0-88-39.48-88-88V104z M468.688,232l-6.424,6.424l4.792,9.576H448v16h8v18.4L422.872,264H432v-16H328v16h19.872   l-9.824,22.92C331.376,302.464,328,318.928,328,335.856c0,33.184,12.92,64.376,36.384,87.84l17.576,17.576   c-11.96,3.104-21.728,11.632-26.6,22.776l-6.384-6.384c-14.232-14.232-24.336-32.08-29.216-51.608l-15.52,3.88   c5.008,20.024,14.848,38.472,28.552,53.816c-8.832-0.184-17.672,1.576-25.784,5.384l-8.216-14.384   c-8.008-14.016-13.432-29.168-16.336-45.008c5.968-17.368,14.36-33.928,25.264-49.176l2.8-3.92l-13.024-9.296l-2.8,3.92   C269.376,386.704,256,428.456,256,472c0,4.408-3.592,8-8,8s-8-3.592-8-8c0-33.592-8.272-67.048-23.92-96.776l-14.16,7.456   c4.6,8.728,8.424,17.832,11.608,27.16c-2.912,15.816-8.328,30.928-16.32,44.928l-8.216,14.384   c-10.8-5.072-22.888-6.616-34.528-4.584c14.088-15.504,24.2-34.24,29.296-54.616l-15.52-3.88   c-4.88,19.528-14.984,37.376-29.216,51.608l-1.12,1.12c-5.36-8.536-13.856-14.92-23.856-17.52l17.576-17.576   C155.08,400.232,168,369.04,168,335.856c0-16.928-3.376-33.392-10.048-48.936L148.128,264H168v-16H64v16h9.128L40,282.4V264h8v-16   H28.944l4.792-9.576L27.312,232c-2.104-2.104-3.312-5.024-3.312-8s1.208-5.896,3.312-8l6.424-6.424L28.944,200h110.888   c17.376,33.232,52.136,56,92.168,56h32c40.032,0,74.792-22.768,92.168-56h110.888l-4.792,9.576l6.424,6.424   c2.104,2.104,3.312,5.024,3.312,8S470.792,229.896,468.688,232z"/>
	<path style="fill:#333333;" d="M198.512,347.352l-13.024,9.296l2.8,3.92c2.088,2.92,4.088,5.896,6,8.92l13.512-8.56   c-2.072-3.272-4.24-6.488-6.496-9.656L198.512,347.352z"/>
	<polygon style="fill:#333333;" points="216,216 232,216 232,200 264,200 264,216 280,216 280,200 296,200 296,184 200,184 200,200    216,200  "/>
</g>
<g>
</g>
<g>
</g>
<g>
</g>
<g>
</g>
<g>
</g>
<g>
</g>
<g>
</g>
<g>
</g>
<g>
</g>
<g>
</g>
<g>
</g>
<g>
</g>
<g>
</g>
<g>
</g>
<g>
</g>
</svg>
