<?xml version="1.0" encoding="iso-8859-1"?>
<!-- Generator: Adobe Illustrator 19.0.0, SVG Export Plug-In . SVG Version: 6.00 Build 0)  -->
<svg xmlns="http://www.w3.org/2000/svg" xmlns:xlink="http://www.w3.org/1999/xlink" version="1.1" id="Capa_1" x="0px" y="0px" viewBox="0 0 496 496" style="enable-background:new 0 0 496 496;" xml:space="preserve">
<g>
	<path style="fill:#333333;" d="M398.904,112.12L398,96.144c-18.944,1.08-36.76,9.024-50.16,22.392l-11.064,11.04l11.296,11.328   l11.064-11.04C369.76,119.272,383.88,112.968,398.904,112.12z"/>
	<path style="fill:#333333;" d="M423.504,120.88l11.312-11.312l-0.672-0.672c-4.688-4.672-10.368-8.168-16.88-10.368l-5.128,15.16   c4.168,1.408,7.776,3.608,10.704,6.528L423.504,120.88z"/>
	<path style="fill:#333333;" d="M495.944,187.16l0.048-6.264c0.32-34.952-13.736-69.208-38.584-94l-0.752-0.744   c-14.432-14.4-34.376-22.44-54.832-22.144l-1.2,0.016c-28.48,0.456-55.248,11.768-75.376,31.856l-11.064,11.032l11.296,11.328   l11.064-11.032c17.176-17.144,40.024-26.8,64.336-27.184l1.2-0.016c16.36-0.456,31.888,6.112,43.288,17.48l0.752,0.744   c21.816,21.76,34.16,51.832,33.872,82.528l-0.048,6.28c-0.136,17.664-5.4,34.784-15.232,49.512   c-11.048,16.512-16.88,35.752-16.88,55.624c0,19.416,3.12,38.584,9.264,56.976l0.504,1.536l-1.192-0.68   c-21.168-12.072-35.616-32.76-39.624-56.752c-0.632-3.776-0.952-7.656-0.952-11.536v-33.44h-16v10.08l-10.04-47.688   c-4.288-20.368-19.392-36.584-39.416-42.312l-28.176-8.048l-4.392,15.384l28.176,8.048c14.296,4.088,25.088,15.664,28.152,30.224   l10.8,51.288l-29.36,5.872l-11.784-49L336,224l-7.952-0.88l-7.024,63.168L148.328,183.392c0.672-0.208,1.28-0.552,1.968-0.72   l27.64-6.912l-3.872-15.52l-27.64,6.912c-4.232,1.064-8.256,2.616-12.072,4.584C128.912,151.2,110.224,136,88,136   c-26.472,0-48,21.528-48,48s21.528,48,48,48c5.616,0,10.984-1.024,16-2.8V288c0,13.232,10.768,24,24,24h28.456l-4.6,12.272   l-24.36,19.488C120.848,349.072,112.504,352,104,352c-11.624,0-21.328-8.304-23.52-19.288c7.184-11.016,12.208-23.456,14.44-36.824   c0.784-4.672,1.176-9.448,1.176-14.176v-33.44h-16v33.44c0,3.848-0.32,7.728-0.96,11.536C76.992,306.064,71.8,317.88,64.28,328H64   c0,0.112,0.032,0.208,0.032,0.32c-6.528,8.688-14.752,16.128-24.488,21.68l-1.168,0.672l0.504-1.528   c6.144-18.4,9.256-37.568,9.256-56.968c0-19.864-5.832-39.096-16.856-55.624c-9.832-14.728-15.096-31.848-15.224-49.52   l-0.048-6.288C15.728,150.072,28.064,120,49.872,98.208l0.736-0.736C61.984,86.12,77.776,79.72,93.824,80l1.208,0.016   c24.264,0.384,47.096,10.04,64.256,27.184l11.048,11.032l11.312-11.32L170.6,95.88c-20.128-20.096-46.872-31.408-75.312-31.864   L94.08,64c-0.384,0-0.784,0-1.184,0C72.92,64,53.432,72.032,39.28,86.176l-0.736,0.736c-24.816,24.784-38.856,59.04-38.536,93.968   l0.048,6.28c0.16,20.8,6.352,40.952,17.912,58.28c9.272,13.888,14.168,30.048,14.168,46.736c0,17.68-2.832,35.144-8.432,51.904   L9.928,385.328l37.544-21.432c8.088-4.616,15.24-10.376,21.544-16.888C75.816,359.448,88.864,368,104,368   c12.136,0,24.024-4.168,33.496-11.752l3.384-2.704l-7.408,19.76l8.344,2.384c1.136,0.328,14.856,4.192,34.192,8.08V496h64V391.848   C242.68,391.936,245.352,392,248,392c2.648,0,5.32-0.064,8-0.152V496h64V383.776c13.976-2.808,24.976-5.592,30.44-7.056   l84.32,50.232l31.688-52.816l19.608,11.176l-13.792-41.24c-5.6-16.752-8.44-34.216-8.44-51.904   c0-16.696,4.904-32.856,14.184-46.736C489.592,228.104,495.792,207.952,495.944,187.16z M433.768,353.44l-18.208-10.848   c0.216-1.424,0.44-2.848,0.44-4.328c0-1.896-0.232-3.776-0.592-5.624C420.464,340.4,426.632,347.384,433.768,353.44z    M388.224,280.912l11.48,54.536c0.192,0.92,0.296,1.864,0.296,2.816c0,7.568-6.168,13.736-14.176,13.736   c-6.52,0-12.184-4.648-13.528-11.344l-12.976-53.96L388.224,280.912z M338.912,270.296l7.48,31.096l-10.176-6.064l-0.064-0.184   L338.912,270.296z M88,216c-17.648,0-32-14.352-32-32s14.352-32,32-32s32,14.352,32,32S105.648,216,88,216z M128,296   c-4.416,0-8-3.592-8-8v-48.56L147.8,256H144v16h68c6.616,0,12,5.384,12,12s-5.384,12-12,12H128z M224,480h-32v-93.272   c10.072,1.688,20.952,3.168,32,4.128V480z M304,480h-32v-89.144c11.048-0.96,21.928-2.44,32-4.128V480z M248,376   c-35.528,0-76.176-9.16-93.4-13.48L173.544,312H212c6.984,0,13.296-2.664,18.208-6.904l100.632,59.952   C310.656,369.664,277.608,376,248,376z M429.24,405.048L238.816,291.6c0.696-2.432,1.184-4.944,1.184-7.6c0-15.44-12.56-28-28-28   h-32.944l-59.816-35.632c7.816-6.72,13.456-15.896,15.688-26.336l187.976,111.984l0.16,0.488l0.424-0.144l28.136,16.76   l5.048,20.968c2.768,13.848,15.032,23.904,29.6,23.904c9.136,0,17.216-4.224,22.672-10.728l36.064,21.496L429.24,405.048z"/>
	<path style="fill:#333333;" d="M93.448,96c-0.192,0-0.392,0-0.592,0c-11.536,0-22.792,4.648-30.904,12.776l-0.752,0.728   l11.248,11.376l0.776-0.768c5.256-5.264,12.344-8.416,19.968-8.112l1.336,0.024c11.408,0.176,22.472,3.504,31.976,9.624   l8.656-13.464c-12.024-7.728-25.984-11.936-40.368-12.168L93.448,96z"/>
	
		<rect x="139.868" y="121.884" transform="matrix(-0.7069 0.7074 -0.7074 -0.7069 344.1299 116.771)" style="fill:#333333;" width="16.001" height="15.617"/>
</g>
<path style="fill:#FFA64D;" d="M328,214.944l-32-21.328l-24,16l-24-16l-24,16l-24-16l-32,21.328V88c0-48.52,39.48-88,88-88h72v8  c0,12.272-4.976,24.288-13.656,32.968l-0.2,0.2C323.224,56.864,328,74.6,328,92.84V214.944z"/>
<g>
	<rect x="280" y="72" style="fill:#333333;" width="16" height="16"/>
	<rect x="200" y="72" style="fill:#333333;" width="16" height="16"/>
	<path style="fill:#333333;" d="M248,163.312L212.688,128L248,92.688L283.312,128L248,163.312z M235.312,128L248,140.688   L260.688,128L248,115.312L235.312,128z"/>
</g>
<g>
	<rect x="192" y="448" style="fill:#FFA64D;" width="32" height="32"/>
	<rect x="272" y="448" style="fill:#FFA64D;" width="32" height="32"/>
</g>
<g>
</g>
<g>
</g>
<g>
</g>
<g>
</g>
<g>
</g>
<g>
</g>
<g>
</g>
<g>
</g>
<g>
</g>
<g>
</g>
<g>
</g>
<g>
</g>
<g>
</g>
<g>
</g>
<g>
</g>
</svg>
