<?xml version="1.0" encoding="iso-8859-1"?>
<!-- Generator: Adobe Illustrator 19.0.0, SVG Export Plug-In . SVG Version: 6.00 Build 0)  -->
<svg xmlns="http://www.w3.org/2000/svg" xmlns:xlink="http://www.w3.org/1999/xlink" version="1.1" id="Capa_1" x="0px" y="0px" viewBox="0 0 496 496" style="enable-background:new 0 0 496 496;" xml:space="preserve">
<path style="fill:#FFA64D;" d="M352,352v144h-80l-15.064-128.056C256.4,363.416,252.56,360,248,360s-8.4,3.416-8.936,7.944L224,496  h-80V352h-24c-17.672,0-32-14.328-32-32v-24H64c0-20.488,8.136-40.136,22.624-54.624L104,224c-15.896,0-31.688,2.56-46.768,7.592  L56,232l2.824-14.104c1.112-5.576,2.72-11.088,5.152-16.232C76.416,175.28,102.104,160,129.128,160H152v-40l-24,8  c-5.192-15.576-5.192-32.424,0-48h-24l3.512-7.032c13.36-26.712,34.328-48.88,60.256-63.696C178.408,3.2,190.44,0,202.688,0  c13.896,0,27.48,4.112,39.04,11.824L248,16l6.272-4.176C265.832,4.112,279.416,0,293.312,0c12.248,0,24.288,3.2,34.92,9.272  c25.936,14.816,46.896,36.984,60.256,63.696L392,80h-24c5.192,15.576,5.192,32.424,0,48l-24-8v40h22.336  c5.72,0,11.48,0.48,17.032,1.848c28.312,6.96,48.432,29.16,53.744,55.744L440,232l-1.232-0.408C423.688,226.56,407.896,224,392,224  l17.376,17.376C423.864,255.864,432,275.512,432,296h-24v24c0,17.672-14.328,32-32,32H352z"/>
<g>
	<rect x="264" y="88" style="fill:#333333;" width="16" height="16"/>
	<rect x="216" y="88" style="fill:#333333;" width="16" height="16"/>
	<path style="fill:#333333;" d="M200,136h0.408c-0.264,1.296-0.408,2.632-0.408,4v55.312l15.392-15.392   C221.296,185.576,231.6,192,248,192s26.704-6.424,32.608-12.08L296,195.312V140c0-1.368-0.144-2.704-0.408-4H296   c13.232,0,24-10.768,24-24v-7.352V88v-3.16c0-20.456-6-40.256-17.344-57.28l-13.312,8.872c6.88,10.328,11.44,21.872,13.464,33.96   l-31.4-25.12L248,68.688L224.592,45.28l-31.4,25.12c2.024-12.088,6.576-23.632,13.464-33.96l-13.312-8.872   C182,44.584,176,64.392,176,84.84V88v16.648V112C176,125.232,186.768,136,200,136z M256,144h-16v-8c0-4.416,3.584-8,8-8   c4.416,0,8,3.584,8,8V144z M224,140c0,5.52-2.24,10.92-6.144,14.832L216,156.688V140c0-2.2,1.8-4,4-4S224,137.8,224,140z M248,176   c-11.072,0-17.688-4.056-21.296-7.392l2.472-2.472c1.864-1.864,3.464-3.944,4.872-6.144h27.912c1.408,2.2,3.016,4.28,4.872,6.144   l2.472,2.472C265.688,171.944,259.072,176,248,176z M280,140v16.688l-1.856-1.856C274.24,150.92,272,145.52,272,140   c0-2.2,1.8-4,4-4S280,137.8,280,140z M223.408,66.72L248,91.312l24.592-24.592L304,91.848V112c0,4.416-3.584,8-8,8h-30.24   c-4.392-4.872-10.696-8-17.76-8s-13.36,3.128-17.76,8H200c-4.416,0-8-3.584-8-8V91.848L223.408,66.72z"/>
	<polygon style="fill:#333333;" points="408,296 368,296 368,240 352,240 352,296 352,312 352,352 368,352 368,312 408,312  "/>
	<rect x="240" y="232" style="fill:#333333;" width="16" height="24"/>
	<rect x="312" y="280" style="fill:#333333;" width="16" height="24"/>
	<rect x="168" y="280" style="fill:#333333;" width="16" height="24"/>
	<rect x="240" y="296" style="fill:#333333;" width="16" height="24"/>
	<rect x="312" y="368" style="fill:#333333;" width="16" height="24"/>
	<rect x="168" y="368" style="fill:#333333;" width="16" height="24"/>
	<rect x="288" y="432" style="fill:#333333;" width="16" height="24"/>
	<rect x="192" y="432" style="fill:#333333;" width="16" height="24"/>
	<rect x="184" y="208" style="fill:#333333;" width="16" height="24"/>
	<rect x="144" y="184" style="fill:#333333;" width="16" height="24"/>
	<rect x="296" y="208" style="fill:#333333;" width="16" height="24"/>
	<rect x="336" y="184" style="fill:#333333;" width="16" height="24"/>
	<polygon style="fill:#333333;" points="128,296 88,296 88,312 128,312 128,352 144,352 144,312 144,296 144,240 128,240  "/>
</g>
<g>
</g>
<g>
</g>
<g>
</g>
<g>
</g>
<g>
</g>
<g>
</g>
<g>
</g>
<g>
</g>
<g>
</g>
<g>
</g>
<g>
</g>
<g>
</g>
<g>
</g>
<g>
</g>
<g>
</g>
</svg>
