<?xml version="1.0" encoding="iso-8859-1"?>
<!-- Generator: Adobe Illustrator 19.0.0, SVG Export Plug-In . SVG Version: 6.00 Build 0)  -->
<svg xmlns="http://www.w3.org/2000/svg" xmlns:xlink="http://www.w3.org/1999/xlink" version="1.1" id="Capa_1" x="0px" y="0px" viewBox="0 0 496 496" style="enable-background:new 0 0 496 496;" xml:space="preserve">
<g>
	<path style="fill:#FFA64D;" d="M144,288v-51.752c0-13.296,8.216-24.768,20.048-29.552l0.536-5.248L135.2,180.872   C100.744,156.752,60.288,144,18.216,144C8.168,144,0,152.168,0,162.216c0,6.368,3.392,12.352,8.84,15.616l15.232,9.144   C33.896,192.864,40,203.648,40,215.104c0,8.76-3.416,17-9.608,23.192L12.688,256L30,273.312c6.448,6.456,10,15.024,10,24.144   c0,11.44-5.68,22.056-15.792,28.8C19.072,329.672,16,335.4,16,341.576c0,6.736,3.496,12.728,9.352,16.048   c2.856,1.608,5.976,2.424,9.088,2.424c3.256,0,6.512-0.888,9.472-2.664L66.4,343.896c26.816-16.096,56.056-26.856,86.92-32.008   l0.92-9.008C148.256,300.568,144,294.8,144,288z"/>
	<path style="fill:#FFA64D;" d="M477.784,144c-42.072,0-82.52,12.752-116.984,36.872l-29.384,20.568l0.536,5.248   C343.784,211.48,352,222.952,352,236.248V288c0,6.8-4.256,12.568-10.232,14.888l0.92,9.008   c30.864,5.152,60.112,15.912,86.92,32.008l22.488,13.488c2.952,1.776,6.208,2.664,9.48,2.664c3.112,0,6.216-0.816,9.08-2.424   c5.84-3.328,9.344-9.32,9.344-16.056c0-6.176-3.072-11.904-8.808-15.728C461.68,319.504,456,308.888,456,297.456   c0-9.12,3.552-17.688,10-24.144L483.312,256l-17.704-17.704c-6.192-6.192-9.608-14.44-9.608-23.192   c0-11.456,6.104-22.232,15.92-28.128l15.224-9.144c5.464-3.264,8.856-9.248,8.856-15.616C496,152.168,487.832,144,477.784,144z"/>
</g>
<g>
	<rect x="272" y="120" style="fill:#333333;" width="16" height="16"/>
	<rect x="208" y="120" style="fill:#333333;" width="16" height="16"/>
	<path style="fill:#333333;" d="M418.184,429.896c1.984-1,4.024-1.888,5.936-3.032C435.96,419.752,449.512,416,463.328,416h27.992   l-19.64-19.64C458.544,383.232,441.088,376,422.52,376c-10.728,0-21.48,2.536-31.088,7.336l-4.696,2.344   c-6.72,3.36-14.752,3.36-21.472,0C357.08,381.6,352,373.376,352,364.224c0-13.944-1.384-27.944-4.12-41.624l-2.504-12.512   C353.96,306.432,360,297.912,360,288v-16h3.16c17.288,0,34.024,5.064,48.408,14.656l8.872-13.312   C403.424,262,383.616,256,363.16,256H360v-19.472l8.672-5.208c8.352-5.016,17.36-8.872,26.76-11.464l-4.248-15.424   c-10.8,2.976-21.144,7.4-30.744,13.168l-4.032,2.416c-5.568-12.432-17.2-21.688-31.448-23.464L296,192.936v-3.424   c11-9.88,18.968-23.048,22.264-37.984c20.096-2.264,37.392-15.136,45.04-34.272L371.816,96H347.68   C355.312,87.496,360,76.304,360,64c0-26.472-21.528-48-48-48c-1.368,0-2.76,0.064-4.168,0.2C298.76,5.976,285.696,0,272,0   c-8.464,0-16.664,2.256-24,6.568C240.664,2.256,232.472,0,224,0c-13.696,0-26.76,5.976-35.832,16.2   C159.464,13.536,136,36.168,136,64c0,12.304,4.688,23.496,12.32,32h-24.144l8.504,21.256c7.656,19.136,24.952,32.016,45.048,34.272   c3.304,14.936,11.264,28.104,22.264,37.984v3.424l-28.96,3.624c-14.248,1.776-25.88,11.032-31.448,23.464l-4.032-2.416   C116.36,206.088,94.384,200,72,200v16c19.488,0,38.616,5.304,55.328,15.328l8.672,5.2V256h-3.16c-9.12,0-18.208,1.208-27.008,3.592   l4.184,15.448c7.432-2.016,15.112-3.04,22.824-3.04H136v16c0,9.912,6.04,18.432,14.624,22.088L148.12,322.6   c-2.736,13.68-4.12,27.68-4.12,41.624c0,9.152-5.08,17.376-13.264,21.464c-6.72,3.36-14.752,3.352-21.464,0l-4.704-2.352   C94.96,378.536,84.208,376,73.48,376c-18.568,0-36.024,7.232-49.152,20.36L4.688,416H32.68c13.808,0,27.368,3.752,39.208,10.856   c1.912,1.152,3.952,2.032,5.936,3.032C53.44,437.832,32,453.584,17.352,475.552l-11.48,17.216L80.4,474.136   c18.328-4.584,38.264-1.632,54.488,8.112l9.6,5.76c8.696,5.232,18.664,7.992,28.808,7.992H176c17.192,0,34.24-5.68,48-16   c13.752-10.32,34.248-10.328,48,0c13.76,10.32,30.808,16,48,16h2.704c10.152,0,20.112-2.76,28.816-7.984l9.6-5.76   c16.232-9.736,36.16-12.688,54.488-8.112l74.528,18.632l-11.48-17.216C464.008,453.584,442.568,437.84,418.184,429.896z    M320,135.088V112h28.176C343.08,124.088,332.504,132.512,320,135.088z M152,64c0-17.648,14.352-32,32-32   c1.888,0,3.872,0.2,6.056,0.624l5.016,0.96l2.984-4.152C204.088,21.016,213.784,16,224,16c6.864,0,13.496,2.272,19.176,6.56   L248,26.208l4.824-3.648C258.504,18.272,265.144,16,272,16c10.216,0,19.912,5.016,25.944,13.424l2.984,4.152l5.016-0.96   C308.128,32.2,310.112,32,312,32c17.648,0,32,14.352,32,32s-14.352,32-32,32c-10.216,0-19.912-5.016-25.944-13.424l-2.984-4.152   l-5.016,0.96C275.872,79.8,273.888,80,272,80c-6.856,0-13.496-2.272-19.176-6.56L248,69.792l-4.824,3.648   C237.496,77.728,230.864,80,224,80c-1.888,0-3.872-0.2-6.056-0.624l-5.016-0.96l-2.984,4.152C203.912,90.984,194.216,96,184,96   C166.352,96,152,81.648,152,64z M147.824,112H176v23.088C163.496,132.512,152.92,124.088,147.824,112z M192,136v-24.752   c10.688-1.84,20.552-7.248,27.832-15.448c10.152,0.944,19.648-1.36,28.168-6.368c8.528,5.008,18.048,7.328,28.168,6.368   c7.28,8.2,17.144,13.608,27.832,15.448V136c0,30.88-25.12,56-56,56S192,166.88,192,136z M152,236.248   c0-12.08,9.04-22.32,21.024-23.816L216,207.064V200.4c9.656,4.816,20.496,7.6,32,7.6s22.344-2.784,32-7.6v6.664l42.976,5.368   C334.96,213.928,344,224.168,344,236.248V288c0,4.408-3.592,8-8,8h-72c-4.408,0-8-3.592-8-8s3.592-8,8-8h64v-15.64   c0-22.256-18.104-40.36-40.36-40.36c-6.24,0-12.488,1.48-18.048,4.264L248,239.056l-21.584-10.792   C220.84,225.48,214.6,224,208.36,224c-22.256,0-40.36,18.104-40.36,40.36V280h64c4.408,0,8,3.592,8,8s-3.592,8-8,8h-72   c-4.408,0-8-3.592-8-8V236.248z M248,270.128c-4.248-3.808-9.856-6.128-16-6.128h-48c0.192-13.264,11.04-24,24.352-24   c3.768,0,7.528,0.888,10.896,2.576L248,256.944l28.752-14.376c3.36-1.68,7.128-2.568,10.888-2.568   c13.312,0,24.168,10.736,24.352,24h-48C257.856,264,252.248,266.32,248,270.128z M419.496,458.624   c-22.416-5.6-46.76-1.992-66.608,9.912l-9.6,5.76c-6.216,3.728-13.336,5.704-20.584,5.704H320c-13.752,0-27.392-4.544-38.4-12.8   c-19.256-14.456-47.944-14.448-67.2,0c-11.008,8.256-24.648,12.8-38.4,12.8h-2.704c-7.248,0-14.368-1.976-20.584-5.696l-9.6-5.76   c-19.848-11.904-44.192-15.512-66.608-9.912l-30.224,7.56C64.464,449.504,88.392,440,113.688,440h5.64H120h24v-16h-24h-0.672   c-13.808,0-27.368-3.752-39.208-10.856c-11.024-6.616-23.272-10.832-35.952-12.424c15.384-10.112,36.392-11.496,53.24-3.072   l4.704,2.352c11.2,5.6,24.576,5.6,35.784,0C151.528,393.184,160,379.472,160,364.224c0-12.888,1.28-25.84,3.808-38.488L166.56,312   H232c6.144,0,11.752-2.32,16-6.128c4.248,3.808,9.856,6.128,16,6.128h65.44l2.752,13.736c2.528,12.648,3.808,25.6,3.808,38.488   c0,15.248,8.472,28.96,22.112,35.776c11.2,5.6,24.576,5.6,35.784,0l4.696-2.344c16.848-8.424,37.856-7.04,53.24,3.072   c-12.672,1.592-24.928,5.808-35.952,12.424C404.04,420.248,390.488,424,376.672,424H376h-24v16h24h0.672h5.64   c25.296,0,49.224,9.504,67.4,26.184L419.496,458.624z"/>
	<path style="fill:#333333;" d="M91.424,264.664c-5.536,2.424-10.872,5.344-15.864,8.672l8.872,13.312   c4.224-2.816,8.736-5.28,13.408-7.336L91.424,264.664z"/>
	<path style="fill:#333333;" d="M424,216v-16c-5.384,0-10.832,0.36-16.184,1.064l2.096,15.856C414.576,216.312,419.32,216,424,216z"/>
	<rect x="240" y="160" style="fill:#333333;" width="16" height="16"/>
</g>
<g>
</g>
<g>
</g>
<g>
</g>
<g>
</g>
<g>
</g>
<g>
</g>
<g>
</g>
<g>
</g>
<g>
</g>
<g>
</g>
<g>
</g>
<g>
</g>
<g>
</g>
<g>
</g>
<g>
</g>
</svg>
