<?xml version="1.0" encoding="iso-8859-1"?>
<!-- Generator: Adobe Illustrator 19.0.0, SVG Export Plug-In . SVG Version: 6.00 Build 0)  -->
<svg xmlns="http://www.w3.org/2000/svg" xmlns:xlink="http://www.w3.org/1999/xlink" version="1.1" id="Capa_1" x="0px" y="0px" viewBox="0 0 496 496" style="enable-background:new 0 0 496 496;" xml:space="preserve">
<path style="fill:#FFA64D;" d="M350.652,176.808c0.008-0.28,0.008-0.544,0.008-0.808c0-9.128-1.024-19.328-8-27.296V104  c0-57.344-46.656-104-104-104s-104,46.656-104,104v44.704c-6.976,7.968-8,18.168-8,27.296c0,0.264,0,0.528,0.008,0.808  C108.428,180.512,94.66,196.68,94.66,216c0,19.736,14.4,36.072,33.224,39.312c1.6-7.864,4.808-15.352,9.672-21.848  c8.408-11.208,20.816-18.752,34.64-21.056L198.66,208v-22.08c-14.616-11.728-24-29.712-24-49.92v-30.056  C174.66,87.192,189.852,72,208.604,72c9,0,17.632,3.576,24,9.944L238.66,88l6.056-6.056c6.368-6.368,15-9.944,24-9.944  c18.752,0,33.944,15.192,33.944,33.944V136c0,20.2-9.384,38.184-24,49.92V208l26.464,4.408c13.824,2.304,26.232,9.848,34.64,21.056  c4.872,6.496,8.072,13.984,9.672,21.848c18.824-3.24,33.224-19.576,33.224-39.312C382.66,196.68,368.892,180.512,350.652,176.808z"/>
<g>
	<rect x="262.66" y="104" style="fill:#333333;" width="16" height="16"/>
	<rect x="198.66" y="104" style="fill:#333333;" width="16" height="16"/>
	<path style="fill:#333333;" d="M238.66,176c17.648,0,32-14.352,32-32h-16c0,8.824-7.176,16-16,16s-16-7.176-16-16h-16   C206.66,161.648,221.012,176,238.66,176z"/>
	<path style="fill:#333333;" d="M414.244,447.696l-11.616-6.64c-24.704-14.12-56.848-39.888-76.888-65.552   c1.608,0.288,3.24,0.496,4.92,0.496c15.44,0,28-12.56,28-28v-81.832c0-13.432-4.44-26.744-12.496-37.496   c-9.688-12.928-23.8-21.504-39.728-24.152l-19.776-3.296v-11.712c14.688-13.192,24-32.264,24-53.512v-30.064   c0-23.12-18.816-41.936-41.936-41.936c-11.2,0-21.736,4.36-29.656,12.28l-0.408,0.408l-0.408-0.408   C230.332,68.36,219.804,64,208.596,64c-23.12,0-41.936,18.816-41.936,41.936V136c0,21.256,9.312,40.328,24,53.512v11.712   l-19.776,3.296c-15.928,2.64-30.04,11.216-39.728,24.152c-8.056,10.752-12.496,24.064-12.496,37.496V348c0,15.44,12.56,28,28,28   c4.328,0,8.376-1.072,12.032-2.824c-1.2,21.104-10.552,41.408-68.152,75.968l-8.784,5.272l7.24,7.24   c1.176,1.184,25.488,24.704,77.656,32.088V496h32h3.312h28.696h8h80v-9.176c51.592-11.936,82.88-31.192,84.24-32.04   L414.244,447.696z M182.66,136v-30.064C182.66,91.632,194.292,80,208.596,80c6.928,0,13.448,2.696,18.344,7.592l11.72,11.72   l11.72-11.72C255.276,82.696,261.796,80,268.724,80c14.304,0,25.936,11.632,25.936,25.936V136c0,30.872-25.128,56-56,56   S182.66,166.872,182.66,136z M146.66,360c-6.616,0-12-5.384-12-12v-81.832c0-9.992,3.304-19.896,9.296-27.896   c7.208-9.608,17.704-15.992,29.552-17.96l19.72-3.288l13.84,41.52l15.168-5.064l-15.576-46.768V200.4   c9.656,4.816,20.496,7.6,32,7.6s22.344-2.776,32-7.6v6.304l-15.584,46.76l15.168,5.064l13.84-41.52l19.72,3.288   c11.848,1.968,22.344,8.352,29.552,17.96c5.992,8,9.296,17.904,9.296,27.896V348c0,6.616-5.384,12-12,12s-11.992-5.384-11.992-12   v-4v-88h-16v8h-32v16h32v40h-128v-40h32v-16h-32v-8h-16v92C158.66,354.616,153.276,360,146.66,360z M216.132,480   c4.232-5.368,9.248-12.2,14.528-20.448V480H216.132z M302.66,480h-56v-48h-0.592c8.56-17.68,16.304-38.688,20.744-62.536   l-15.736-2.92c-11.328,60.872-46.656,103.224-55.864,113.44c-45.384-0.688-73.536-14.752-86.488-23.256   c67.208-42.672,66.64-69.064,66.04-96.928c-0.048-2.568-0.104-5.152-0.104-7.8h-0.408c0.192-1.32,0.408-2.632,0.408-4v-12h79.776   c-0.192,5.064-0.504,10.112-1.064,15.104l15.904,1.784c0.624-5.576,0.96-11.232,1.16-16.88h32.224v8v4V480z M318.66,470.368V392.08   c18.336,21.536,42.768,41.648,63.968,55.464C370.036,453.76,347.836,463.272,318.66,470.368z"/>
</g>
<path style="fill:#FFA64D;" d="M238.66,331.312l-23.032-23.032c-10.944-10.944-16.968-25.488-16.968-40.968  c0-10.648,8.664-19.312,19.312-19.312c5.088,0,10.064,2.064,13.656,5.656l7.032,7.032l7.032-7.032  c3.592-3.592,8.568-5.656,13.656-5.656c10.648,0,19.312,8.664,19.312,19.312c0,15.48-6.024,30.024-16.968,40.968L238.66,331.312z"/>
<g>
</g>
<g>
</g>
<g>
</g>
<g>
</g>
<g>
</g>
<g>
</g>
<g>
</g>
<g>
</g>
<g>
</g>
<g>
</g>
<g>
</g>
<g>
</g>
<g>
</g>
<g>
</g>
<g>
</g>
</svg>
