<?xml version="1.0" encoding="iso-8859-1"?>
<!-- Generator: Adobe Illustrator 19.0.0, SVG Export Plug-In . SVG Version: 6.00 Build 0)  -->
<svg xmlns="http://www.w3.org/2000/svg" xmlns:xlink="http://www.w3.org/1999/xlink" version="1.1" id="Capa_1" x="0px" y="0px" viewBox="0 0 495.782 495.782" style="enable-background:new 0 0 495.782 495.782;" xml:space="preserve">
<path style="fill:#FFA64D;" d="M397.547,210.126c-11.656-11.656-27.8-18.344-44.28-18.344h-2.456  c5.944-9.496,9.08-20.392,9.08-31.624c0-6.432-1.032-12.776-3.064-18.848l-4.504-13.528l3.48-10.424  c2.712-8.136,4.088-16.632,4.088-25.224c0-30.408-16.896-57.744-44.096-71.344l-18.856-9.432c-30.28-15.144-67.816-15.144-98.096,0  l-18.856,9.432c-27.2,13.6-44.096,40.936-44.096,71.344c0,8.592,1.376,17.088,4.096,25.224l3.472,10.424l-4.504,13.52  c-2.032,6.08-3.064,12.424-3.064,18.856c0,11.232,3.136,22.128,9.08,31.624h-2.456c-16.488,0-32.624,6.688-44.28,18.344  s-18.344,27.8-18.344,44.28v109.376c0,24.256,19.744,44,44,44c10.624,0,20.384-3.792,28-10.088v98.088h78.776l15.808-94.8  c0.232-1.392,2.608-1.392,2.84,0l15.8,94.8h78.776v-98.088c7.616,6.296,17.376,10.088,28,10.088c24.256,0,44-19.744,44-44V254.406  C415.891,237.926,409.203,221.782,397.547,210.126z"/>
<g>
	<path style="fill:#333333;" d="M167.891,160.718c0,34.776,28.296,63.064,63.064,63.064h33.864   c34.776,0,63.072-28.288,63.072-63.064c0-6.792-1.088-13.504-3.232-19.944l-4.128-12.384l3.352-6.704   c2.624-5.248,4.008-11.12,4.008-16.992v-2.912c0-20.952-17.048-38-38-38c-8.176,0-16.272,2.704-22.8,7.6l-19.2,14.4l-19.192-14.4   c-6.536-4.896-14.632-7.6-22.808-7.6c-20.952,0-38,17.048-38,38v2.912c0,5.864,1.384,11.744,4.008,16.992l3.352,6.704   l-4.128,12.384C168.979,147.222,167.891,153.934,167.891,160.718z M186.219,114.534c-1.52-3.04-2.328-6.44-2.328-9.84v-2.912   c0-12.136,9.864-22,22-22c4.736,0,9.424,1.56,13.2,4.4l28.8,21.6l28.808-21.6c3.768-2.84,8.456-4.4,13.192-4.4   c12.136,0,22,9.864,22,22v2.912c0,3.4-0.808,6.8-2.328,9.832l-6.312,12.64l6.224,18.664c1.6,4.808,2.416,9.816,2.416,14.88   c0,25.96-21.112,47.072-47.064,47.072h-33.864c-25.96,0-47.072-21.112-47.072-47.064c0-5.072,0.816-10.08,2.416-14.88l6.224-18.664   L186.219,114.534z"/>
	<rect x="271.891" y="103.782" style="fill:#333333;" width="16" height="16"/>
	<rect x="207.891" y="103.782" style="fill:#333333;" width="16" height="16"/>
	<path style="fill:#333333;" d="M175.891,277.846c0,23.12,18.816,41.936,41.944,41.936c11.192,0,21.728-4.36,29.664-12.28l0.4-0.4   l0.408,0.408c7.92,7.912,18.448,12.272,29.64,12.272c23.128,0,41.944-18.816,41.944-41.936v-38.064h-144V277.846z M191.891,255.782   h112v22.064c0,14.304-11.64,25.936-25.944,25.936c-6.928,0-13.44-2.696-18.336-7.592l-11.72-11.728l-11.712,11.72   c-4.904,4.904-11.424,7.6-18.344,7.6c-14.304,0-25.944-11.632-25.944-25.936V255.782z"/>
	<rect x="271.891" y="271.782" style="fill:#333333;" width="16" height="16"/>
	<rect x="207.891" y="271.782" style="fill:#333333;" width="16" height="16"/>
	<polygon style="fill:#333333;" points="391.891,318.166 367.315,334.55 343.891,322.838 343.891,263.782 327.891,263.782    327.891,399.782 343.891,399.782 343.891,340.726 368.467,353.014 391.891,337.398 411.451,350.438 420.331,337.126  "/>
	<rect x="359.891" y="231.782" style="fill:#333333;" width="16" height="24"/>
	<rect x="359.891" y="287.782" style="fill:#333333;" width="16" height="24"/>
	<rect x="119.891" y="239.782" style="fill:#333333;" width="16" height="24"/>
	<rect x="119.891" y="287.782" style="fill:#333333;" width="16" height="24"/>
	<rect x="239.891" y="335.782" style="fill:#333333;" width="16" height="24"/>
	<rect x="287.891" y="375.782" style="fill:#333333;" width="16" height="24"/>
	<rect x="191.891" y="375.782" style="fill:#333333;" width="16" height="24"/>
	<rect x="287.891" y="431.782" style="fill:#333333;" width="16" height="24"/>
	<rect x="191.891" y="431.782" style="fill:#333333;" width="16" height="24"/>
	<path style="fill:#333333;" d="M231.891,183.782c0-8.824,7.176-16,16-16c8.824,0,16,7.176,16,16h16c0-17.648-14.352-32-32-32   s-32,14.352-32,32H231.891z"/>
	<polygon style="fill:#333333;" points="151.891,322.838 128.467,334.55 103.891,318.166 75.451,337.126 84.331,350.438    103.891,337.398 127.315,353.014 151.891,340.726 151.891,399.782 167.891,399.782 167.891,263.782 151.891,263.782  "/>
</g>
<g>
</g>
<g>
</g>
<g>
</g>
<g>
</g>
<g>
</g>
<g>
</g>
<g>
</g>
<g>
</g>
<g>
</g>
<g>
</g>
<g>
</g>
<g>
</g>
<g>
</g>
<g>
</g>
<g>
</g>
</svg>
