<?xml version="1.0" encoding="iso-8859-1"?>
<!-- Generator: Adobe Illustrator 19.0.0, SVG Export Plug-In . SVG Version: 6.00 Build 0)  -->
<svg xmlns="http://www.w3.org/2000/svg" xmlns:xlink="http://www.w3.org/1999/xlink" version="1.1" id="Capa_1" x="0px" y="0px" viewBox="0 0 496 496" style="enable-background:new 0 0 496 496;" xml:space="preserve">
<g>
	<path style="fill:#FFA64D;" d="M247.996,0c-66.168,0-120,53.832-120,120v112h6.88c7.864-7.208,17.336-12.592,27.768-15.584   L191.996,208v-2.456c0-7.48,6.064-13.544,13.544-13.544l0,0c1.624,0,3.232,0.288,4.752,0.864L234.964,208h26.072l24.664-15.136   c1.52-0.576,3.128-0.864,4.752-0.864l0,0c7.48,0,13.544,6.064,13.544,13.544V208l29.352,8.416   c10.432,2.992,19.896,8.376,27.768,15.584h6.88V120C367.996,53.832,314.164,0,247.996,0z M327.996,120c0,44.184-35.816,80-80,80   s-80-35.816-80-80V88h52.752c10.104-5.44,19.392-13.528,27.248-24c7.856,10.472,17.144,18.56,27.248,24h52.752V120z"/>
	<path style="fill:#FFA64D;" d="M247.996,344l-57.848,11.4c10.544,22.232,33.256,36.6,57.848,36.6   c24.584,0,47.288-14.352,57.832-36.568L247.996,344z"/>
	<path style="fill:#FFA64D;" d="M247.996,264c-24.584,0-47.288,14.352-57.832,36.568L247.996,312l57.832-11.448   C295.268,278.352,272.572,264,247.996,264z"/>
</g>
<g>
	<path style="fill:#333333;" d="M388.436,465.344c-27.296-18.2-47.936-61.576-56.256-95.736l38.552,46.608l4.552-13.68   c10.888-32.68,16.416-66.704,16.416-101.128V283.24c0-13.832-3.712-27.448-10.736-39.36c-10.128-17.176-26.248-29.664-45.416-35.16   l-23.928-6.856c-0.96-5.52-4.016-10.28-8.32-13.512c19.92-16.144,32.696-40.776,32.696-68.352V88h-16h-14.064   c-19.304,0-37.608-10.224-51.536-28.8l-6.4-8.536l-6.4,8.536C227.668,77.768,209.364,88,190.06,88h-14.064h-16v32   c0,27.576,12.776,52.208,32.696,68.36c-4.304,3.232-7.36,7.992-8.32,13.512l-23.928,6.856   c-19.168,5.496-35.288,17.976-45.416,35.16c-7.024,11.912-10.736,25.52-10.736,39.36v18.168c0,34.424,5.52,68.448,16.416,101.128   l4.552,13.68l38.552-46.608c-8.32,34.168-28.96,77.536-56.256,95.736l-5.872,3.912l3.16,6.32   c1.04,2.088,11.472,20.416,55.152,20.416c21.136,0,32.432-6.184,43.344-12.168c11.12-6.08,21.608-11.832,44.656-11.832   s33.536,5.752,44.656,11.832C303.564,489.816,314.86,496,335.996,496c43.68,0,54.112-18.328,55.16-20.424l3.16-6.32   L388.436,465.344z M319.996,344h-48c-8.824,0-16-7.176-16-16s7.176-16,16-16h48V344z M255.996,220.48l33.088-20.304   c3.336-0.888,6.912,1.848,6.912,5.368v36.912c0,3.52-3.568,6.248-6.912,5.368l-33.088-20.304V220.48z M175.996,120v-16h14.064   c21.176,0,41.848-9.896,57.936-27.48c16.088,17.584,36.76,27.48,57.936,27.48h14.064v16c0,39.704-32.296,72-72,72   S175.996,159.704,175.996,120z M206.908,247.832c-3.344,0.872-6.912-1.848-6.912-5.368v-36.912c0-3.056,2.496-5.552,5.544-5.552   c0.472,0,0.92,0.056,1.368,0.168l33.088,20.312v7.048L206.908,247.832z M120.292,301.408V283.24   c0-10.984,2.944-21.784,8.512-31.232c8.04-13.632,20.832-23.544,36.04-27.904l19.152-5.488v23.848   c0,11.872,9.664,21.536,21.544,21.536c2.6,0,5.152-0.464,7.568-1.376l34.856-21.256l33.544,20.592l1.368,0.664   c2.424,0.912,4.968,1.376,7.576,1.376c11.88,0,21.544-9.664,21.544-21.536v-23.848l19.152,5.488c15.2,4.36,28,14.272,36.04,27.904   c5.568,9.456,8.512,20.248,8.512,31.232v18.168c0,27.816-3.8,55.352-11.288,82.064l-28.416-34.352V296v-2.232l18.528-6.176   l-5.064-15.168l-29.464,9.808V296h-48c-9.608,0-18.128,4.336-24,11.056c-5.872-6.72-14.392-11.056-24-11.056h-48v-13.768   l-29.472-9.824l-5.064,15.168l18.536,6.192V296v53.12l-28.416,34.352C124.092,356.76,120.292,329.216,120.292,301.408z    M175.996,344v-32h48c8.824,0,16,7.176,16,16s-7.176,16-16,16H175.996z M335.996,480c-17.04,0-25.672-4.728-35.656-10.192   C288.524,463.336,275.14,456,247.996,456s-40.528,7.336-52.344,13.808C185.668,475.272,177.036,480,159.996,480   c-19.456,0-30.152-4.008-35.656-7.304c28-23.6,48.056-67.608,55.984-103.272L182.42,360h41.576c9.608,0,18.128-4.336,24-11.056   c5.872,6.72,14.392,11.056,24,11.056h41.576l2.096,9.424c7.928,35.656,27.968,79.64,55.952,103.248   C366.068,476.024,355.388,480,335.996,480z"/>
	<rect x="287.996" y="112" style="fill:#333333;" width="16" height="16"/>
	<rect x="191.996" y="112" style="fill:#333333;" width="16" height="16"/>
	<path style="fill:#333333;" d="M247.996,184c22.056,0,40-17.944,40-40h-16c0,13.232-10.768,24-24,24c-13.232,0-24-10.768-24-24h-16   C207.996,166.056,225.94,184,247.996,184z"/>
</g>
<g>
</g>
<g>
</g>
<g>
</g>
<g>
</g>
<g>
</g>
<g>
</g>
<g>
</g>
<g>
</g>
<g>
</g>
<g>
</g>
<g>
</g>
<g>
</g>
<g>
</g>
<g>
</g>
<g>
</g>
</svg>
