<?xml version="1.0" encoding="iso-8859-1"?>
<!-- Generator: Adobe Illustrator 19.0.0, SVG Export Plug-In . SVG Version: 6.00 Build 0)  -->
<svg xmlns="http://www.w3.org/2000/svg" xmlns:xlink="http://www.w3.org/1999/xlink" version="1.1" id="Capa_1" x="0px" y="0px" viewBox="0 0 496 496" style="enable-background:new 0 0 496 496;" xml:space="preserve">
<path style="fill:#FFA64D;" d="M353.24,334.368L336,320l-43.032,43.032c-3.176,3.176-7.496,4.968-12,4.968  C271.6,368,264,360.4,264,351.032c0-4.504,1.792-8.816,4.968-12L320,288h16h32h16c0-29.024-19.328-53.496-45.808-61.336  C361.496,203.48,376,171.464,376,136c0-21.192-5.232-41.128-14.344-58.728L424,8H248c-70.696,0-128,57.304-128,128  c0,35.464,14.504,67.48,37.808,90.664C131.328,234.504,112,258.976,112,288h16h32h16l51.032,51.032  c3.184,3.184,4.968,7.496,4.968,12C232,360.4,224.4,368,215.032,368c-4.504,0-8.816-1.792-12-4.968L160,320l-17.24,14.368  c-20.04,16.704-34.592,39.048-41.76,64.136c-3.32,11.608-5,23.624-5,35.696V488h304v-53.8c0-12.072-1.68-24.088-5-35.704  C387.832,373.416,373.28,351.072,353.24,334.368z M216,272v-38.088c-32.76-12.808-56-44.608-56-81.912c0-5.472,0.568-10.808,1.52-16  h28.536c21.728,0,42.576-8.632,57.944-24c15.368,15.368,36.208,24,57.944,24h28.536c0.952,5.192,1.52,10.528,1.52,16  c0,40.272-27.08,74.144-64,84.6V272H216z M288,408c0,22.088-17.912,40-40,40s-40-17.912-40-40v-8h80V408z"/>
<g>
	<rect x="280" y="160" style="fill:#333333;" width="16" height="16"/>
	<rect x="200" y="160" style="fill:#333333;" width="16" height="16"/>
	<rect x="240" y="192" style="fill:#333333;" width="16" height="16"/>
	<path style="fill:#333333;" d="M477.064,382.248l-9.096-5.192c-36.384-20.792-68.824-47.32-96.424-78.864l-1.128-1.296l0.896-0.896   H392v-8c0-28.2-16.336-52.6-40.016-64.408C372.696,199.136,384,168.576,384,136c0-20.016-4.296-39.304-12.776-57.4L441.968,0H248   c-74.992,0-136,61.008-136,136c0,32.576,11.296,63.144,32.008,87.592C120.336,235.4,104,259.8,104,288v8h20.688l0.896,0.896   l-1.128,1.296c-27.6,31.544-60.04,58.072-96.424,78.864l-9.096,5.192l16.776,16.776c14.304,14.304,32.808,22.864,52.72,24.608   C88.168,427.144,88,430.664,88,434.2V496h320v-61.8c0-3.528-0.168-7.056-0.44-10.568c19.92-1.744,38.416-10.296,52.72-24.608   L477.064,382.248z M287.312,357.376c-1.696,1.688-3.944,2.624-6.344,2.624c-4.944,0-8.968-4.024-8.968-8.968   c0-2.4,0.936-4.648,2.624-6.344L323.312,296h25.056l0.152,0.168L287.312,357.376z M216,392v-8c0-2.816,0.488-5.544,1.2-8.216   c12.008-1.056,21.52-10.56,22.584-22.568c5.384-1.424,11.048-1.424,16.44,0c1.064,12.008,10.568,21.512,22.576,22.568   c0.712,2.672,1.2,5.392,1.2,8.216v8H216z M147.48,296.168l0.152-0.168h25.056l48.688,48.688c1.688,1.696,2.624,3.944,2.624,6.344   c0,4.944-4.024,8.968-8.968,8.968c-2.4,0-4.648-0.936-6.344-2.624L147.48,296.168z M168,152c0-2.64,0.144-5.288,0.432-8h21.624   c21.448,0,41.744-7.456,57.944-21.144C264.192,136.544,284.496,144,305.944,144h21.624c0.288,2.712,0.432,5.36,0.432,8   c0,44.112-35.888,80-80,80S168,196.112,168,152z M248,248c5.464,0,10.784-0.568,16-1.448V264h-40v-19.16   C231.688,246.832,239.704,248,248,248z M222.528,280h42.952c3.312,9.288,12.112,16,22.528,16h12.688l-37.376,37.376   c-1.288,1.288-2.384,2.712-3.344,4.208c-7.84-2-16.104-2-23.936,0c-0.96-1.496-2.056-2.92-3.344-4.208L195.312,296H200   C210.416,296,219.216,289.288,222.528,280z M280,408c0,17.648-14.352,32-32,32s-32-14.352-32-32H280z M375.432,280H288   c-4.408,0-8-3.592-8-8v-29.6c7.44-2.64,14.48-6.104,20.952-10.4H320C348.168,232,371.536,252.896,375.432,280z M128,136   c0-66.168,53.832-120,120-120h158.032L352,76.032l2.544,4.92C363.472,98.192,368,116.712,368,136   c0,30.792-11.512,59.488-32.36,81.76C330.6,216.64,325.376,216,320,216h-0.648C334.616,198.992,344,176.6,344,152   c0-5.688-0.544-11.4-1.656-17.448L341.136,128h-35.192c-19.752,0-38.32-7.688-52.288-21.656L248,100.688l-5.656,5.656   C228.376,120.312,209.808,128,190.056,128h-35.192l-1.208,6.552C152.544,140.6,152,146.312,152,152c0,24.6,9.384,46.992,24.648,64   H176c-5.376,0-10.6,0.64-15.64,1.76C139.512,195.496,128,166.792,128,136z M176,232h19.048c4.096,2.72,8.448,5.08,12.952,7.16V272   c0,4.408-3.592,8-8,8h-79.432C124.464,252.896,147.832,232,176,232z M47.024,387.712l-2.064-2.064   c34.304-20.824,65.048-46.656,91.528-76.92l0.432-0.496l11.224,11.224l-10.512,8.76c-21.36,17.8-36.688,41.336-44.328,68.08   c-1.08,3.776-1.936,7.592-2.688,11.44C74.152,406.48,58.832,399.52,47.024,387.712z M392,480H104v-45.8   c0-11.336,1.576-22.6,4.688-33.504c6.752-23.64,20.304-44.448,39.184-60.184l11.632-9.688l37.864,37.864   c1.288,1.288,2.704,2.376,4.192,3.336c-0.992,3.888-1.56,7.888-1.56,11.976v8v8v8c0,26.472,21.528,48,48,48s48-21.528,48-48v-8v-8   v-8c0-4.088-0.568-8.08-1.568-11.976c1.496-0.96,2.912-2.056,4.192-3.336l37.864-37.864l11.632,9.688   c18.88,15.736,32.432,36.544,39.184,60.184C390.424,411.6,392,422.864,392,434.2V480z M448.976,387.712   c-11.8,11.8-27.128,18.768-43.592,20.024c-0.752-3.84-1.608-7.664-2.688-11.44c-7.64-26.736-22.968-50.28-44.328-68.08   l-10.512-8.76l11.224-11.224l0.432,0.496c26.48,30.264,57.232,56.096,91.528,76.92L448.976,387.712z"/>
	<rect x="304" y="32" style="fill:#333333;" width="16" height="16"/>
	<path style="fill:#333333;" d="M248,48h40V32h-40c-37.016,0-71.528,19.92-90.08,52l13.848,8.008C187.472,64.864,216.68,48,248,48z"/>
</g>
<g>
</g>
<g>
</g>
<g>
</g>
<g>
</g>
<g>
</g>
<g>
</g>
<g>
</g>
<g>
</g>
<g>
</g>
<g>
</g>
<g>
</g>
<g>
</g>
<g>
</g>
<g>
</g>
<g>
</g>
</svg>
