<?xml version="1.0" encoding="iso-8859-1"?>
<!-- Generator: Adobe Illustrator 19.0.0, SVG Export Plug-In . SVG Version: 6.00 Build 0)  -->
<svg xmlns="http://www.w3.org/2000/svg" xmlns:xlink="http://www.w3.org/1999/xlink" version="1.1" id="Capa_1" x="0px" y="0px" viewBox="0 0 497.24 497.24" style="enable-background:new 0 0 497.24 497.24;" xml:space="preserve">
<g>
	<path style="fill:#FFA64D;" d="M415.884,305.296c-2.352,9.152-10.584,15.944-20.464,15.944h-4.112   c-4.352,0-8.592-1.336-12.16-3.832L304.62,265.24l-0.784-2.096c0.472,2.064,0.784,4.176,0.784,6.384v51.712l32,56   c0,0-16.056,6.408-40,11.112v2.544h10.344c27.304,27.304,63.608,42.344,102.224,42.344h31.432v-13.496   c0-35.72-8.6-71.4-24.864-103.192L415.884,305.296z"/>
	<path style="fill:#FFA64D;" d="M203.228,390.896h12.616c-4.776-0.664-9.328-1.424-13.656-2.248L203.228,390.896z"/>
	<path style="fill:#FFA64D;" d="M192.62,321.24v-51.72c0-2.2,0.312-4.32,0.784-6.376l-0.784,2.096l-74.528,52.168   c-3.56,2.496-7.808,3.832-12.152,3.832h-4.12c-9.832,0-18.032-6.728-20.424-15.816l0.088,11.128   c-16.264,31.8-24.864,67.48-24.864,103.192v13.496h31.432c38.616,0,74.92-15.04,102.224-42.344h10.344v-2.544   c-23.944-4.704-40-11.112-40-11.112L192.62,321.24z"/>
	<path style="fill:#FFA64D;" d="M458.796,1.24c-40.536,0-80.008,8.024-117.304,23.848l3.128,0.152c5.312,21.256,8,43.08,8,64.984   v10.904c7.688-2.512,15.76-3.888,24-3.888l-4.08,16.304c-2.528,10.096-8.72,18.896-17.384,24.664l0,0   c-6.872,4.584-14.944,7.032-23.208,7.032H320.62v-8c0,28.2-16.248,52.544-39.864,64.36l6.264,16.704l22.968,3.832   c12.248,2.04,23.856,6.904,33.904,14.216l63.992,46.544c4.096,2.976,6.936,7.288,8.112,12.096l0.24-20.864   c14.024-6.968,26.944-16.144,38.032-27.232c27.312-27.304,42.352-63.608,42.352-102.224V1.24H458.796z"/>
	<path style="fill:#FFA64D;" d="M176.62,137.24v8h-11.328c-8.264,0-16.336-2.448-23.208-7.024l0,0   c-8.664-5.776-14.856-14.568-17.384-24.664l-4.08-16.312c8.24,0,16.312,1.376,24,3.888V88.072c0-23.464,13.112-44.896,33.88-55.696   l-6.328,0.28C130.844,12.104,84.604,1.24,38.444,1.24H0.62v143.432c0,38.616,15.04,74.92,42.344,102.224   c11.128,11.128,24.096,20.328,38.184,27.296l0.168,20.592c1.208-4.728,4.008-8.968,8.04-11.904l63.992-46.544   c10.048-7.304,21.648-12.168,33.904-14.216l22.968-3.832l6.264-16.704C192.868,189.784,176.62,165.44,176.62,137.24z"/>
</g>
<g>
	<rect x="280.62" y="121.24" style="fill:#333333;" width="16" height="16"/>
	<rect x="200.62" y="121.24" style="fill:#333333;" width="16" height="16"/>
	<path style="fill:#333333;" d="M280.62,153.24h-16c0,8.824-7.176,16-16,16s-16-7.176-16-16h-16c0,17.648,14.352,32,32,32   S280.62,170.888,280.62,153.24z"/>
	<path style="fill:#333333;" d="M412.596,276.416l-64-46.536c-11-8-23.888-13.4-37.296-15.632l-22.68-3.784v-4.048   c19.44-11.288,33.76-30.472,38.384-53.176h4.944c9.872,0,19.432-2.888,27.648-8.368c10.336-6.896,17.688-17.336,20.704-29.392   l6.56-26.24h-10.24c-5.432,0-10.776,0.536-16,1.528v-0.544c0-22.536-2.776-45.056-8.24-66.92l-2.624-10.48l-38.792,23.272   c-3.192-12.48-10.88-23.496-21.88-30.832L281.188,0l-4.152,2.08C257.22,12,235.02,17.24,212.844,17.24h-5.392   c-10.936,0-21.888,2.584-31.672,7.48c-24.16,12.064-39.16,36.352-39.16,63.352v2.688c-5.224-0.984-10.568-1.52-16-1.52h-10.248   l6.56,26.24c3.008,12.056,10.36,22.496,20.704,29.392c8.224,5.48,17.784,8.368,27.648,8.368h4.944   c4.632,22.704,18.944,41.888,38.384,53.176v4.048l-22.68,3.784c-13.408,2.232-26.304,7.632-37.296,15.632l-64,46.536   c-7.52,5.488-12.016,14.32-12.016,23.624c0,16.104,13.104,29.2,29.2,29.2h4.112c6.024,0,11.824-1.832,16.744-5.28l61.944-43.352   v38.512l-35.504,62.136l8.536,3.416c0.96,0.384,14.48,5.704,34.976,10.216V497.24h48h8h56V394.888   c20.488-4.512,34.008-9.832,34.976-10.216l8.536-3.416l-35.52-62.136v-38.512l61.928,43.352c4.936,3.456,10.728,5.28,16.752,5.28   h4.112c16.104,0,29.2-13.104,29.2-29.2C424.62,290.736,420.124,281.904,412.596,276.416z M364.78,111.608   c-2.04,8.176-7.04,15.264-14.056,19.952c-5.584,3.72-12.072,5.68-18.768,5.68h-3.336v-12.552   c10.44-10.064,23.44-16.552,37.56-18.68L364.78,111.608z M152.62,88.072c0-20.904,11.616-39.704,30.312-49.048   c7.576-3.784,16.056-5.784,24.52-5.784h5.392c23.08,0,46.192-5.112,67.136-14.816l0.232,0.16   c10.272,6.848,16.408,18.312,16.408,30.656v14.136l42.656-25.592c3.544,17.24,5.344,34.832,5.344,52.44v5.232   c-5.608,2.272-10.96,5.152-16,8.6V97.24h-22.064c-19.752,0-38.32-7.688-52.28-21.656l-5.656-5.656l-5.656,5.656   c-13.968,13.968-32.528,21.656-52.28,21.656H168.62v6.816c-5.032-3.448-10.392-6.328-16-8.6V88.072z M165.284,137.24   c-6.704,0-13.192-1.96-18.768-5.68c-7.024-4.688-12.016-11.776-14.064-19.952l-1.4-5.592c14.12,2.128,27.12,8.616,37.56,18.68   v12.544H165.284z M184.62,137.24v-24h6.064c21.448,0,41.744-7.456,57.936-21.144c16.192,13.688,36.496,21.144,57.936,21.144h6.064   v24c0,35.288-28.712,64-64,64S184.62,172.528,184.62,137.24z M208.62,481.24v-83.328c9.824,1.576,20.608,2.776,32,3.168v80.16   H208.62z M288.62,481.24h-32v-80.16c11.392-0.392,22.176-1.592,32-3.168V481.24z M248.62,385.24   c-32.904,0-62.24-7.888-76.28-12.392l24.92-43.608h67.36v-16h-64v-43.72c0-11.176,9.104-20.28,20.288-20.28   c5.424,0,10.512,2.112,14.336,5.936l13.376,13.376l13.368-13.376c3.832-3.824,8.928-5.936,14.344-5.936   c11.184,0,20.288,9.104,20.288,20.28v43.72h-16v16h19.36l24.92,43.616C310.892,377.36,281.62,385.24,248.62,385.24z M395.42,313.24   h-4.112c-2.72,0-5.336-0.832-7.576-2.392l-72.504-50.752c-4.184-15.424-18.168-26.856-34.896-26.856   c-9.696,0-18.808,3.776-25.664,10.624l-2.048,2.064l-2.056-2.064c-6.848-6.848-15.96-10.624-25.656-10.624   c-16.728,0-30.704,11.432-34.888,26.856l-72.512,50.752c-2.232,1.56-4.848,2.392-7.568,2.392h-4.12c-7.28,0-13.2-5.92-13.2-13.2   c0-4.208,2.032-8.2,5.44-10.68l64-46.536c8.992-6.536,19.544-10.96,30.512-12.792l36.048-6.016v-10.464   c7.584,2.384,15.64,3.688,24,3.688c8.36,0,16.416-1.304,24-3.688v10.464l36.056,6.016c10.968,1.832,21.512,6.248,30.504,12.792   l64,46.536c3.408,2.48,5.44,6.472,5.44,10.68C408.62,307.32,402.7,313.24,395.42,313.24z"/>
	<path style="fill:#333333;" d="M100.316,230.168c-4.496-2.36-8.856-5.112-12.952-8.168l-9.576,12.816   c4.768,3.56,9.84,6.768,15.088,9.52L100.316,230.168z"/>
	<path style="fill:#333333;" d="M48.62,144.672V41.248h-16v103.424c0,30.072,11.704,58.344,32.968,79.6L76.9,212.96   C58.66,194.72,48.62,170.464,48.62,144.672z"/>
	<path style="fill:#333333;" d="M419.452,234.816L409.876,222c-4.088,3.056-8.448,5.808-12.952,8.168l7.44,14.168   C409.604,241.584,414.684,238.384,419.452,234.816z"/>
	<path style="fill:#333333;" d="M448.62,41.248v103.424c0,25.8-10.04,50.048-28.28,68.288l11.312,11.312   c21.264-21.256,32.968-49.528,32.968-79.6V41.248H448.62z"/>
</g>
<g>
</g>
<g>
</g>
<g>
</g>
<g>
</g>
<g>
</g>
<g>
</g>
<g>
</g>
<g>
</g>
<g>
</g>
<g>
</g>
<g>
</g>
<g>
</g>
<g>
</g>
<g>
</g>
<g>
</g>
</svg>
