<?xml version="1.0" encoding="iso-8859-1"?>
<!-- Generator: Adobe Illustrator 19.0.0, SVG Export Plug-In . SVG Version: 6.00 Build 0)  -->
<svg xmlns="http://www.w3.org/2000/svg" xmlns:xlink="http://www.w3.org/1999/xlink" version="1.1" id="Capa_1" x="0px" y="0px" viewBox="0 0 498.024 498.024" style="enable-background:new 0 0 498.024 498.024;" xml:space="preserve">
<g>
	<path style="fill:#333333;" d="M412.688,59.204l4.776-22.712c0.376-1.728,0.56-3.52,0.56-5.32v-4.496   c0-14.152-11.512-25.664-25.664-25.664c-12.072,0-22.632,8.568-25.12,20.376l-56.272,267.304   c-17.104-11.136-32.328-24.696-45.096-40.672c-0.832-1.04-1.728-2.016-2.648-2.96l26.688-34.312   c15.552-19.984,24.112-44.936,24.112-70.256c0-20.904-5.864-41.648-16.68-59.48h38.792c9.864,0,17.888-8.024,17.888-17.888   c0-6.824-3.792-12.952-9.888-16L304.44,27.276C270.08,10.092,231.6,1.012,193.192,1.012h-15.648   c-47.992,0-94.712,16.92-131.584,47.64C18.04,71.924,2.024,106.116,2.024,142.46c0,24.184,7.096,47.608,20.504,67.736   l24.512,36.768c-5.056,3.816-9.672,8.248-13.536,13.4c-4.416,5.888-7.84,12.424-10.168,19.416L0,349.796l22.472,8.432l-17.56,35.12   c-1.888,3.784-2.888,8.024-2.888,12.248c0,15.12,12.296,27.416,27.416,27.416h1.592c0.112,0,0.216-0.024,0.328-0.024   c-8.736,14.808-18,29.312-27.888,43.432l-1.448,2.072v18.52h296v-0.168c0.56,0.04,1.096,0.168,1.664,0.168   c12.072,0,22.632-8.568,25.12-20.376l19.32-91.768c6.24-5.744,9.896-13.824,9.896-22.48c0-4.24-0.904-8.344-2.592-12.232   l37.576-178.48c53.328,38.488,85.28,111.6,85.664,112.488l2.08,4.848h21.272v-88C498.024,123.212,449.496,80.452,412.688,59.204z    M382.896,24.684c0.944-4.448,4.92-7.672,9.464-7.672c5.328,0,9.664,4.336,9.664,9.664v4.496c0,0.672-0.072,1.328-0.208,1.992   l-3.848,18.304c-7.832-3.744-14.44-6.328-19.032-7.952L382.896,24.684z M40.824,411.476c-2.056,3.408-5.808,5.536-9.792,5.536   H29.44c-6.296,0-11.416-5.12-11.416-11.416c0-1.768,0.416-3.528,1.2-5.112l18.312-36.616l25.104,9.416   c-1.408,3.056-2.92,6.056-4.368,9.088L40.824,411.476z M72.392,389.948l0.488-0.816l-0.08-0.048   c12.12-25.352,22.768-51.432,31.696-78.184l1.12-3.36l-15.184-5.048l-1.112,3.352c-5.976,17.912-12.784,35.488-20.232,52.776   l-49.04-18.384l18.464-55.392c1.792-5.36,4.416-10.36,7.8-14.872c9.84-13.128,25.512-20.96,41.904-20.96h9.808v-16h-9.808   c-9.512,0-18.792,2.12-27.336,5.864l-25.032-37.552c-11.656-17.496-17.824-37.848-17.824-58.864   c0-31.584,13.912-61.296,38.184-81.52c33.992-28.328,77.08-43.928,121.328-43.928h15.648c35.944,0,71.944,8.496,104.096,24.576   l39.696,19.848c0.648,0.32,1.048,0.968,1.048,1.688c0,1.04-0.848,1.888-1.888,1.888h-70.104l12.304,16.416   c12.696,16.92,19.688,37.904,19.688,59.064c0,21.784-7.368,43.24-20.736,60.44L249.936,236.1   c-4.784-1.984-9.952-3.088-15.296-3.088h-24.616v16h24.616c7.328,0,14.168,3.288,18.744,9.008   c15.144,18.928,33.336,34.864,54.048,47.496l-0.744,3.52l-41.088,41.08l-44.808-38.408c-0.672-1.96-1.4-3.896-2.056-5.856   l-1.12-3.36l-15.184,5.048l1.128,3.368c17.52,52.568,41.504,102.872,71.24,149.632l-0.208,0.992c-0.376,1.736-0.56,3.52-0.56,5.32   v4.496c0,3.424,0.704,6.68,1.92,9.664H19.76C39.688,452.036,57.216,421.572,72.392,389.948z M279.56,437.884   c-18.304-30.448-34.128-62.344-47.336-95.312l34.216,29.336l11.584-11.584l14.76,14.76L279.56,437.884z M289.336,349.012   l11.32-11.32l-3.936,18.696L289.336,349.012z M309.152,473.34c-0.944,4.448-4.92,7.672-9.464,7.672   c-5.328,0-9.664-4.336-9.664-9.664v-4.496c0-0.664,0.072-1.32,0.208-1.984l65.44-310.848c6.528,2.248,12.84,5.104,18.92,8.48   L309.152,473.34z M482.024,262.508c-16.368-31.896-59.32-103.464-123.04-124.208l16.632-79.016   c25.56,9.352,106.408,46.48,106.408,141.728V262.508z"/>
	
		<rect x="368.926" y="104.987" transform="matrix(-0.1788 0.9839 -0.9839 -0.1788 574.8051 -253.7952)" style="fill:#333333;" width="48.785" height="15.992"/>
</g>
<path style="fill:#FFA64D;" d="M186.024,289.012h-64c-13.232,0-24-10.768-24-24v-16.456c-30.528-19.552-48.808-53.608-47.976-89.976  c1.24-53.912,46.064-99.44,99.912-101.496c28.624-1.184,55.632,9.2,76.176,28.984c20.568,19.8,31.888,46.416,31.888,74.944  c0,35.36-18.272,68.488-48,87.544v16.456C210.024,278.244,199.256,289.012,186.024,289.012z"/>
<g>
	<path style="fill:#333333;" d="M114.024,185.012c-13.232,0-24-10.768-24-24v-16c0-13.232,10.768-24,24-24s24,10.768,24,24v16   C138.024,174.244,127.256,185.012,114.024,185.012z M114.024,137.012c-4.416,0-8,3.592-8,8v16c0,4.408,3.584,8,8,8s8-3.592,8-8v-16   C122.024,140.604,118.44,137.012,114.024,137.012z"/>
	<path style="fill:#333333;" d="M194.024,185.012c-13.232,0-24-10.768-24-24v-16c0-13.232,10.768-24,24-24s24,10.768,24,24v16   C218.024,174.244,207.256,185.012,194.024,185.012z M194.024,137.012c-4.416,0-8,3.592-8,8v16c0,4.408,3.584,8,8,8s8-3.592,8-8v-16   C202.024,140.604,198.44,137.012,194.024,137.012z"/>
	<rect x="130.024" y="241.012" style="fill:#333333;" width="16" height="48"/>
	<rect x="162.024" y="241.012" style="fill:#333333;" width="16" height="48"/>
	<rect x="130.024" y="193.012" style="fill:#333333;" width="16" height="16"/>
	<rect x="162.024" y="193.012" style="fill:#333333;" width="16" height="16"/>
</g>
<g>
</g>
<g>
</g>
<g>
</g>
<g>
</g>
<g>
</g>
<g>
</g>
<g>
</g>
<g>
</g>
<g>
</g>
<g>
</g>
<g>
</g>
<g>
</g>
<g>
</g>
<g>
</g>
<g>
</g>
</svg>
