<?xml version="1.0" encoding="iso-8859-1"?>
<!-- Generator: Adobe Illustrator 19.0.0, SVG Export Plug-In . SVG Version: 6.00 Build 0)  -->
<svg xmlns="http://www.w3.org/2000/svg" xmlns:xlink="http://www.w3.org/1999/xlink" version="1.1" id="Capa_1" x="0px" y="0px" viewBox="0 0 496.009 496.009" style="enable-background:new 0 0 496.009 496.009;" xml:space="preserve">
<circle style="fill:#FFA64D;" cx="248.001" cy="152.009" r="48"/>
<g>
	<path style="fill:#333333;" d="M425.913,397.601c-13.28-7.584-24.784-18.32-33.28-31.064   c-10.88-16.328-16.632-35.328-16.632-54.944v-5.888c0-16.696,5.168-33.864,14.952-49.664c17.096-27.6,25.744-59.376,25-91.896   C413.977,76.841,344.209,4.857,257.113,0.249c-46.672-2.496-90.944,13.816-124.704,45.848   c-33.8,32.056-52.408,75.352-52.408,121.912c0,30.728,8.456,60.832,24.448,87.064c10.176,16.672,15.552,34.72,15.552,52.176v4.344   c0,19.616-5.752,38.616-16.64,54.944c-8.496,12.736-20,23.48-33.272,31.064l-52.608,30.064l37.704,7.536   c35.936,7.184,73.024,3.216,106.408-11.096c-9.208,21.672-22.608,41.592-39.248,58.24l-13.656,13.664h35.76   c42.344,0,80.848-21.112,103.552-55.936c22.704,34.824,61.208,55.936,103.552,55.936h35.76l-13.656-13.656   c-16.648-16.648-30.04-36.568-39.248-58.24c6.936,2.976,14.048,5.512,21.304,7.592l4.416-15.376   c-12.608-3.624-24.768-8.76-36.16-15.264l-18.168-10.384l8.296,24.928c7.808,23.408,20.048,45.368,35.808,64.384   c-40.424-0.6-76.624-23.304-94.744-59.56l-7.16-14.312l-7.16,14.312c-18.128,36.256-54.328,58.96-94.744,59.56   c15.76-19.016,28-40.976,35.808-64.392l8.296-24.92l-18.168,10.384c-33.176,18.952-71.872,25.736-109.44,19.248l15.432-8.824   c15.424-8.808,28.784-21.28,38.648-36.08c12.648-18.96,19.328-41.024,19.328-63.816v-4.344c0-20.408-6.184-41.328-17.888-60.512   c-14.464-23.72-22.112-50.936-22.112-78.728c0-42.128,16.84-81.304,47.416-110.304c30.552-28.984,70.672-43.752,112.856-41.48   c78.784,4.168,141.896,69.296,143.688,148.272c0.664,29.416-7.152,58.16-22.608,83.12c-11.352,18.328-17.352,38.416-17.352,58.088   v5.888c0,22.792,6.68,44.848,19.328,63.824c9.864,14.8,23.232,27.272,38.656,36.08l15.432,8.824   c-18.592,3.208-37.424,3.2-56.048-0.032l-2.736,15.768c22.008,3.832,44.28,3.552,66.192-0.84l37.704-7.536L425.913,397.601z"/>
	<path style="fill:#333333;" d="M200.001,248.009c-13.232,0-24,10.768-24,24c0,39.704,32.304,72,72,72s72-32.296,72-72   c0-13.232-10.768-24-24-24H200.001z M304.001,272.009c0,30.872-25.12,56-56,56s-56-25.128-56-56c0-4.416,3.592-8,8-8h8v24h16v-24   h48v24h16v-24h8C300.409,264.009,304.001,267.593,304.001,272.009z"/>
	<path style="fill:#333333;" d="M350.945,155.977l2.272-3.968l-2.272-3.968c-1.4-2.456-35.08-60.032-102.944-60.032   s-101.544,57.576-102.944,60.032l-2.272,3.968l2.272,3.968c1.4,2.456,35.08,60.032,102.944,60.032S349.545,158.433,350.945,155.977   z M248.001,200.009c-48.76,0-77.968-35.864-86.464-48.016c8.456-12.168,37.504-47.984,86.464-47.984   c48.76,0,77.968,35.864,86.464,48.016C326.009,164.193,296.961,200.009,248.001,200.009z"/>
	<path style="fill:#333333;" d="M272.001,152.009c0-23.12-7.512-48-24-48s-24,24.88-24,48s7.512,48,24,48   S272.001,175.129,272.001,152.009z M248.001,183.809c-2.616-2.064-8-13.024-8-31.8s5.384-29.736,8-31.8   c2.616,2.064,8,13.024,8,31.8S250.617,181.745,248.001,183.809z"/>
</g>
<g>
</g>
<g>
</g>
<g>
</g>
<g>
</g>
<g>
</g>
<g>
</g>
<g>
</g>
<g>
</g>
<g>
</g>
<g>
</g>
<g>
</g>
<g>
</g>
<g>
</g>
<g>
</g>
<g>
</g>
</svg>
