<?xml version="1.0" encoding="iso-8859-1"?>
<!-- Generator: Adobe Illustrator 19.0.0, SVG Export Plug-In . SVG Version: 6.00 Build 0)  -->
<svg xmlns="http://www.w3.org/2000/svg" xmlns:xlink="http://www.w3.org/1999/xlink" version="1.1" id="Capa_1" x="0px" y="0px" viewBox="0 0 496 496" style="enable-background:new 0 0 496 496;" xml:space="preserve">
<g>
	<rect x="328" y="48" style="fill:#FFA64D;" width="64" height="48"/>
	<polygon style="fill:#FFA64D;" points="96,48 72,64 72,80 96,96 168,96 168,48  "/>
	<rect x="392" y="32" style="fill:#FFA64D;" width="32" height="80"/>
</g>
<g>
	<path style="fill:#333333;" d="M432,120V24h-48v16h-48c0-22.056-17.944-40-40-40h-96c-22.056,0-40,17.944-40,40H93.576L64,59.72   v24.56L93.576,104H160v24h-24.672c-22.112,0-42.92,11.784-54.304,30.744C75.12,168.584,72,179.848,72,191.328V328h16v28   c0,19.848,16.152,36,36,36c7.4,0,14.272-2.256,20-6.096V496h96h8h104V385.904c5.728,3.84,12.6,6.096,20,6.096   c19.848,0,36-16.152,36-36v-28h16V191.328c0-11.472-3.12-22.736-9.024-32.584C403.6,139.784,382.792,128,360.672,128H336v-24h48v16   H432z M400,40h16v64h-16V40z M176,40c0-13.232,10.768-24,24-24h96c13.232,0,24,10.768,24,24v96c0,39.696-32.304,72-72,72   s-72-32.304-72-72V40z M224,220.592c7.64,2.168,15.672,3.408,24,3.408s16.36-1.24,24-3.408V240c0,13.232-10.768,24-24,24   s-24-10.768-24-24V220.592z M134.56,56l-5.336,32H113.44l5.336-32H134.56z M80,75.72v-7.44L98.424,56h4.136l-5.216,31.28L80,75.72z    M145.44,88l5.336-32H160v32H145.44z M88,191.328c0-8.576,2.336-16.992,6.744-24.344C103.248,152.808,118.8,144,135.328,144h25.08   c2.784,30.704,21.4,56.848,47.592,70.288V344h-48v-8V224h-16v88H88V191.328z M124,376c-11.024,0-20-8.968-20-20v-28h40v8v20   C144,367.032,135.024,376,124,376z M160,480V360h64v-16h16v136H160z M336,480h-80V344h16v16h64V480z M392,356   c0,11.032-8.976,20-20,20s-20-8.968-20-20v-20v-8h40V356z M401.256,166.976c4.408,7.36,6.744,15.776,6.744,24.352V312h-56v-88h-16   v112v8h-48v-32h-16v16h-48v-56.208c6.704,5.08,14.96,8.208,24,8.208c9.04,0,17.296-3.128,24-8.208V296h16v-81.712   c26.2-13.44,44.808-39.584,47.592-70.288h25.08C377.2,144,392.752,152.808,401.256,166.976z M336,56h14.56l-5.336,32H336V56z    M361.44,88l5.336-32H384v32H361.44z"/>
	<rect x="216" y="144" style="fill:#333333;" width="64" height="16"/>
	<polygon style="fill:#333333;" points="208,80 224,80 224,64 240,64 240,80 256,80 256,64 272,64 272,80 288,80 288,64 304,64    304,48 288,48 288,32 272,32 272,48 256,48 256,32 240,32 240,48 224,48 224,32 208,32 208,48 192,48 192,64 208,64  "/>
	<rect x="280" y="104" style="fill:#333333;" width="16" height="16"/>
	<rect x="200" y="104" style="fill:#333333;" width="16" height="16"/>
</g>
<g>
	<rect x="288" y="312" style="fill:#FFA64D;" width="48" height="16"/>
	<rect x="288" y="280" style="fill:#FFA64D;" width="48" height="16"/>
	<rect x="160" y="312" style="fill:#FFA64D;" width="48" height="16"/>
	<rect x="160" y="280" style="fill:#FFA64D;" width="48" height="16"/>
</g>
<g>
</g>
<g>
</g>
<g>
</g>
<g>
</g>
<g>
</g>
<g>
</g>
<g>
</g>
<g>
</g>
<g>
</g>
<g>
</g>
<g>
</g>
<g>
</g>
<g>
</g>
<g>
</g>
<g>
</g>
</svg>
