<?xml version="1.0" encoding="iso-8859-1"?>
<!-- Generator: Adobe Illustrator 19.0.0, SVG Export Plug-In . SVG Version: 6.00 Build 0)  -->
<svg xmlns="http://www.w3.org/2000/svg" xmlns:xlink="http://www.w3.org/1999/xlink" version="1.1" id="Capa_1" x="0px" y="0px" viewBox="0 0 496 496" style="enable-background:new 0 0 496 496;" xml:space="preserve">
<path style="fill:#FFA64D;" d="M357.864,321.688C339.04,331.104,318.28,336,297.24,336s-41.8-4.896-60.624-14.312L217.24,312h-8  v22.464c0,18.488-15.048,33.536-33.536,33.536c-17.416,0-32.104-13.6-33.432-30.896l-4.256-62.088  C137.28,264.352,128.344,256,117.656,256c-11.256,0-20.416,9.16-20.416,20.416V352c0,79.4,64.6,144,144,144s144-64.6,144-144v-40h-8  L357.864,321.688z"/>
<g>
	<rect x="329.24" y="104" style="fill:#333333;" width="16" height="16"/>
	<rect x="249.24" y="104" style="fill:#333333;" width="16" height="16"/>
	<rect x="273.24" y="168" style="fill:#333333;" width="48" height="16"/>
	<path style="fill:#333333;" d="M464.272,275.712l-74.064-74.056c0.384-0.912,0.84-1.776,1.152-2.728   c1.248-3.752,1.88-7.648,1.88-11.576v-39.8c9.52-5.552,16-15.76,16-27.552V88c0-48.52-39.48-88-88-88h-48c-48.52,0-88,39.48-88,88   v32c0,11.792,6.48,22,16,27.552v14.496l-46.672,14c-16.016,4.808-30.328,14.112-41.208,26.648   c-10.432-12.816-23.504-23.336-38.336-30.744L22.76,145.824l7.28,43.608c7.4,44.472,31.28,83.448,67.2,110.432V279.44   c-27.296-23.968-45.368-56.32-51.424-92.632l-2.096-12.632l24.152,12.08c15.632,7.816,29.024,19.64,38.72,34.176l6.648,9.992   l6.656-9.984c9.288-13.928,23.232-24.248,39.264-29.064l38.568-11.568l-2.104,7.696c-9.656,35.408-29.8,67.184-57.368,91.128   l1.328,19.424c10.888-8.392,20.736-17.952,29.648-28.288V324c0,15.44,12.56,28,28,28c15.128,0,27.424-12.088,27.912-27.104   l7.888,3.944c19.84,9.92,42.04,15.16,64.208,15.16s44.368-5.24,64.2-15.16l23.8-11.896v-33.632l35.72,35.712   c5.784,5.792,13.464,8.976,21.656,8.976c16.88,0,30.624-13.736,30.624-30.632C473.24,289.192,470.056,281.504,464.272,275.712z    M269.624,240h-1.072c-5.16,0-10.008-2.008-13.656-5.664c-3.648-3.64-5.656-8.488-5.656-13.648v-19.024   c5.04,3.296,10.44,6.056,16.12,8.272C265.52,220.088,266.992,230.184,269.624,240z M218.304,193.888   c-0.704-2.12-1.064-4.32-1.064-6.536v-18.288l0.808-2.952c3.936,8.144,9.064,15.584,15.192,22.096v19.2   C226.344,205.816,220.608,200.808,218.304,193.888z M297.24,200c-16.408,0-31.504-5.576-43.624-14.856L270.184,152h54.112   l16.568,33.144C328.744,194.424,313.648,200,297.24,200z M352.952,173.536l-14.344-28.688c-2.72-5.456-8.2-8.848-14.312-8.848   h-54.112c-6.112,0-11.592,3.392-14.312,8.84l-14.344,28.696C231.36,161.12,225.24,145.264,225.24,128V88h14.056   c21.448,0,41.752-7.456,57.944-21.144C313.432,80.544,333.736,88,355.184,88h14.056v40   C369.24,145.264,363.12,161.12,352.952,173.536z M297.24,216c5.336,0,10.536-0.552,15.608-1.472   c-0.912,14.816-4.72,29.456-11.512,42.656c-1.408,2.736-6.792,2.728-8.176,0.008c-6.8-13.208-10.608-27.848-11.52-42.664   C286.704,215.448,291.904,216,297.24,216z M329.12,209.928c5.68-2.216,11.08-4.976,16.12-8.272v19.024   c0,5.16-2.008,10.008-5.656,13.656c-3.648,3.656-8.504,5.664-13.656,5.664h-1.072C327.488,230.184,328.96,220.088,329.12,209.928z    M361.24,188.208c6.552-6.96,11.976-14.968,16-23.768v22.904c0,2.216-0.36,4.416-1.056,6.528   c-2.312,6.928-8.048,11.936-14.944,13.528V188.208z M384.936,133.936c0.136-1.968,0.304-3.936,0.304-5.936v-21.776   c4.76,2.776,8,7.88,8,13.776C393.24,126.016,389.864,131.208,384.936,133.936z M273.24,16h48c39.704,0,72,32.304,72,72v4.448   c-2.48-1.448-5.152-2.576-8-3.312V72h-30.056c-19.752,0-38.32-7.688-52.288-21.656l-5.656-5.656l-5.656,5.656   C277.616,64.312,259.048,72,239.296,72H209.24v17.136c-2.848,0.744-5.52,1.864-8,3.312V88C201.24,48.304,233.536,16,273.24,16z    M209.24,106.224V128c0,2,0.168,3.968,0.304,5.936c-4.928-2.728-8.304-7.92-8.304-13.936C201.24,114.104,204.48,109,209.24,106.224   z M442.616,312c-3.848,0-7.616-1.56-10.344-4.288l-63.032-63.024v62.368l-14.952,7.48c-35.248,17.624-78.84,17.624-114.096,0   l-14.952-7.48V304v-64h-16v64v12.944V324c0,6.616-5.384,12-12,12s-12-5.384-12-12v-75.304c8.72-13.28,15.896-27.56,21.264-42.616   c5.776,9.696,15.688,16.224,27.024,17.576c0.696,8.304,4.096,16.048,10.056,22.008C250.256,252.328,259.12,256,268.552,256h6.616   c1.208,2.864,2.336,5.76,3.752,8.52c3.48,6.736,10.496,10.92,18.312,10.92s14.832-4.184,18.32-10.928   c1.416-2.76,2.544-5.656,3.752-8.512h6.616c9.432,0,18.296-3.672,24.968-10.336c5.96-5.96,9.36-13.704,10.056-22.008   c7.472-0.896,14.304-4.032,19.784-8.848l72.224,72.216c2.768,2.768,4.288,6.44,4.288,10.344C457.24,305.44,450.68,312,442.616,312z   "/>
	<rect x="241.24" y="272" style="fill:#333333;" width="16" height="16"/>
	<rect x="337.24" y="272" style="fill:#333333;" width="16" height="16"/>
	<path style="fill:#333333;" d="M271.408,381.104l-12.328-10.2c-5.456,6.576-14.216,6.576-19.672,0l-12.328,10.2   c5.816,7.024,13.688,10.896,22.16,10.896C257.712,392,265.584,388.128,271.408,381.104z"/>
	<path style="fill:#333333;" d="M327.408,370.896l-12.328,10.2c5.816,7.032,13.688,10.904,22.16,10.904s16.344-3.872,22.168-10.896   l-12.328-10.2C341.624,377.48,332.856,377.48,327.408,370.896z"/>
	<path style="fill:#333333;" d="M279.408,410.896l-12.328,10.2c5.816,7.032,13.688,10.904,22.16,10.904s16.344-3.872,22.168-10.896   l-12.328-10.2C293.624,417.48,284.856,417.48,279.408,410.896z"/>
	<path style="fill:#333333;" d="M175.408,402.896l-12.328,10.2c5.816,7.032,13.688,10.904,22.16,10.904s16.344-3.872,22.168-10.896   l-12.328-10.2C189.624,409.48,180.856,409.48,175.408,402.896z"/>
	<path style="fill:#333333;" d="M223.408,442.896l-12.328,10.2c5.816,7.032,13.688,10.904,22.16,10.904s16.344-3.872,22.168-10.896   l-12.328-10.2C237.624,449.48,228.856,449.48,223.408,442.896z"/>
</g>
<g>
</g>
<g>
</g>
<g>
</g>
<g>
</g>
<g>
</g>
<g>
</g>
<g>
</g>
<g>
</g>
<g>
</g>
<g>
</g>
<g>
</g>
<g>
</g>
<g>
</g>
<g>
</g>
<g>
</g>
</svg>
