<?xml version="1.0" encoding="iso-8859-1"?>
<!-- Generator: Adobe Illustrator 19.0.0, SVG Export Plug-In . SVG Version: 6.00 Build 0)  -->
<svg xmlns="http://www.w3.org/2000/svg" xmlns:xlink="http://www.w3.org/1999/xlink" version="1.1" id="Capa_1" x="0px" y="0px" viewBox="0 0 496 496" style="enable-background:new 0 0 496 496;" xml:space="preserve">
<g>
	
		<rect x="86.136" y="256.005" transform="matrix(-0.4009 0.9161 -0.9161 -0.4009 460.388 226.9399)" style="fill:#333333;" width="139.709" height="16"/>
	
		<rect x="332.013" y="194.172" transform="matrix(-0.9162 0.4008 -0.4008 -0.9162 757.3444 369.6548)" style="fill:#333333;" width="16.001" height="139.716"/>
	<path style="fill:#333333;" d="M459.2,263.48L256,29.016V0h-16v29.016L36.808,263.472C33.704,267.048,32,271.616,32,276.344   C32,287.184,40.816,296,51.656,296c25.736,0,49.72,11.528,65.808,31.624l9.296,11.624l21.256-17.008   C162.712,310.48,181.176,304,200,304v-16c-22.44,0-44.456,7.72-61.992,21.744l-8.768,7.016C110.12,293.384,81.904,280,51.656,280   C49.64,280,48,278.36,48,276.344c0-0.88,0.32-1.728,0.896-2.392L227.928,67.376L197.28,140.92l14.768,6.16L248,60.8l35.96,86.312   l14.768-6.16l-30.656-73.576l179.04,206.584c0.568,0.656,0.888,1.512,0.888,2.384c0,2.016-1.64,3.656-3.656,3.656   c-30.248,0-58.464,13.384-77.592,36.76l-8.776-7.016C340.456,295.72,318.44,288,296,288v16c18.824,0,37.288,6.48,51.992,18.232   l21.264,17.008l9.296-11.624C394.624,307.528,418.608,296,444.344,296c10.84,0,19.656-8.816,19.656-19.656   C464,271.616,462.296,267.048,459.2,263.48z"/>
	<path style="fill:#333333;" d="M280,496c-30.88,0-56-25.12-56-56v-56h16v56c0,22.056,17.944,40,40,40s40-17.944,40-40v-8   c0-4.408-3.592-8-8-8s-8,3.592-8,8v8c0,13.232-10.768,24-24,24s-24-10.768-24-24v-56h16v56c0,4.408,3.592,8,8,8s8-3.592,8-8v-8   c0-13.232,10.768-24,24-24s24,10.768,24,24v8C336,470.88,310.88,496,280,496z"/>
</g>
<path style="fill:#FFA64D;" d="M248,400c-30.872,0-56-25.128-56-56V240h112v104C304,374.872,278.872,400,248,400z"/>
<rect x="240" y="304" style="fill:#333333;" width="16" height="88"/>
<g>
	<path style="fill:#FFA64D;" d="M296,216c-22.056,0-40-17.944-40-40s17.944-40,40-40s40,17.944,40,40S318.056,216,296,216z"/>
	<path style="fill:#FFA64D;" d="M200,216c-22.056,0-40-17.944-40-40s17.944-40,40-40s40,17.944,40,40S222.056,216,200,216z"/>
</g>
<g>
	<rect x="288" y="168" style="fill:#333333;" width="16" height="16"/>
	<rect x="192" y="168" style="fill:#333333;" width="16" height="16"/>
	<rect x="240" y="272" style="fill:#333333;" width="16" height="16"/>
</g>
<g>
</g>
<g>
</g>
<g>
</g>
<g>
</g>
<g>
</g>
<g>
</g>
<g>
</g>
<g>
</g>
<g>
</g>
<g>
</g>
<g>
</g>
<g>
</g>
<g>
</g>
<g>
</g>
<g>
</g>
</svg>
