<?xml version="1.0" encoding="iso-8859-1"?>
<!-- Generator: Adobe Illustrator 19.0.0, SVG Export Plug-In . SVG Version: 6.00 Build 0)  -->
<svg xmlns="http://www.w3.org/2000/svg" xmlns:xlink="http://www.w3.org/1999/xlink" version="1.1" id="Capa_1" x="0px" y="0px" viewBox="0 0 496 496" style="enable-background:new 0 0 496 496;" xml:space="preserve">
<path style="fill:#FFA64D;" d="M248,8C159.632,8,88,79.632,88,168v184l16-16l16,16l16-16l16,16v136h72l16-128h16l16,128h72V352  l16-16l16,16l16-16l16,16V168C408,79.632,336.368,8,248,8z"/>
<g>
	<path style="fill:#333333;" d="M248,0C155.36,0,80,75.36,80,168v203.312l24-24l16,16l16-16l8,8V496h87.064l16-128h1.872l16,128H352   V355.312l8-8l16,16l16-16l24,24V168C416,75.36,340.64,0,248,0z M400,332.688l-8-8l-16,16l-16-16l-8,8V160h-16v320h-56.936l-16-128   h-30.128l-16,128H160V160h-16v172.688l-8-8l-16,16l-16-16l-8,8V168c0-83.816,68.184-152,152-152s152,68.184,152,152V332.688z"/>
	<path style="fill:#333333;" d="M312,96c0-13.232-10.768-24-24-24s-24,10.768-24,24s10.768,24,24,24S312,109.232,312,96z M280,96   c0-4.408,3.592-8,8-8s8,3.592,8,8s-3.592,8-8,8S280,100.408,280,96z"/>
	<path style="fill:#333333;" d="M208,72c-13.232,0-24,10.768-24,24s10.768,24,24,24s24-10.768,24-24S221.232,72,208,72z M208,104   c-4.408,0-8-3.592-8-8s3.592-8,8-8s8,3.592,8,8S212.408,104,208,104z"/>
	<rect x="176" y="176" style="fill:#333333;" width="16" height="16"/>
	<rect x="288" y="168" style="fill:#333333;" width="16" height="16"/>
	<rect x="256" y="200" style="fill:#333333;" width="16" height="16"/>
	<rect x="192" y="240" style="fill:#333333;" width="16" height="16"/>
	<rect x="112" y="200" style="fill:#333333;" width="16" height="16"/>
	<rect x="112" y="280" style="fill:#333333;" width="16" height="16"/>
	<rect x="368" y="216" style="fill:#333333;" width="16" height="16"/>
	<rect x="368" y="264" style="fill:#333333;" width="16" height="16"/>
	<rect x="296" y="240" style="fill:#333333;" width="16" height="16"/>
	<rect x="184" y="312" style="fill:#333333;" width="16" height="16"/>
	<rect x="304" y="296" style="fill:#333333;" width="16" height="16"/>
	<rect x="200" y="368" style="fill:#333333;" width="16" height="16"/>
	<rect x="280" y="344" style="fill:#333333;" width="16" height="16"/>
	<rect x="288" y="432" style="fill:#333333;" width="16" height="16"/>
	<rect x="176" y="448" style="fill:#333333;" width="16" height="16"/>
	<rect x="240" y="264" style="fill:#333333;" width="16" height="16"/>
</g>
<g>
</g>
<g>
</g>
<g>
</g>
<g>
</g>
<g>
</g>
<g>
</g>
<g>
</g>
<g>
</g>
<g>
</g>
<g>
</g>
<g>
</g>
<g>
</g>
<g>
</g>
<g>
</g>
<g>
</g>
</svg>
