<?xml version="1.0" encoding="iso-8859-1"?>
<!-- Generator: Adobe Illustrator 19.0.0, SVG Export Plug-In . SVG Version: 6.00 Build 0)  -->
<svg xmlns="http://www.w3.org/2000/svg" xmlns:xlink="http://www.w3.org/1999/xlink" version="1.1" id="Capa_1" x="0px" y="0px" viewBox="0 0 496 496" style="enable-background:new 0 0 496 496;" xml:space="preserve">
<g>
	<path style="fill:#333333;" d="M384.004,192c0-17.648-14.352-32-32-32v-32c0-38.384-19.328-73.672-51.696-94.392l-8.624,13.472   c27.752,17.76,44.32,48.016,44.32,80.92v48h16c8.824,0,16,7.176,16,16s-7.176,16-16,16h-58.848   c16.352-13.208,26.848-33.392,26.848-56v-32c0-8.824-7.176-16-16-16h-28.688l-27.312-27.312L220.692,104h-28.688   c-8.824,0-16,7.176-16,16v32c0,22.608,10.496,42.792,26.848,56h-58.856c-8.824,0-16-7.176-16-16s7.176-16,16-16h16v-48   c0-32.912,16.568-63.16,44.32-80.92l-8.624-13.48c-32.368,20.712-51.696,56-51.696,94.392v32c-17.648,0-32,14.352-32,32   c0,15.456,11.008,28.384,25.6,31.352c-6.232,9.792-9.592,21.024-9.592,32.656c0,12.056,3.528,23.728,10.216,33.752l5.784,8.672V348   c0,15.44,12.56,28,28,28c4.312,0,8.352-1.064,12-2.808V392h8v104h48h16h48V392h8v-18.808c3.648,1.744,7.688,2.808,12,2.808   c15.44,0,28-12.56,28-28v-49.576l5.784-8.672c6.688-10.024,10.216-21.696,10.216-33.752c0-11.632-3.36-22.864-9.592-32.648   C372.996,220.376,384.004,207.448,384.004,192z M192.004,152v-32h35.312l20.688-20.688L268.692,120h35.312v32   c0,30.88-25.128,56-56,56S192.004,182.88,192.004,152z M271.604,219.944c-1.896,11.352-11.72,20.056-23.6,20.056   s-21.704-8.704-23.6-20.056c7.408,2.584,15.328,4.056,23.6,4.056S264.196,222.528,271.604,219.944z M172.004,360   c-6.616,0-12-5.384-12-12v-44h24v40v4C184.004,354.616,178.62,360,172.004,360z M200.004,352h96v24h-40h-16h-40V352z M296.004,336   h-96v-16h96V336z M240.004,480h-32v-88h32V480z M288.004,480h-32v-88h32V480z M324.004,360c-6.616,0-12-5.384-12-12v-4v-40h24v44   C336.004,354.616,330.62,360,324.004,360z M344.476,280.872L339.724,288h-27.72v-16h-16v32h-96v-32h-16v16h-27.72l-4.752-7.128   c-4.928-7.384-7.528-15.984-7.528-24.872s2.6-17.488,7.528-24.872l4.752-7.128h52.528c3.72,18.232,19.872,32,39.192,32   s35.472-13.768,39.192-32h52.528l4.752,7.128c4.928,7.384,7.528,15.984,7.528,24.872S349.404,273.488,344.476,280.872z"/>
	<rect x="296.004" y="240" style="fill:#333333;" width="16" height="16"/>
	<rect x="184.004" y="240" style="fill:#333333;" width="16" height="16"/>
	<rect x="272.004" y="136" style="fill:#333333;" width="16" height="16"/>
	<rect x="208.004" y="136" style="fill:#333333;" width="16" height="16"/>
	<rect x="240.004" y="176" style="fill:#333333;" width="16" height="16"/>
</g>
<g>
	<polygon style="fill:#FFA64D;" points="192.004,64 304.004,64 304.004,0 272.004,24 248.004,0 224.004,24 192.004,0  "/>
	<rect x="232.004" y="304" style="fill:#FFA64D;" width="32" height="48"/>
</g>
<g>
</g>
<g>
</g>
<g>
</g>
<g>
</g>
<g>
</g>
<g>
</g>
<g>
</g>
<g>
</g>
<g>
</g>
<g>
</g>
<g>
</g>
<g>
</g>
<g>
</g>
<g>
</g>
<g>
</g>
</svg>
