<?xml version="1.0" encoding="iso-8859-1"?>
<!-- Generator: Adobe Illustrator 19.0.0, SVG Export Plug-In . SVG Version: 6.00 Build 0)  -->
<svg xmlns="http://www.w3.org/2000/svg" xmlns:xlink="http://www.w3.org/1999/xlink" version="1.1" id="Capa_1" x="0px" y="0px" viewBox="0 0 496 496" style="enable-background:new 0 0 496 496;" xml:space="preserve">
<path style="fill:#FFA64D;" d="M118.248,120v-14.056c0-21.736,8.632-42.576,24-57.944l0,0l0,0c0,14.992,7.496,28.992,19.968,37.312  L166.248,88l0,0c0-20.488,8.136-40.136,22.624-54.624L190.248,32l0,0c0,10.248,4.072,20.072,11.312,27.312L206.248,64l1.248-2.496  c9.52-19.04,11.912-40.856,6.752-61.504l0,0l0,0c20.768,10.384,37.616,27.232,48,48l0,0l24-24l2.688,4.032  c8.68,13.016,13.312,28.32,13.312,43.968l0,0l7.032-7.032C320.144,54.104,334.88,48,350.248,48l0,0l-3.712,11.144  c-2.624,7.88-0.576,16.56,5.296,22.432l0,0c4.104,4.112,6.416,9.688,6.416,15.504V120l-48,24l-32-24l-40,24l-40-24l-32,24  L118.248,120z"/>
<g>
	<path style="fill:#333333;" d="M454.248,336c0-14.864-10.232-27.288-24-30.864v-49.344c9.656-7.312,16-18.784,16-31.792   c0-22.056-17.944-40-40-40s-40,17.944-40,40c0,13.016,6.344,24.488,16,31.792v28.832c-26.832-10.232-51.6-24.712-73.752-43.16   l-4.616-3.848c9.032-12.952,14.368-28.664,14.368-45.616h9.304c16.776,0,32.536-6.528,44.4-18.384   c6.048-6.04,10.728-13.136,13.904-21.088L402.064,112h-19.816c-25.48,0-50.712,7.888-71.792,22.16l-31.712-23.784l-40.496,24.296   l-40.496-24.304l-31.712,23.784C144.96,119.888,119.728,112,94.248,112H74.432l16.2,40.528c3.176,7.944,7.856,15.04,13.904,21.08   C116.408,185.472,132.168,192,148.944,192h9.304c0,16.144,4.848,31.16,13.104,43.744l-19.016,7.608   c-9.968,3.984-18.528,10.712-24.768,19.448c-20.736,29.016-45.128,55.296-72.496,78.112L41.752,352l18.496,15.416   c21.528,17.936,47.976,28.92,75.672,31.776c-5.096,15.232-11.456,30.048-19.168,44.184L98.44,476.944l9.616,2.744   C110.384,480.36,165.96,496,238.248,496s127.864-15.64,130.192-16.312l9.616-2.744l-18.312-33.568   c-17.552-32.168-28.48-67.712-32.136-104.112c15.216,19.304,33.88,35.928,54.632,49.016V472c0,13.232,10.768,24,24,24   s24-10.768,24-24V366.864C444.016,363.288,454.248,350.864,454.248,336z M406.248,200c13.232,0,24,10.768,24,24s-10.768,24-24,24   s-24-10.768-24-24S393.016,200,406.248,200z M371,146.584c-2.368,5.92-5.848,11.208-10.36,15.712   C351.8,171.136,340.056,176,327.552,176h-9.304v-27.816c17.632-12.264,38.696-19.368,60.16-20.12L371,146.584z M174.248,148   l24.496-18.368l39.504,23.696l39.504-23.696L302.248,148v44c0,35.288-28.712,64-64,64s-64-28.712-64-64V148z M238.248,288   c-11.712,0-21.456-8.44-23.552-19.544c7.448,2.296,15.36,3.544,23.552,3.544c8.192,0,16.104-1.248,23.552-3.544   C259.704,279.56,249.96,288,238.248,288z M148.944,176c-12.496,0-24.248-4.864-33.088-13.704   c-4.504-4.496-7.992-9.784-10.36-15.704l-7.408-18.52c21.464,0.752,42.52,7.856,60.16,20.12V176H148.944z M331.032,316.752   l-20.784-31.176V312c0,48.448,12.256,96.52,35.456,139.04l8.576,15.72c-17.952,4.192-58.872,12.336-108.032,13.16V336h-16v143.92   c-49.16-0.824-90.08-8.968-108.032-13.16l8.576-15.72c23.2-42.52,35.456-90.592,35.456-139.04h-16   c0,24.208-3.328,48.288-9.624,71.576c-25.656-2-50.256-11.896-70.136-28.456L66.744,352c27.848-23.408,52.688-50.288,73.84-79.904   c4.464-6.24,10.576-11.04,17.688-13.888l23.656-9.464c4.856,4.824,10.36,8.976,16.32,12.432V264c0,19.312,13.768,35.472,32,39.192   V320h16v-16.808c18.232-3.72,32-19.872,32-39.192v-2.824c5.52-3.208,10.624-7.04,15.208-11.424l4.8,4   c25.072,20.888,53.328,36.928,83.992,47.872v67.544C362.184,355.016,344.632,337.144,331.032,316.752z M406.248,480   c-4.416,0-8-3.592-8-8V263.192c2.584,0.528,5.264,0.808,8,0.808s5.416-0.28,8-0.808V472C414.248,476.408,410.664,480,406.248,480z    M430.248,349.776v-27.544c4.76,2.776,8,7.88,8,13.776S435.008,347,430.248,349.776z"/>
	<rect x="190.248" y="160" style="fill:#333333;" width="16" height="16"/>
	<rect x="270.248" y="160" style="fill:#333333;" width="16" height="16"/>
	<path style="fill:#333333;" d="M198.248,212.016V232h16v-11.44c6.32,2.04,14.168,3.44,24,3.44s17.68-1.4,24-3.44V232h16v-19.984   c4.696-3.96,6.728-7.576,7.16-8.44l-14.208-7.344c-0.288,0.48-7.04,11.768-32.952,11.768s-32.664-11.288-32.944-11.768   l-14.208,7.344C191.52,204.44,193.552,208.064,198.248,212.016z"/>
</g>
<g>
</g>
<g>
</g>
<g>
</g>
<g>
</g>
<g>
</g>
<g>
</g>
<g>
</g>
<g>
</g>
<g>
</g>
<g>
</g>
<g>
</g>
<g>
</g>
<g>
</g>
<g>
</g>
<g>
</g>
</svg>
