<?xml version="1.0" encoding="iso-8859-1"?>
<!-- Generator: Adobe Illustrator 19.0.0, SVG Export Plug-In . SVG Version: 6.00 Build 0)  -->
<svg xmlns="http://www.w3.org/2000/svg" xmlns:xlink="http://www.w3.org/1999/xlink" version="1.1" id="Capa_1" x="0px" y="0px" viewBox="0 0 496 496" style="enable-background:new 0 0 496 496;" xml:space="preserve">
<g>
	<rect x="280" y="152" style="fill:#333333;" width="16" height="16"/>
	<rect x="200" y="152" style="fill:#333333;" width="16" height="16"/>
	<path style="fill:#333333;" d="M208,188c0,19.848,16.152,36,36,36s36-16.152,36-36v-4h-16v4c0,11.032-8.968,20-20,20   s-20-8.968-20-20v-4h-16V188z"/>
	<path style="fill:#333333;" d="M470.032,184c-12.968,0-25.696-3.52-36.808-10.192l-10.128-6.072   c-8.432-5.064-18.088-7.736-27.92-7.736c-14.504,0-28.144,5.648-38.4,15.904l-15.728,15.728   c-2.672-7.288-7.08-13.888-13.056-19.232V120c17.648,0,32-14.352,32-32c0-11.552-6.296-22.072-16.144-27.696   C341.968,35.56,321.224,16,296,16c-3.712,0-7.44,0.464-11.144,1.384C275.784,6.4,262.408,0,248,0s-27.784,6.4-36.856,17.384   C207.44,16.464,203.712,16,200,16c-25.224,0-45.968,19.56-47.856,44.304C142.296,65.928,136,76.448,136,88   c0,17.648,14.352,32,32,32v52.408c-5.976,5.344-10.384,11.944-13.056,19.232l-15.728-15.728   C128.96,165.648,115.328,160,100.824,160c-9.832,0-19.488,2.672-27.928,7.736l-10.12,6.072C51.664,180.48,38.936,184,25.968,184   C11.648,184,0,195.648,0,209.968c0,11.936,8.088,22.304,19.672,25.2c4.072,1.016,8.192,1.816,12.328,2.512v7.008   c0,9.432,3.672,18.296,10.344,24.968S57.88,280,67.312,280h5.496c2.664,13.088,11.744,23.856,23.8,28.904l-18.8,37.592   l-32.152-32.152l-11.312,11.312l35.92,35.92l-3.376,6.752C65,372.12,64,376.36,64,380.584C64,395.704,76.296,408,91.416,408h1.592   c6.368,0,12.456-2.296,17.352-6.328l17.64,17.64V440h16v-16h16v-16h-20.688L119.8,388.488l40.2-76.176V344v8v40h16v104h64v-64h-16   v48h-32v-88h16v-16h-32v-24h144v24h-32v16h16v88h-32v-48h-16v64h64V392h16v-40v-8v-31.696l43.488,82.384   c4.92,8.208,13.928,13.312,23.504,13.312h1.592c15.12,0,27.416-12.296,27.416-27.416c0-4.224-1-8.472-2.888-12.264L399.4,308.904   c12.048-5.048,21.128-15.816,23.792-28.904h5.496c9.432,0,18.296-3.672,24.968-10.344S464,254.12,464,244.688v-7.008   c4.136-0.696,8.256-1.496,12.328-2.512c11.584-2.896,19.672-13.264,19.672-25.2C496,195.648,484.352,184,470.032,184z M152,88   c0-6.744,4.328-12.784,10.776-15.024l5.552-1.936l-0.192-5.872C168.12,64.64,168.064,64.136,168,64   c0-21.384,21.536-38.136,43.376-29.808l6.128,2.344L221.008,31c5.92-9.392,16.016-15,26.992-15c10.976,0,21.072,5.608,27,15   l3.504,5.536l6.128-2.344c21.832-8.328,43.376,8.496,43.384,29.44l-0.344,7.408l5.552,1.936C339.672,75.216,344,81.256,344,88   c0,8.824-7.176,16-16,16c-1.992,0-3.992-0.4-5.936-1.176l-8.352-3.36l-2.352,8.688C309.472,115.128,303.152,120,296,120   c-3.88,0-7.656-1.488-10.648-4.168L280,111.008l-5.352,4.824c-5.984,5.376-15.312,5.376-21.296,0L248,111.008l-5.352,4.824   c-5.984,5.376-15.312,5.376-21.296,0L216,111.008l-5.352,4.824C207.656,118.512,203.88,120,200,120   c-7.152,0-13.472-4.872-15.36-11.848l-2.352-8.688l-8.352,3.36C171.992,103.6,169.992,104,168,104C159.176,104,152,96.824,152,88z    M180.824,182.56l3.176-2.4v-48.52c4.752,2.784,10.24,4.36,16,4.36c5.64,0,11.152-1.52,16-4.368c9.704,5.688,22.296,5.688,32,0   c9.704,5.688,22.296,5.688,32,0c4.848,2.848,10.36,4.368,16,4.368c5.76,0,11.248-1.576,16-4.352v48.52l3.176,2.4   C323.328,188.72,328,197.992,328,208c0,17.648-14.352,32-32,32h-96c-17.648,0-32-14.352-32-32   C168,197.992,172.672,188.72,180.824,182.56z M89.472,280H104v-16H67.312c-5.16,0-10.008-2.008-13.656-5.656S48,249.84,48,244.688   V239.6c3.648,0.248,7.296,0.4,10.952,0.4H80v-16H58.952c-11.904,0-23.824-1.472-35.408-4.352c-4.44-1.12-7.544-5.096-7.544-9.68   c0-5.496,4.472-9.968,9.968-9.968c15.872,0,31.448-4.312,45.04-12.48l10.112-6.072C87.08,177.88,93.888,176,100.824,176   c10.232,0,19.848,3.984,27.088,11.216l24.272,24.272c0.44,6.12,2.04,11.912,4.576,17.192l-26.712,13.36l-26.216,52.432   C97.128,292.024,91.872,286.72,89.472,280z M93.008,392h-1.592C85.12,392,80,386.88,80,380.584c0-1.768,0.416-3.528,1.2-5.112   l0.984-1.976l16.76,16.76C97.176,391.352,95.136,392,93.008,392z M416,380.584c0,6.296-5.12,11.416-11.416,11.416h-1.592   c-3.984,0-7.736-2.128-9.568-5.168L336,278.016V272h-16v64H176v-64h-16v6.016l-52.032,98.64l-18.24-18.24L141.96,253.96   l24.104-12.048C174.752,250.608,186.76,256,200,256h96c13.24,0,25.248-5.392,33.936-14.088l24.104,12.048l60.76,121.504   C415.584,377.056,416,378.824,416,380.584z M472.456,219.64c-11.592,2.888-23.504,4.36-35.408,4.36H416v16h21.048   c3.656,0,7.304-0.152,10.952-0.4v5.088c0,5.16-2.008,10.008-5.656,13.656S433.84,264,428.688,264H392v16h14.528   c-2.392,6.72-7.648,12.024-14.344,14.472l-26.216-52.432l-26.712-13.36c2.536-5.28,4.128-11.072,4.576-17.192l24.272-24.272   c7.224-7.232,16.84-11.216,27.072-11.216c6.928,0,13.744,1.88,19.696,5.456l10.12,6.072c13.592,8.168,29.168,12.48,45.04,12.48   c5.496-0.008,9.968,4.464,9.968,9.96C480,214.552,476.896,218.528,472.456,219.64z"/>
	<rect x="272" y="272" style="fill:#333333;" width="16" height="16"/>
	<rect x="208" y="272" style="fill:#333333;" width="16" height="16"/>
</g>
<g>
	<path style="fill:#FFA64D;" d="M24,352c-13.232,0-24-10.768-24-24v-48h48c13.232,0,24,10.768,24,24s-10.768,24-24,24   C48,341.232,37.232,352,24,352z"/>
	<path style="fill:#FFA64D;" d="M288,432h-80v-80h80V432z"/>
</g>
<g>
</g>
<g>
</g>
<g>
</g>
<g>
</g>
<g>
</g>
<g>
</g>
<g>
</g>
<g>
</g>
<g>
</g>
<g>
</g>
<g>
</g>
<g>
</g>
<g>
</g>
<g>
</g>
<g>
</g>
</svg>
