<?xml version="1.0" encoding="iso-8859-1"?>
<!-- Generator: Adobe Illustrator 19.0.0, SVG Export Plug-In . SVG Version: 6.00 Build 0)  -->
<svg xmlns="http://www.w3.org/2000/svg" xmlns:xlink="http://www.w3.org/1999/xlink" version="1.1" id="Capa_1" x="0px" y="0px" viewBox="0 0 496 496" style="enable-background:new 0 0 496 496;" xml:space="preserve">
<g>
	<path style="fill:#FFA64D;" d="M176,9.544C176,4.272,171.728,0,166.456,0c-3.896,0-7.408,2.376-8.856,6   c-8.408,21.016-4.864,44.928,9.28,62.6L176,80l9.424,10.136L216,64l-22.464-17.968C182.456,37.16,176,23.736,176,9.544z"/>
	<path style="fill:#FFA64D;" d="M339.504,6c-1.448-3.624-4.96-6-8.856-6c-5.272,0-9.544,4.272-9.544,9.544   c0,14.192-6.456,27.624-17.536,36.488L281.104,64L312,88.968L321.104,80l9.12-11.4C344.368,50.92,347.912,27.008,339.504,6z"/>
	<path style="fill:#FFA64D;" d="M480,144c-26.176,0-51.856,7.112-74.296,20.576c-29.96,17.976-54.808,43.352-72.144,73.696L328,248   l0.376,1.192c7.36,1.728,14.192,5.376,19.624,10.808c7.68,7.68,12,18.104,12,28.968v61.424v0.008l6.392-7.672   C382.616,323.256,406.656,312,432,312c0-30.336,13.792-59.032,37.48-77.984L472,232c-14.656-24.424-13.928-55.112,1.872-78.816   L480,144z"/>
	<path style="fill:#FFA64D;" d="M136,288.968c0-10.864,4.32-21.288,12-28.968c5.432-5.432,12.264-9.08,19.624-10.808L168,248   l-5.56-9.728c-17.336-30.336-42.176-55.712-72.144-73.696C67.856,151.112,42.176,144,16,144l6.128,9.184   C37.928,176.888,38.656,207.576,24,232l2.52,2.016C50.208,252.968,64,281.664,64,312c25.344,0,49.384,11.256,65.608,30.728   L136,350.4v-0.008V288.968z"/>
</g>
<g>
	
		<rect x="276.686" y="143.994" transform="matrix(-0.7071 0.7071 -0.7071 -0.7071 599.1189 55.8257)" style="fill:#333333;" width="22.624" height="16"/>
	
		<rect x="199.998" y="140.691" transform="matrix(-0.7071 0.7071 -0.7071 -0.7071 462.556 112.4078)" style="fill:#333333;" width="16" height="22.624"/>
	<path style="fill:#333333;" d="M248,208c5.816,0,11.112-0.92,16-2.208V216h16v-16.552c8.32-4.6,13.272-9.408,13.656-9.792   l-11.312-11.312C282.208,178.48,268.448,192,248,192c-20.208,0-34.224-13.544-34.368-13.68l-11.288,11.336   c0.384,0.384,5.336,5.192,13.656,9.792V216h16v-10.208C236.888,207.08,242.184,208,248,208z"/>
	<path style="fill:#333333;" d="M480.528,157.624L494.952,136H480c-27.608,0-54.728,7.504-78.416,21.72   c-31.064,18.64-56.992,45.128-74.968,76.584l-3.376,5.904c-1.392-0.12-2.792-0.208-4.208-0.208H296v-4.992   c28.648-16.632,48-47.568,48-83.008c0-4.168-0.36-8.24-0.872-12.264l2.216-3.328C352.192,126.136,363.656,120,376,120h8v-8   c0-14.472,3.416-28.952,9.888-41.888l12.296-24.592l-18.856,3.16c-27.216,4.536-52.2,16.296-72.896,34.184   C297.168,66.264,273.776,56,248,56s-49.168,10.264-66.432,26.856c-20.696-17.888-45.68-29.648-72.888-34.184l-18.864-3.16   l12.296,24.592C108.584,83.048,112,97.528,112,112v8h8c12.344,0,23.808,6.136,30.656,16.408l2.216,3.328   C152.36,143.76,152,147.832,152,152c0,35.44,19.352,66.384,48,83.008V240h-23.032c-1.416,0-2.816,0.088-4.208,0.208l-3.376-5.904   C151.4,202.84,125.48,176.36,94.408,157.72C70.728,143.504,43.608,136,16,136H1.048l14.416,21.624   c14.008,21.016,14.664,48.592,1.672,70.256l-3.6,6l7.984,6.384C43.432,257.792,56,283.936,56,312v8h8   c23.04,0,44.712,10.152,59.464,27.848l4.536,5.448V368c0,17.648,14.352,32,32,32c5.856,0,11.272-1.696,16-4.448v7.056   c-10.6,4.144-37.4,13.864-66.072,18.648c1.24-4.304,2.072-8.704,2.072-13.256c0-17.648-14.352-32-32-32s-32,14.352-32,32   s14.352,32,32,32c0.176,0,0.352-0.016,0.528-0.016C70.784,450.68,58.192,459.936,48,466.28V448H32v48h48v-16H56.152   c13.2-8.168,33.592-22.8,45.752-41.432C131.696,435,160.68,425.448,176,419.744V496h64h8h72V395.552   c4.728,2.752,10.144,4.448,16,4.448c17.648,0,32-14.352,32-32v-14.704l4.536-5.448C387.288,330.152,408.96,320,432,320h8v-8   c0-28.064,12.568-54.208,34.48-71.736l7.984-6.384l-3.6-6C465.864,206.216,466.52,178.64,480.528,157.624z M64,408   c0-8.824,7.176-16,16-16s16,7.176,16,16s-7.176,16-16,16S64,416.824,64,408z M368.256,104.56   c-11.408,1.68-21.872,7.072-29.92,15.272c-3.224-9.016-7.736-17.392-13.352-24.944c15.28-13.176,33.16-22.632,52.632-27.784   C372.328,78.904,369.144,91.664,368.256,104.56z M248,72c29.096,0,54.544,15.664,68.544,38.96l-38.368-16.44L248,124.688   L217.832,94.52l-38.368,16.44C193.456,87.664,218.904,72,248,72z M127.744,104.56c-0.888-12.896-4.072-25.656-9.352-37.456   c19.464,5.144,37.344,14.6,52.624,27.784c-5.616,7.552-10.136,15.928-13.352,24.944   C149.616,111.632,139.152,106.248,127.744,104.56z M168,152c0-6.856,0.96-13.48,2.592-19.84l43.584-18.68L248,147.312   l33.832-33.832l43.584,18.68C327.04,138.52,328,145.144,328,152c0,44.112-35.888,80-80,80S168,196.112,168,152z M86.184,171.44   c13.608,8.168,26.112,18.008,37.312,29.152c-39.288,2.064-67.4,9.656-84.312,15.896c6-21.184,3.448-44.28-7.832-63.616   C50.68,155.056,69.392,161.368,86.184,171.44z M128,288.968v40.496c-14.344-13.536-32.52-22.088-52.08-24.584l3.96-8.904   c2.512-5.664,5.336-11.264,8.392-16.656l-13.912-7.888c-2.208,3.88-4.248,7.888-6.2,11.928   c-5.128-18.752-15.376-35.728-29.688-49.344c13.616-5.632,40.688-14.456,80.968-17.168c-13.944,11.992-26.328,25.648-36.712,41.072   l13.264,8.936c12.216-18.128,27.376-33.656,44.848-46.576c5.352,6.976,10.28,14.304,14.664,21.968l1.24,2.168   c-5.28,2.4-10.16,5.712-14.392,9.936C133.096,263.584,128,275.88,128,288.968z M352,368c0,8.824-7.176,16-16,16s-16-7.176-16-16   v-24v-56h-16v56v24v112h-48v-92.688l21.656-21.656l-11.312-11.312L248,372.688l-18.344-18.344l-11.312,11.312L240,387.312V480h-48   V368v-24v-56h-16v56v24c0,8.824-7.176,16-16,16s-16-7.176-16-16v-79.032c0-8.816,3.432-17.088,9.656-23.312   c6.144-6.136,14.64-9.656,23.312-9.656H216v-13.6c10.024,3.56,20.768,5.6,32,5.6s21.976-2.04,32-5.6V256h39.032   c8.672,0,17.168,3.52,23.312,9.656c6.224,6.224,9.656,14.504,9.656,23.312V368z M368,329.464v-40.496   c0-13.088-5.096-25.384-14.344-34.624c-4.224-4.224-9.112-7.536-14.392-9.936l1.24-2.168c4.4-7.704,9.352-15.056,14.736-22.064   c26.464,19.6,47.456,45.584,60.88,75.792l3.96,8.904C400.528,307.376,382.344,315.928,368,329.464z M427.816,283.464   c-12.352-25.528-29.68-48.128-51.04-66.544c16.512,1.112,32.296,3.24,47,6.576l3.536-15.608   c-17.104-3.872-35.456-6.32-54.768-7.336c11.192-11.128,23.672-20.952,37.264-29.112c16.792-10.072,35.504-16.384,54.832-18.568   c-11.28,19.352-13.832,42.464-7.824,63.656c-3.656-1.352-7.768-2.76-12.464-4.168l-4.592,15.32   c7.408,2.224,13.304,4.424,17.808,6.296C443.2,247.624,432.944,264.656,427.816,283.464z"/>
</g>
<g>
</g>
<g>
</g>
<g>
</g>
<g>
</g>
<g>
</g>
<g>
</g>
<g>
</g>
<g>
</g>
<g>
</g>
<g>
</g>
<g>
</g>
<g>
</g>
<g>
</g>
<g>
</g>
<g>
</g>
</svg>
