<?xml version="1.0" encoding="iso-8859-1"?>
<!-- Generator: Adobe Illustrator 19.0.0, SVG Export Plug-In . SVG Version: 6.00 Build 0)  -->
<svg xmlns="http://www.w3.org/2000/svg" xmlns:xlink="http://www.w3.org/1999/xlink" version="1.1" id="Capa_1" x="0px" y="0px" viewBox="0 0 496 496" style="enable-background:new 0 0 496 496;" xml:space="preserve">
<path style="fill:#333333;" d="M340.44,233.344l-8.872,13.312c12.8,8.528,20.44,22.808,20.44,38.184V348c0,6.616-5.384,12-12,12  S328,354.616,328,348v-36h-16v26.808c-3.904,1.648-10.176,4.072-18.216,6.408l4.456,15.36c5.896-1.712,10.928-3.464,14.944-5  c2.208,7.784,7.64,14.168,14.824,17.608v28.672l-35.288-21.168l-14.904,29.8L248,380.688l-29.808,29.808l-14.904-29.8L168,401.864  v-28.672c7.184-3.44,12.608-9.816,14.824-17.6C195.872,360.592,219.936,368,248,368c10.88,0,22.168-1.136,33.544-3.368  l-3.096-15.704C268.104,350.968,257.848,352,248,352c-29.248,0-54.24-9.104-64-13.192V312h-16v36c0,6.616-5.384,12-12,12  s-12-5.384-12-12v-63.16c0-15.384,7.64-29.656,20.44-38.184l-8.872-13.312C138.304,244.84,128,264.104,128,284.84V348  c0,14.064,10.464,25.632,24,27.592v54.536l40-24V496h48h8h56v-89.872l40,24v-54.536c13.536-1.96,24-13.528,24-27.592v-63.16  C368,264.104,357.696,244.84,340.44,233.344z M208,480v-54.104l5.808,11.616l26.192-26.2V480H208z M288,480h-32v-68.688  l26.192,26.192L288,425.896V480z"/>
<path style="fill:#FFA64D;" d="M304,200c-17.648,0-32,14.352-32,32c0,7.808,2.92,14.88,7.584,20.44  c-2.344,1.36-4.608,2.928-6.616,4.936c-3.56,3.56-5.984,7.792-7.52,12.264c-5.024-3.288-11-5.24-17.448-5.24  s-12.424,1.952-17.456,5.24c-1.528-4.472-3.952-8.704-7.52-12.264c-2.008-2.008-4.264-3.576-6.616-4.936  C221.08,246.88,224,239.808,224,232c0-17.648-14.352-32-32-32c-17.616,0-34.168,6.856-46.624,19.312L132.688,232l12.688,12.688  c8.096,8.096,17.944,13.776,28.672,16.8c-10.064,11.88-15.584,26.76-15.584,42.512v17.936H176.4  c14.936,0,29.088-4.976,40.648-14.072c2.312,13.248,8.56,25.456,18.264,35.16L248,355.704l12.688-12.672  c9.704-9.704,15.952-21.912,18.264-35.16c11.56,9.088,25.712,14.072,40.648,14.072h17.936V304c0-15.752-5.52-30.632-15.584-42.512  c10.728-3.016,20.576-8.704,28.672-16.8L363.312,232l-12.688-12.688C338.168,206.856,321.616,200,304,200z"/>
<g>
	<path style="fill:#333333;" d="M318.312,175.36C332.944,172.424,344,159.488,344,144c0-14.872-10.232-27.288-24-30.864V104h-16v56   c0,30.872-25.128,56-56,56s-56-25.128-56-56v-56h-16v9.136c-13.768,3.576-24,15.992-24,30.864c0,15.488,11.056,28.424,25.688,31.36   c4.024,18.432,15.136,34.232,30.312,44.432V224h-32v16h32c0,6.624,1.776,12.784,4.64,18.296l-0.92-0.92l-28.288,28.28   l11.312,11.312l27.024-27.016c5.128,4.496,11.304,7.824,18.232,9.24V312.4h16v-33.208c6.928-1.416,13.104-4.744,18.232-9.24   l27.024,27.016l11.312-11.312l-28.288-28.28l-0.92,0.92c2.864-5.512,4.64-11.672,4.64-18.296h32v-16h-32v-4.208   C303.176,209.6,314.288,193.792,318.312,175.36z M320,130.224c4.76,2.776,8,7.88,8,13.776s-3.24,11-8,13.776V130.224z M176,157.776   c-4.76-2.776-8-7.88-8-13.776s3.24-11,8-13.776V157.776z M248,264c-13.232,0-24-10.768-24-24v-12.136   c7.512,2.664,15.584,4.136,24,4.136s16.488-1.472,24-4.136V240C272,253.232,261.232,264,248,264z"/>
	<rect x="272" y="136" style="fill:#333333;" width="16" height="16"/>
	<rect x="208" y="136" style="fill:#333333;" width="16" height="16"/>
	<path style="fill:#333333;" d="M248,200c17.648,0,32-14.352,32-32h-16c0,8.824-7.176,16-16,16s-16-7.176-16-16h-16   C216,185.648,230.352,200,248,200z"/>
	<rect x="184" y="104" style="fill:#333333;" width="128" height="16"/>
</g>
<path style="fill:#FFA64D;" d="M382.624,83.312C370.168,70.856,353.616,64,336,64c-2.416,0-4.752,0.32-7.016,0.832  c5.552-9.792,8.56-20.872,8.56-32.432V14.464H319.6c-17.616,0-34.176,6.856-46.632,19.312c-0.072,0.072-0.12,0.168-0.2,0.24  C269.664,27.952,248,0,248,0s-21.664,27.952-24.768,34.016c-0.072-0.072-0.12-0.168-0.2-0.24  C210.576,21.32,194.016,14.464,176.4,14.464h-17.936V32.4c0,11.56,3.008,22.64,8.56,32.432C164.752,64.32,162.416,64,160,64  c-17.616,0-34.168,6.856-46.624,19.312L100.688,96l12.688,12.688C125.832,121.144,142.384,128,160,128c17.648,0,32-14.352,32-32  c0-3.272-0.64-6.36-1.552-9.336c3.24,1.056,6.584,1.72,9.96,1.72c7.312,0,14.544-2.624,20.472-7.592  C226.528,89.88,236.528,96,248,96c11.472,0,21.472-6.12,27.12-15.216c5.928,4.968,13.152,7.592,20.472,7.592  c3.376,0,6.72-0.664,9.96-1.72C304.64,89.64,304,92.728,304,96c0,17.648,14.352,32,32,32c17.616,0,34.168-6.856,46.624-19.312  L395.312,96L382.624,83.312z"/>
<g>
	<rect x="144" y="88" style="fill:#333333;" width="40" height="16"/>
	<rect x="312" y="88" style="fill:#333333;" width="40" height="16"/>
	
		<rect x="272.788" y="51.244" transform="matrix(-0.7071 0.7071 -0.7071 -0.7071 541.7112 -105.896)" style="fill:#333333;" width="40" height="16"/>
	<rect x="240" y="48" style="fill:#333333;" width="16" height="40"/>
	
		<rect x="195.224" y="39.212" transform="matrix(-0.7071 0.7071 -0.7071 -0.7071 388.7946 -42.6201)" style="fill:#333333;" width="16" height="40"/>
</g>
<g>
</g>
<g>
</g>
<g>
</g>
<g>
</g>
<g>
</g>
<g>
</g>
<g>
</g>
<g>
</g>
<g>
</g>
<g>
</g>
<g>
</g>
<g>
</g>
<g>
</g>
<g>
</g>
<g>
</g>
</svg>
