<?xml version="1.0" encoding="iso-8859-1"?>
<!-- Generator: Adobe Illustrator 19.0.0, SVG Export Plug-In . SVG Version: 6.00 Build 0)  -->
<svg xmlns="http://www.w3.org/2000/svg" xmlns:xlink="http://www.w3.org/1999/xlink" version="1.1" id="Capa_1" x="0px" y="0px" viewBox="0 0 496 496" style="enable-background:new 0 0 496 496;" xml:space="preserve">
<g>
	<path style="fill:#FFA64D;" d="M410.989,361.256l-36.856-116.04c-5.928-18.672-19.224-34.16-36.84-42.912   c-3.08-1.528-6.264-2.84-9.528-3.928L284.381,184H155.629l-43.376,14.376c-3.264,1.08-6.448,2.392-9.528,3.928   c-17.616,8.76-30.912,24.24-36.84,42.912l-36.864,116.04c-1.392,4.384-1.352,9.088,0.104,13.448l0.776,2.32   C32.909,385.968,41.285,392,50.717,392c9.72,0,18.288-6.4,21.048-15.72L107.349,256l24.656,72v160h63.856v-87.856   c0-13.336,10.808-24.144,24.144-24.144s24.144,10.808,24.144,24.144V488h63.856V328l24.656-72l35.584,120.28   c2.76,9.32,11.32,15.72,21.048,15.72c9.432,0,17.816-6.032,20.816-14.976l0.776-2.32   C412.341,370.352,412.381,365.64,410.989,361.256z"/>
	<path style="fill:#FFA64D;" d="M324.005,136l24-32h-32c0-53.016-42.984-96-96-96s-96,42.984-96,96h-40l24,32l-16,16l24,8l-16,24h66   l5.736,6.56c5.248,6,12.832,9.44,20.808,9.44c7.336,0,14.36-2.912,19.552-8.096l7.904-7.904l7.896,7.896   c5.184,5.192,12.224,8.104,19.56,8.104c7.976,0,15.56-3.44,20.808-9.44l5.736-6.56h58l-16-24l24-8L324.005,136z"/>
	<path style="fill:#FFA64D;" d="M308.005,360c25.936-3.48,51.872-12,51.872-12l-27.872-92l-24,72V360z"/>
	<path style="fill:#FFA64D;" d="M440.045,199.992l-4.04,0.008l-24,8l-8-24l-24,8l-14.848-29.696   C351.413,186.04,348.005,208,348.005,208l56,128c0,0,48-16,48-80C452.005,223.752,444.781,213.168,440.045,199.992z"/>
</g>
<g>
	<rect x="260.005" y="88" style="fill:#333333;" width="16" height="16"/>
	<rect x="164.005" y="88" style="fill:#333333;" width="16" height="16"/>
	<rect x="284.005" y="240" style="fill:#333333;" width="16" height="24"/>
	<rect x="148.005" y="240" style="fill:#333333;" width="16" height="24"/>
	<rect x="260.005" y="336" style="fill:#333333;" width="16" height="24"/>
	<rect x="164.005" y="336" style="fill:#333333;" width="16" height="24"/>
	<rect x="268.005" y="416" style="fill:#333333;" width="16" height="24"/>
	<rect x="156.005" y="416" style="fill:#333333;" width="16" height="24"/>
	<rect x="212.005" y="216" style="fill:#333333;" width="16" height="24"/>
	<rect x="212.005" y="288" style="fill:#333333;" width="16" height="24"/>
	<path style="fill:#333333;" d="M468.301,102.512c-4.768-4.256-11.08-6.272-17.36-5.584c-69.36,7.824-96.512,62.776-106.112,91.872   l-16.352-24.528l26.344-8.776l-20.248-20.248L364.005,96h-20.648c9.4-24.512,25.008-46.048,45.584-62.504   c4.488-3.592,7.064-8.944,7.064-14.688C396.005,8.44,387.565,0,377.197,0h-2.6c-33.832,0-67.288,5.368-99.448,15.896   C259.157,5.84,240.253,0,220.005,0s-39.152,5.84-55.152,15.896C132.693,5.368,99.245,0,65.405,0h-2.6   c-10.36,0-18.8,8.44-18.8,18.808c0,5.752,2.576,11.104,7.056,14.688C71.637,49.96,87.253,71.496,96.653,96H68.005l29.44,39.248   l-20.248,20.248l26.344,8.776L85.053,192h21.728c-2.576,0.968-5.16,1.912-7.624,3.136c-19.448,9.664-34.352,27.04-40.904,47.656   l-36.856,116.04c-1.92,6.048-1.864,12.408,0.152,18.408l0.776,2.328C26.421,391.792,37.837,400,50.717,400   c13.168,0,24.984-8.824,28.72-21.456l28.472-96.224l16.096,47.008V496h79.856v-95.856c0-8.904,7.248-16.144,16.144-16.144   s16.144,7.24,16.144,16.144V496h79.856V366.88c15.44-2.544,29.936-6.384,38.488-8.872l6.08,20.544   c3.736,12.624,15.544,21.448,28.72,21.448c12.888,0,24.296-8.208,28.4-20.44l0.776-2.312c2.008-6.008,2.064-12.368,0.152-18.416   l-5.72-18.016c14.192-7.104,47.104-29.52,47.104-84.816c0-27.992-5.208-40.752-9.8-52c-3.464-8.488-6.2-15.184-6.2-28   c0-19.088,13.896-31.672,22.184-37.488c6.152-4.312,9.816-11.336,9.816-18.776C476.005,113.168,473.197,106.896,468.301,102.512z    M342.589,196.112c-0.592-0.312-1.144-0.68-1.744-0.976c-2.456-1.224-5.048-2.168-7.616-3.136h10.56   C343.349,193.456,342.941,194.832,342.589,196.112z M323.701,96c-0.784-10.288-3.104-20.152-6.68-29.392   c8.264-6.816,18.52-10.536,29.352-10.592C337.925,68.288,331.165,81.72,326.285,96H323.701z M374.605,16h2.6   c1.544,0,2.8,1.256,2.8,2.808c0,0.84-0.392,1.664-1.048,2.184c-7.224,5.784-13.84,12.176-19.928,19.008h-12.4   c-13.384,0-26.088,4.232-36.704,11.952c-5.208-8.968-11.656-17.128-19.208-24.144C318.005,19.976,346.157,16,374.605,16z    M61.053,20.992c-0.656-0.52-1.048-1.344-1.048-2.184c0-1.552,1.256-2.808,2.808-2.808h2.6c28.448,0,56.6,3.976,83.88,11.816   c-7.552,7.016-14,15.176-19.208,24.144C119.461,44.232,106.757,40,93.373,40h-12.4C74.885,33.168,68.277,26.776,61.053,20.992z    M93.629,56.016c10.832,0.056,21.096,3.784,29.352,10.592c-3.576,9.24-5.888,19.104-6.68,29.392h-2.584   C108.845,81.72,102.085,68.288,93.629,56.016z M100.005,112h32v-8c0-48.52,39.48-88,88-88s88,39.48,88,88v8h24l-18.56,24.752   l11.752,11.752l-21.656,7.224L317.053,176h-46.68l-8.128,9.288c-7.192,8.216-20.984,8.664-28.688,0.952l-10.536-10.536   c6.144-0.68,11.864-3.272,16.288-7.704l13.368-13.368c4.664-4.648,7.328-11.088,7.328-17.664c0-10.6-6.664-19.616-16-23.232V91.312   l21.656-21.656l-11.312-11.312l-26.344,26.344V112h-16V84.688l-26.344-26.344l-11.312,11.312l21.656,21.656v22.424   c-9.336,3.616-16,12.64-16,23.232c0,6.576,2.664,13.016,7.32,17.656L200.693,168c4.432,4.432,10.152,7.024,16.296,7.704   l-10.536,10.536c-7.736,7.72-21.488,7.264-28.68-0.96l-8.136-9.28h-54.68l13.512-20.272l-21.656-7.224l11.752-11.752L100.005,112z    M204.973,128h30.064c4.944,0,8.968,4.024,8.968,8.968c0,2.36-0.96,4.672-2.632,6.344l-13.376,13.376   c-4.264,4.28-11.712,4.28-15.992,0l-13.376-13.384c-1.664-1.664-2.624-3.976-2.624-6.336C196.005,132.024,200.029,128,204.973,128z    M316.005,350.656v-21.328l16.096-47.008l17.848,60.336C342.277,344.872,329.557,348.264,316.005,350.656z M403.293,372.168   l-0.776,2.312c-1.912,5.688-7.224,9.52-13.224,9.52c-6.136,0-11.64-4.112-13.376-9.984L333.221,229.68l-33.216,96.992V480h-47.856   v-79.856c0-17.72-14.424-32.144-32.144-32.144s-32.144,14.424-32.144,32.144V480h-47.856V326.672l-33.216-96.992L64.093,374.008   c-1.736,5.88-7.24,9.992-13.376,9.992c-6,0-11.32-3.832-13.224-9.512l-0.776-2.328c-0.92-2.728-0.944-5.736-0.072-8.48   l36.864-116.048c5.24-16.504,17.192-30.424,32.776-38.168c2.736-1.36,5.584-2.536,8.488-3.496L156.917,192h5.456l3.344,3.824   c6.784,7.736,16.56,12.176,26.832,12.176c9.512,0,18.464-3.704,25.208-10.44l2.248-2.248l2.24,2.24   c6.736,6.736,15.688,10.448,25.216,10.448c10.28,0,20.056-4.44,26.832-12.168l3.344-3.832h5.456l42.16,13.968   c2.888,0.952,5.744,2.136,8.48,3.496c15.584,7.752,27.536,21.664,32.776,38.168l36.856,116.048   C404.237,366.424,404.213,369.432,403.293,372.168z M407.981,325.352l-26.224-82.56c-4.632-14.576-13.496-27.464-25.136-37.224   c1.072-5.008,3.512-14.528,8.384-25.688l10.952,21.904l22.992-7.664l8,24l27.936-9.32c0.168,0.416,0.336,0.832,0.504,1.248   c4.24,10.376,8.616,21.104,8.616,45.952C444.005,299.92,419.901,318.72,407.981,325.352z M457.005,125.416   c-10.832,7.592-29,24.256-29,50.584c0,7.008,0.752,12.664,1.872,17.616l-12.808,4.272l-8-24l-25.008,8.336l-9.888-19.776   c13.928-22.264,37.896-45.024,78.56-49.608c2.44-0.296,4.104,0.896,4.904,1.608c1.504,1.352,2.368,3.272,2.368,5.288   C460.005,121.976,458.877,124.104,457.005,125.416z"/>
</g>
<g>
</g>
<g>
</g>
<g>
</g>
<g>
</g>
<g>
</g>
<g>
</g>
<g>
</g>
<g>
</g>
<g>
</g>
<g>
</g>
<g>
</g>
<g>
</g>
<g>
</g>
<g>
</g>
<g>
</g>
</svg>
