<?xml version="1.0" encoding="iso-8859-1"?>
<!-- Generator: Adobe Illustrator 19.0.0, SVG Export Plug-In . SVG Version: 6.00 Build 0)  -->
<svg xmlns="http://www.w3.org/2000/svg" xmlns:xlink="http://www.w3.org/1999/xlink" version="1.1" id="Capa_1" x="0px" y="0px" viewBox="0 0 496 496" style="enable-background:new 0 0 496 496;" xml:space="preserve">
<g>
	<path style="fill:#FFA64D;" d="M264,128h-8v-16c0-26.472,21.528-48,48-48h8v16C312,106.472,290.472,128,264,128z"/>
	<path style="fill:#FFA64D;" d="M240,128h-8c-26.472,0-48-21.528-48-48V64h8c26.472,0,48,21.528,48,48V128z"/>
</g>
<g>
	<rect x="240" y="144" style="fill:#333333;" width="16" height="16"/>
	<rect x="272" y="248" style="fill:#333333;" width="16" height="16"/>
	<rect x="208" y="248" style="fill:#333333;" width="16" height="16"/>
	<path style="fill:#333333;" d="M352,40v30.112c0,3.048-1.696,5.792-4.424,7.16l-11.824,5.912C333.232,36.904,294.896,0,248,0   s-85.232,36.904-87.752,83.176l-11.824-5.912C145.696,75.896,144,73.16,144,70.112V40h-16v30.112   c0,9.152,5.08,17.376,13.264,21.472l18.736,9.36V104c0,30.816,15.952,57.936,40,73.664v15.184l-29.656,3.312   C150.768,198.952,136,215.976,136,235.752V340c0,15.44,12.56,28,28,28c4.312,0,8.352-1.064,12-2.808V496h64V368   c0-4.416,3.592-8,8-8c4.408,0,8,3.584,8,8v128h64V365.192c3.648,1.744,7.688,2.808,12,2.808c15.44,0,28-12.56,28-28V235.752   c0-19.776-14.768-36.8-34.584-39.624L296,192.84v-15.184c24.048-15.728,40-42.848,40-73.664v-3.056l18.736-9.368   C362.92,87.488,368,79.256,368,70.112V40H352z M323.4,212c11.744,1.672,20.6,11.88,20.6,23.752V340c0,6.616-5.384,12-12,12   s-12-5.384-12-12v-92h-16v92c0,1.368,0.216,2.68,0.408,4H304v136h-32V368c0-13.232-10.768-24-24-24s-24,10.768-24,24v112h-32V344   h-0.408c0.192-1.32,0.408-2.632,0.408-4v-92h-16v92c0,6.616-5.384,12-12,12s-12-5.384-12-12V235.752   c0-11.864,8.856-22.08,20.36-23.72L216,207.16v-21.272c9.936,3.896,20.704,6.112,32,6.112c11.296,0,22.064-2.216,32-6.112v21.272   L323.4,212z M320,104c0,39.704-32.304,72-72,72s-72-32.296-72-72V88c0-39.704,32.304-72,72-72s72,32.296,72,72V104z"/>
</g>
<g>
	<path style="fill:#FFA64D;" d="M360,48c-13.232,0-24-10.768-24-24s10.768-24,24-24s24,10.768,24,24S373.232,48,360,48z"/>
	<path style="fill:#FFA64D;" d="M136,48c-13.232,0-24-10.768-24-24s10.768-24,24-24s24,10.768,24,24S149.232,48,136,48z"/>
</g>
<g>
</g>
<g>
</g>
<g>
</g>
<g>
</g>
<g>
</g>
<g>
</g>
<g>
</g>
<g>
</g>
<g>
</g>
<g>
</g>
<g>
</g>
<g>
</g>
<g>
</g>
<g>
</g>
<g>
</g>
</svg>
