<?xml version="1.0" encoding="iso-8859-1"?>
<!-- Generator: Adobe Illustrator 19.0.0, SVG Export Plug-In . SVG Version: 6.00 Build 0)  -->
<svg xmlns="http://www.w3.org/2000/svg" xmlns:xlink="http://www.w3.org/1999/xlink" version="1.1" id="Capa_1" x="0px" y="0px" viewBox="0 0 496 496" style="enable-background:new 0 0 496 496;" xml:space="preserve">
<path style="fill:#FFA64D;" d="M312,104c-14.072,0-27.288-6.288-36.312-16.864c-16.096,11.528-39.28,11.528-55.376,0  C211.288,97.712,198.072,104,184,104c-26.472,0-48-21.528-48-48s21.528-48,48-48c10.088,0,19.64,3.104,27.688,8.864  C220.712,6.288,233.928,0,248,0c14.072,0,27.288,6.288,36.312,16.864C292.36,11.104,301.912,8,312,8c26.472,0,48,21.528,48,48  S338.472,104,312,104z"/>
<g>
	<polygon style="fill:#333333;" points="328,496 256,496 256,416 272,416 272,480 312,480 312,400 328,400  "/>
	<polygon style="fill:#333333;" points="240,496 168,496 168,400 184,400 184,480 224,480 224,408 240,408  "/>
</g>
<path style="fill:#FFA64D;" d="M320,344H176l-32,56h14.112c10.96,0,20.984,6.192,25.888,16c20.648-5.16,42.464-2.768,61.504,6.752  L248,424l9.376-3.752C277.288,412.288,299.2,410.8,320,416c4.904-9.808,14.928-16,25.888-16H360L320,344z"/>
<g>
	<rect x="256" y="368" style="fill:#333333;" width="16" height="16"/>
	<rect x="304" y="376" style="fill:#333333;" width="16" height="16"/>
	<rect x="216" y="384" style="fill:#333333;" width="16" height="16"/>
	<rect x="184" y="368" style="fill:#333333;" width="16" height="16"/>
	<rect x="200" y="120" style="fill:#333333;" width="16" height="16"/>
	<rect x="280" y="120" style="fill:#333333;" width="16" height="16"/>
	<path style="fill:#333333;" d="M202.344,165.656c0.304,0.304,3.552,3.4,8.968,6.952l-9.968,14.952l13.312,8.872l11.08-16.624   C232.152,182.2,239.56,184,248,184s15.848-1.8,22.264-4.184l11.08,16.624l13.312-8.872l-9.968-14.952   c5.416-3.552,8.664-6.648,8.968-6.952l-11.312-11.312C282.2,154.48,268.456,168,248,168c-20.208,0-34.224-13.544-34.368-13.68   L202.344,165.656z"/>
	<path style="fill:#333333;" d="M392,88v-8.168L383.832,80C356.392,80.584,338.8,87.472,328,94.264V88h-16v64.368l3.096,2.4   C320.984,159.344,328,166.736,328,176c0,21.68-36.632,40-80,40s-80-18.32-80-40c0-9.264,7.016-16.656,12.904-21.224l3.096-2.4V88   h-16v6.264C157.208,87.472,139.608,80.576,112.168,80L104,79.832V88c0,0.592,0.8,55.152,57.832,62.992   C155.392,158.648,152,167.128,152,176c0,10.688,4.976,20.544,13.544,28.96l-4.92,1.408C136.704,213.192,120,235.336,120,260.2V340   c0,15.44,12.56,28,28,28c14.064,0,25.632-10.464,27.592-24H320.4c1.96,13.536,13.528,24,27.592,24c15.44,0,28-12.56,28-28v-79.8   c0-24.872-16.704-47.008-40.616-53.84l-4.92-1.408C339.024,196.544,344,186.688,344,176c0-8.872-3.392-17.352-9.832-25.008   C391.2,143.152,392,88.592,392,88z M295.128,224.984C290.904,247.168,271.4,264,248,264s-42.904-16.832-47.128-39.016   C214.728,229.448,230.752,232,248,232S281.272,229.448,295.128,224.984z M256,288c0,4.416-3.584,8-8,8s-8-3.584-8-8s3.584-8,8-8   C252.416,280,256,283.584,256,288z M121.064,96.48c30.392,2.584,43.256,14.128,46.936,18.256v20.896   C133.504,132.504,123.784,109.344,121.064,96.48z M330.992,221.744C348.072,226.624,360,242.44,360,260.2V340   c0,6.616-5.384,12-12,12s-12-5.384-12-12v-12v-72h-16v72H176v-72h-16v72v12c0,6.616-5.384,12-12,12s-12-5.384-12-12v-79.8   c0-17.76,11.928-33.576,29.008-38.456l16.944-4.84c0.704,0.384,1.432,0.768,2.152,1.144c0.864,27.072,18.576,49.904,43,58.384   c-1.92,3.44-3.104,7.352-3.104,11.568c0,13.232,10.768,24,24,24s24-10.768,24-24c0-4.216-1.184-8.128-3.104-11.576   c24.424-8.472,42.144-31.312,43-58.384c0.728-0.376,1.448-0.752,2.152-1.144L330.992,221.744z M328,135.632v-20.904   c3.688-4.136,16.56-15.688,47.008-18.256C372.376,109.344,362.784,132.536,328,135.632z"/>
</g>
<g>
</g>
<g>
</g>
<g>
</g>
<g>
</g>
<g>
</g>
<g>
</g>
<g>
</g>
<g>
</g>
<g>
</g>
<g>
</g>
<g>
</g>
<g>
</g>
<g>
</g>
<g>
</g>
<g>
</g>
</svg>
