<?xml version="1.0" encoding="iso-8859-1"?>
<!-- Generator: Adobe Illustrator 19.0.0, SVG Export Plug-In . SVG Version: 6.00 Build 0)  -->
<svg xmlns="http://www.w3.org/2000/svg" xmlns:xlink="http://www.w3.org/1999/xlink" version="1.1" id="Capa_1" x="0px" y="0px" viewBox="0 0 496 496" style="enable-background:new 0 0 496 496;" xml:space="preserve">
<path style="fill:#FFA64D;" d="M191.272,208.392C176.896,193.928,168,174.008,168,152v-32c0-8.84,7.16-16,16-16h128  c8.84,0,16,7.16,16,16v32c0,22.008-8.896,41.928-23.272,56.392L363.432,240H368V120C368,53.832,314.168,0,248,0S128,53.832,128,120  v120h4.568L191.272,208.392z"/>
<g>
	<path style="fill:#333333;" d="M399.44,408c17.952,0,32.56-14.608,32.56-32.56c0-6.464-1.888-12.704-5.472-18.064L388.944,301   c9.896-9.808,18.656-20.784,25.912-32.88l4.312-7.184L317.28,206.072C328.968,191.128,336,172.392,336,152v-32   c0-10.416-6.712-19.216-16-22.528V80h-16v16h-16V80h-16v16h-16V80h-16v16h-16V80h-16v16h-16V80h-16v17.472   c-9.288,3.312-16,12.112-16,22.528v32c0,20.392,7.032,39.128,18.712,54.064L76.824,260.928l4.312,7.184   c7.256,12.096,16.016,23.072,25.912,32.88l-37.584,56.376C65.888,362.736,64,368.976,64,375.44C64,393.392,78.608,408,96.56,408   h0.512l-25.32,44.304l18.184-4.544c0.296-0.056,28.632-6.832,57.256,14.64C180.696,487.52,206.136,496,248,496   s67.304-8.48,100.8-33.6c28.344-21.256,56.136-14.904,57.256-14.64l18.184,4.544L398.928,408H399.44z M413.224,366.256   c1.816,2.72,2.776,5.904,2.776,9.184c0,9.136-7.432,16.56-16.56,16.56h-1.528c-3.704,0-7.248-1.288-10.152-3.56L353.216,328   c8.392-4.728,16.344-10.104,23.744-16.144L413.224,366.256z M176,120c0-4.408,3.592-8,8-8h128c4.408,0,8,3.592,8,8v32   c0,39.696-32.304,72-72,72s-72-32.304-72-72V120z M232.536,238.552C237.56,239.448,242.712,240,248,240   c4.904,0,9.688-0.504,14.376-1.28l-15.616,27.336L232.536,238.552z M98.096,392H96.56C87.432,392,80,384.568,80,375.44   c0-3.28,0.96-6.464,2.784-9.184l36.256-54.392c7.4,6.04,15.352,11.416,23.744,16.144l-34.536,60.44   C105.352,390.712,101.8,392,98.096,392z M341.048,448.344l-64.824-125.32l-14.208,7.344l65.832,127.272   C302.608,474.36,281.472,480,248,480c-38.352,0-60.512-7.392-91.2-30.4c-20.336-15.248-40.664-18.704-54.28-18.88l88.424-154.752   l-13.888-7.936l-26.344,46.104c-20.56-11.568-38.112-27.656-51.336-47.176l90.728-48.856c6.248,5.48,13.264,10.072,20.888,13.624   l42.888,82.912l14.208-7.344l-12.576-24.32l29.208-51.112c7.736-3.568,14.848-8.216,21.176-13.76l90.728,48.856   c-13.224,19.52-30.776,35.608-51.336,47.176l-26.344-46.104l-13.888,7.936L393.48,430.72   C380.272,430.896,360.752,434.24,341.048,448.344z"/>
	<rect x="280" y="136" style="fill:#333333;" width="16" height="16"/>
	<rect x="200" y="136" style="fill:#333333;" width="16" height="16"/>
	<path style="fill:#333333;" d="M248,208c17.648,0,32-14.352,32-32h-16c0,8.824-7.176,16-16,16s-16-7.176-16-16h-16   C216,193.648,230.352,208,248,208z"/>
	<path style="fill:#333333;" d="M176,360v40h8c22.056,0,40-17.944,40-40v-40h-8C193.944,320,176,337.944,176,360z M208,360   c0,10.432-6.688,19.328-16,22.632V360c0-10.432,6.688-19.328,16-22.632V360z"/>
	<path style="fill:#333333;" d="M240,384v40c0,22.056,17.944,40,40,40h8v-40c0-22.056-17.944-40-40-40H240z M256,401.368   c9.312,3.304,16,12.2,16,22.632v22.632c-9.312-3.304-16-12.2-16-22.632V401.368z"/>
</g>
<g>
</g>
<g>
</g>
<g>
</g>
<g>
</g>
<g>
</g>
<g>
</g>
<g>
</g>
<g>
</g>
<g>
</g>
<g>
</g>
<g>
</g>
<g>
</g>
<g>
</g>
<g>
</g>
<g>
</g>
</svg>
