<?xml version="1.0" encoding="iso-8859-1"?>
<!-- Generator: Adobe Illustrator 19.0.0, SVG Export Plug-In . SVG Version: 6.00 Build 0)  -->
<svg xmlns="http://www.w3.org/2000/svg" xmlns:xlink="http://www.w3.org/1999/xlink" version="1.1" id="Capa_1" x="0px" y="0px" viewBox="0 0 496 496" style="enable-background:new 0 0 496 496;" xml:space="preserve">
<g>
	<path style="fill:#FFA64D;" d="M323.856,276.32c-7.936-3.08-16.48-4.32-24.984-4.32H256v8h-48v48c0,13.256-10.744,24-24,24l0,0v72   h24h85.176L312,488h56V340.288C368,312.808,351.44,287.04,323.856,276.32z"/>
	<path style="fill:#FFA64D;" d="M40,352v136h40l13.568-88.184C94.968,390.712,102.792,384,112,384s17.032,6.712,18.432,15.816   L144,488h40V352l-16-16H56L40,352z"/>
</g>
<g>
	<path style="fill:#333333;" d="M452,408h-10.12c1.792-9.848,4.8-19.48,9.272-28.424c8.4-16.8,12.848-35.616,12.848-54.408v-2.824   c0-35.544-27.832-65.296-62.04-66.32c-21.44-0.672-40.952,9.288-53.224,25.856c-1.528-1.288-3.128-2.48-4.744-3.64v-29.568   C344,208.6,311.4,176,271.32,176c-8.568,0-16.984-2.336-24.344-6.744C232.808,160.752,224,145.2,224,128.672V112   C224,50.24,173.76,0,112,0S0,50.24,0,112v6.312c0,35.216,9.312,69.4,26.904,99.656C15.544,225.12,8,237.688,8,251.752V332   c0,14.064,10.464,25.632,24,27.592V496h54.856l14.616-94.976C102.28,395.8,106.704,392,112,392s9.72,3.8,10.52,9.024L137.144,496   H192v-64h95.192l18.824,64H376v-44.112l1.896,3.04C393.968,480.648,421.672,496,452,496c24.256,0,44-19.736,44-44   S476.256,408,452,408z M24,332v-80.248c0-11.864,8.856-22.08,20.608-23.76l25.712-3.672L96.456,240H64c-13.232,0-24,10.768-24,24   v16c0,7.064,3.128,13.36,8,17.76V332c0,6.616-5.384,12-12,12S24,338.616,24,332z M48,112h128v24c0,35.288-28.712,64-64,64   s-64-28.712-64-64V112z M56,280v-16c0-4.408,3.584-8,8-8h96c4.416,0,8,3.592,8,8v16c0,4.408-3.584,8-8,8H64   C59.584,288,56,284.408,56,280z M188,344c-6.616,0-12-5.384-12-12v-34.24c4.872-4.392,8-10.696,8-17.76v-16   c0-13.232-10.768-24-24-24h-32.456l26.136-15.68l25.712,3.672c11.752,1.68,20.608,11.896,20.608,23.76V332   C200,338.616,194.616,344,188,344z M112,216c11.376,0,22.192-2.424,32-6.728v2.2l-32,19.2l-32-19.2v-2.2   C89.808,213.576,100.624,216,112,216z M150.856,480l-12.52-81.4C136.32,385.504,125.248,376,112,376s-24.32,9.504-26.336,22.6   L73.144,480H48V357.192c8.264-3.96,14.232-11.808,15.592-21.192H80v-16H64v-16h96v16H96v16h64.408   c1.36,9.384,7.328,17.232,15.592,21.192V480H150.856z M360,480h-42.016l-38.312-130.256l-15.344,4.512L282.488,416H192v-56.408   c13.536-1.96,24-13.528,24-27.592v-52h16v-16h-16v-12.248c0-19.776-14.768-36.8-34.344-39.6L160,209.064V200h-0.208   C179.296,185.4,192,162.184,192,136v-24V96V80h-16v16h-24V80h-16v16H88V80H72v16H48V80H32v16v16v24c0,26.184,12.704,49.4,32.208,64   H64v9.064l-21.656,3.096c-0.072,0.008-0.136,0.04-0.208,0.048C25.08,183.832,16,151.584,16,118.312V112c0-52.936,43.064-96,96-96   s96,43.064,96,96v16.672c0,22.112,11.784,42.92,30.752,54.304c9.84,5.904,21.096,9.024,32.568,9.024   c31.248,0,56.68,25.424,56.68,56.672v20.76c-8.88-3.536-18.432-5.432-28.28-5.432H248v16h51.72   c16.104,0,31.232,6.272,42.624,17.656C353.728,309.04,360,324.184,360,340.288V376v22.264V480z M452,480   c-24.776,0-47.408-12.544-60.536-33.552l-3.04-4.864C380.296,428.576,376,413.6,376,398.264V376v-35.712   c0-17.144-5.68-33.392-16.048-46.712c9.104-13.76,24.792-22.08,41.528-21.552c25.656,0.768,46.52,23.344,46.52,50.32v2.824   c0,16.32-3.856,32.664-11.16,47.256c-8.392,16.8-12.84,35.616-12.84,54.408V448h16v-21.168c0-0.944,0.144-1.888,0.168-2.832H452   c15.44,0,28,12.56,28,28S467.44,480,452,480z"/>
	<rect x="320" y="320" style="fill:#333333;" width="16" height="16"/>
	<rect x="280" y="296" style="fill:#333333;" width="16" height="16"/>
	<rect x="232" y="328" style="fill:#333333;" width="16" height="16"/>
	<rect x="144" y="376" style="fill:#333333;" width="16" height="16"/>
	<rect x="104" y="352" style="fill:#333333;" width="16" height="16"/>
	<rect x="64" y="376" style="fill:#333333;" width="16" height="16"/>
	<rect x="312" y="392" style="fill:#333333;" width="16" height="16"/>
	<rect x="208" y="384" style="fill:#333333;" width="16" height="16"/>
	<rect x="144" y="128" style="fill:#333333;" width="16" height="16"/>
	<rect x="64" y="128" style="fill:#333333;" width="16" height="16"/>
	<rect x="104" y="168" style="fill:#333333;" width="16" height="16"/>
</g>
<g>
</g>
<g>
</g>
<g>
</g>
<g>
</g>
<g>
</g>
<g>
</g>
<g>
</g>
<g>
</g>
<g>
</g>
<g>
</g>
<g>
</g>
<g>
</g>
<g>
</g>
<g>
</g>
<g>
</g>
</svg>
