<?xml version="1.0" encoding="iso-8859-1"?>
<!-- Generator: Adobe Illustrator 19.0.0, SVG Export Plug-In . SVG Version: 6.00 Build 0)  -->
<svg xmlns="http://www.w3.org/2000/svg" xmlns:xlink="http://www.w3.org/1999/xlink" version="1.1" id="Capa_1" x="0px" y="0px" viewBox="0 0 496 496" style="enable-background:new 0 0 496 496;" xml:space="preserve">
<path style="fill:#333333;" d="M315.072,52.376C300.224,29.6,275.16,16,248,16c-27.144,0-52.208,13.6-67.064,36.368l-13.408-8.744  C185.344,16.312,215.432,0,248,0c32.584,0,62.672,16.32,80.48,43.648L315.072,52.376z"/>
<path style="fill:#FFA64D;" d="M120,40v46.528C120,100.576,131.424,112,145.472,112H152v-8l24-32l32,32l40-32l40,32l32-32l24,32v8  h6.528C364.576,112,376,100.576,376,86.528V40H120z"/>
<g>
	<rect x="184" y="120" style="fill:#333333;" width="16" height="16"/>
	<rect x="296" y="120" style="fill:#333333;" width="16" height="16"/>
	<path style="fill:#333333;" d="M348.416,228.888L312,224.84v-7.032c24.304-19.056,40-48.6,40-81.808v-34.664l-31.136-41.512   L287.4,93.288L248,61.752L208.592,93.28l-33.464-33.464L144,101.336V136c0,33.208,15.696,62.752,40,81.808v7.032l-36.416,4.048   C127.296,231.136,112,248.232,112,268.64V336c0,17.648,14.352,32,32,32c5.856,0,11.272-1.696,16-4.448V368v128h79.448   l8.528-119.432l-15.952-1.144L224.552,480H176V368h40v-16h-40v-16h144v16h-40v16h40v112h-48.552l-7.472-104.568l-15.952,1.144   L256.552,496H336V368v-4.448c4.728,2.752,10.144,4.448,16,4.448c17.648,0,32-14.352,32-32v-67.36   C384,248.232,368.704,231.136,348.416,228.888z M160,136v-29.336l16.864-22.488l30.536,30.536L248,82.248l40.592,32.472   l30.536-30.536L336,106.664V136c0,44.352-33.008,81.04-75.728,87.04l39.04-39.04L248,132.688L196.688,184l39.04,39.04   C193.008,217.04,160,180.352,160,136z M268.688,192L248,212.688L227.312,192H268.688z M227.312,176L248,155.312L268.688,176   H227.312z M368,336c0,8.824-7.176,16-16,16s-16-7.176-16-16v-16v-40h-16v40H176v-40h-16v40v16c0,8.824-7.176,16-16,16   s-16-7.176-16-16v-67.36c0-12.248,9.176-22.496,21.352-23.856L200,239.16v-10.992c14.376,7.52,30.68,11.832,48,11.832   s33.624-4.312,48-11.832v10.992l50.648,5.624C358.824,246.144,368,256.392,368,268.64V336z"/>
	<path style="fill:#333333;" d="M221.656,263.032l-11.312-11.312c-5.704,5.704-14.984,5.704-20.688,0l-11.312,11.312   c5.968,5.968,13.816,8.952,21.656,8.952S215.688,269,221.656,263.032z"/>
	<path style="fill:#333333;" d="M258.344,251.72c-5.704,5.704-14.984,5.704-20.688,0l-11.312,11.312   c5.968,5.968,13.816,8.952,21.656,8.952c7.84,0,15.688-2.984,21.656-8.952L258.344,251.72z"/>
	<path style="fill:#333333;" d="M285.656,251.72l-11.312,11.312c5.968,5.968,13.816,8.952,21.656,8.952s15.688-2.984,21.656-8.952   l-11.312-11.312C300.64,257.424,291.36,257.424,285.656,251.72z"/>
	<path style="fill:#333333;" d="M205.656,291.72l-11.312,11.312c5.968,5.968,13.816,8.952,21.656,8.952s15.688-2.984,21.656-8.952   l-11.312-11.312C220.64,297.424,211.36,297.424,205.656,291.72z"/>
	<path style="fill:#333333;" d="M269.656,291.72l-11.312,11.312c5.968,5.968,13.816,8.952,21.656,8.952s15.688-2.984,21.656-8.952   l-11.312-11.312C284.64,297.424,275.36,297.424,269.656,291.72z"/>
</g>
<path style="fill:#FFA64D;" d="M288,400h-80v-80h80V400z"/>
<g>
</g>
<g>
</g>
<g>
</g>
<g>
</g>
<g>
</g>
<g>
</g>
<g>
</g>
<g>
</g>
<g>
</g>
<g>
</g>
<g>
</g>
<g>
</g>
<g>
</g>
<g>
</g>
<g>
</g>
</svg>
