<?xml version="1.0" encoding="UTF-8" standalone="no"?>
<!-- Generator: Adobe Illustrator 19.0.0, SVG Export Plug-In . SVG Version: 6.00 Build 0)  -->

<svg
   xmlns:dc="http://purl.org/dc/elements/1.1/"
   xmlns:cc="http://creativecommons.org/ns#"
   xmlns:rdf="http://www.w3.org/1999/02/22-rdf-syntax-ns#"
   xmlns:svg="http://www.w3.org/2000/svg"
   xmlns="http://www.w3.org/2000/svg"
   xmlns:sodipodi="http://sodipodi.sourceforge.net/DTD/sodipodi-0.dtd"
   xmlns:inkscape="http://www.inkscape.org/namespaces/inkscape"
   version="1.1"
   id="Capa_1"
   x="0px"
   y="0px"
   viewBox="0 0 496 496"
   style="enable-background:new 0 0 496 496;"
   xml:space="preserve"
   sodipodi:docname="logo2.svg"
   inkscape:version="0.92.2 (5c3e80d, 2017-08-06)"><metadata
     id="metadata201"><rdf:RDF><cc:Work
         rdf:about=""><dc:format>image/svg+xml</dc:format><dc:type
           rdf:resource="http://purl.org/dc/dcmitype/StillImage" /><dc:title></dc:title></cc:Work></rdf:RDF></metadata><defs
     id="defs199" /><sodipodi:namedview
     pagecolor="#ffffff"
     bordercolor="#666666"
     borderopacity="1"
     objecttolerance="10"
     gridtolerance="10"
     guidetolerance="10"
     inkscape:pageopacity="0"
     inkscape:pageshadow="2"
     inkscape:window-width="1680"
     inkscape:window-height="925"
     id="namedview197"
     showgrid="false"
     inkscape:zoom="1.4576613"
     inkscape:cx="143.72337"
     inkscape:cy="248"
     inkscape:window-x="0"
     inkscape:window-y="23"
     inkscape:window-maximized="0"
     inkscape:current-layer="g164" /><path
     style="fill:#FFA64D;"
     d="M369.64,198.48c-7.424-5.296-15.992-8.928-25.144-10.456L320.384,184h-2.368  c-2.672,9.344-7.608,17.976-14.608,24.968l-57.376,57.376c-3.616,3.624-8.528,5.656-13.648,5.656s-10.032-2.032-13.656-5.656  l-63.032-63.032c-5.328-5.328-8.896-12.056-10.432-19.312h-0.88l-24.112,4.016c-9.208,1.536-17.816,5.2-25.272,10.544  c0.472,0.48,0.896,0.944,1.384,1.44l104,104v184h64V304l104-104C368.84,199.464,369.2,199,369.64,198.48z"
     id="path154" /><g
     id="g164"><path
       style="fill:#333333;"
       d="M448.384,56c0-11.24-4.776-22.032-13.096-29.6s-19.536-11.28-30.816-10.216   c-20.232,1.936-36.088,20.024-36.088,41.192V112c0,7.08,1.88,13.896,5.488,20c-3.608,6.104-5.488,12.92-5.488,20   c0,8.52,2.824,16.856,8,23.784v17.712c-8.848-6.848-19.28-11.48-30.568-13.368l-18.128-3.024c0.408-2.992,0.696-6.024,0.696-9.104   v-4.944L310.264,154c0.208-0.888,0.432-1.768,0.608-2.664c14.544-3.008,25.512-15.912,25.512-31.336v-16   c0-57.344-46.656-104-104-104s-104,46.656-104,104v24c0,15.736,11.44,28.784,26.424,31.44l-18.424,12.28V176   c0,0.408,0.048,0.808,0.056,1.216l-17.488,2.912c-17.44,2.904-32.888,12.296-43.496,26.44c-7.016,9.36-11.544,20.432-13.088,32.016   L47.616,349.256l64.864,24.328c-3.744,26.096-8.744,52.024-15.136,77.608L86.136,496h292.496l-11.2-44.808   c-6.4-25.592-11.4-51.512-15.136-77.608l24.088-9.04V464c0,17.648,14.352,32,32,32s32-14.352,32-32V175.784   c5.176-6.928,8-15.264,8-23.784c0-7.088-1.88-13.896-5.488-20c3.608-6.104,5.488-12.912,5.488-20V56z M343.184,195.912   c4.8,0.8,9.392,2.264,13.696,4.288l-16.496,16.488l-19.056-19.056c0.824-1.632,1.608-3.288,2.288-4.976L343.184,195.912z    M152.384,211.312L165.072,224l-16.688,16.688L135.696,228L152.384,211.312z M176.384,235.312L189.072,248l-16.688,16.688   L159.696,252L176.384,235.312z M200.384,259.312L213.072,272l-16.688,16.688L183.696,276L200.384,259.312z M236.656,279.584   L257.072,300l-3.032,3.032c-11.568,11.568-31.744,11.568-43.312,0L207.696,300l20.416-20.416c1.408,0.216,2.824,0.416,4.272,0.416   S235.248,279.8,236.656,279.584z M256.384,436.68l-35.44-35.44l35.44-23.624V436.68z M243.824,366.76l-35.44,23.624v-59.072   l10.328,10.328l11.312-11.312l-2.6-2.6c1.64,0.168,3.288,0.272,4.96,0.272c8.6,0,16.824-2.36,24-6.696v35.384l-16.624-16.624   l-11.312,11.312L243.824,366.76z M219.944,462.672l-11.56,7.712v-59.072l35.44,35.44l-14.416,9.608l8.872,13.312l18.104-12.056V480   h-33.576l6.016-4.008L219.944,462.672z M268.384,288.688L251.696,272l12.688-12.688L281.072,276L268.384,288.688z M292.384,264.688   L275.696,248l12.688-12.688L305.072,252L292.384,264.688z M316.384,240.688L299.696,224l9.376-9.376   c1.112-1.112,2.128-2.296,3.152-3.472L329.072,228L316.384,240.688z M312.384,133.776v-27.552c4.76,2.776,8,7.88,8,13.776   C320.384,125.896,317.144,131,312.384,133.776z M232.384,16c44.424,0,81.168,33.12,87.072,75.952   c-2.224-1.2-4.576-2.16-7.072-2.816V84.84c0-24.72-20.12-44.84-44.84-44.84c-8.888,0-17.488,2.608-24.872,7.528l-10.288,6.856   l-10.28-6.856C214.72,42.608,206.112,40,197.224,40c-24.72,0-44.84,20.12-44.84,44.84v12.296c-2.776,0.72-5.384,1.816-7.816,3.216   C146.504,53.528,185.096,16,232.384,16z M283.184,174.776l-9.36-28.72c-2.44-6.112-8.272-10.056-14.856-10.056H205.8   c-6.584,0-12.416,3.944-15.032,10.552l-9.184,28.216c-8.24-10.776-13.2-24.184-13.2-38.768V84.84   c0-15.904,12.936-28.84,28.84-28.84c5.712,0,11.248,1.672,16,4.84l19.16,12.776l19.16-12.768c4.752-3.176,10.28-4.848,16-4.848   c15.904,0,28.84,12.936,28.84,28.84V136C296.384,150.584,291.424,164,283.184,174.776z M270.448,187.328   C259.8,195.248,246.648,200,232.384,200s-27.416-4.752-38.072-12.672L205.8,152l52.992-0.496L270.448,187.328z M144.384,128   c0-5.896,3.24-11,8-13.776V136c0,2.008,0.152,3.968,0.304,5.936C147.76,139.208,144.384,134.016,144.384,128z M161.952,173.896   C175.488,198.944,201.976,216,232.384,216c32.232,0,60-19.2,72.656-46.728l7.112,3.552c-1.096,11.512-6.112,22.2-14.392,30.488   l-57.376,57.376c-4.208,4.208-11.792,4.208-16,0l-63.032-63.032c-4.808-4.808-7.816-10.928-8.696-17.552L161.952,173.896z    M121.584,195.912l17.984-3c0.776,2.008,1.696,3.952,2.752,5.832l-17.936,17.944l-16.496-16.496   C112.192,198.176,116.784,196.712,121.584,195.912z M112.864,455.072c15.608-62.432,23.52-126.72,23.52-191.072h-16   c0,31.192-1.912,62.376-5.68,93.32L65.16,338.744l13.072-98.04c1.184-8.88,4.656-17.36,10.024-24.528   c1.864-2.48,3.936-4.744,6.16-6.832l97.968,97.968V480h-85.752L112.864,455.072z M350.064,357.32   c-3.768-30.944-5.68-62.128-5.68-93.32h-16c0,64.352,7.912,128.64,23.52,191.072L358.136,480h-85.752V307.312l97.968-97.968   c2.176,2.04,4.2,4.256,6.032,6.672v131.432L350.064,357.32z M408.384,480c-8.824,0-16-7.176-16-16V212.104l0.488-0.304   c-0.152-0.248-0.336-0.472-0.488-0.72V184h32v280C424.384,472.824,417.208,480,408.384,480z M426.36,167.704L426.104,168h-35.432   l-0.256-0.296c-2.752-3.152-6.032-8.424-6.032-15.704c0-5.4,1.88-10.576,5.432-14.976L390.64,136h35.488l0.832,1.024   c3.552,4.4,5.424,9.576,5.424,14.976C432.384,159.28,429.104,164.552,426.36,167.704z M432.384,112c0,2.752-0.496,5.44-1.448,8   h-45.112c-0.944-2.56-1.44-5.248-1.44-8V57.376c0-13.008,9.496-24.104,21.616-25.264c0.8-0.08,1.6-0.112,2.392-0.112   c6,0,11.664,2.168,16.136,6.24c4.992,4.544,7.856,11.016,7.856,17.76V112z"
       id="path156" /><rect
       x="216.384"
       y="168"
       style="fill:#333333;"
       width="32"
       height="16"
       id="rect158" /><rect
       x="184.384"
       y="96"
       style="fill:#333333;"
       width="16"
       height="16"
       id="rect160" /><rect
       x="264.384"
       y="96"
       style="fill:#333333;"
       width="16"
       height="16"
       id="rect162" /><path
       style="fill:#ffffff;stroke-width:0.68603045"
       d="m 109.14539,471.54302 c 9.05226,-35.7167 15.05624,-65.03076 19.35525,-94.5007 4.7699,-32.69795 7.93643,-72.95231 7.94637,-101.01798 l 0.004,-12.52005 h -8.23236 -8.23237 l -0.002,9.77593 c -0.002,12.23645 -1.08714,35.35634 -2.43828,51.96681 -1.07567,13.22401 -2.9199,30.97186 -3.25297,31.30493 -0.10598,0.10598 -11.06258,-3.88312 -24.347984,-8.86469 -19.441994,-7.29004 -24.155318,-9.2982 -24.155318,-10.29155 0,-3.15846 13.184426,-99.56593 14.103127,-103.12522 1.974369,-7.64924 7.938116,-18.22256 12.854703,-22.79051 l 1.723256,-1.60106 48.774256,48.64184 48.77426,48.64184 v 86.22063 86.22063 H 149.56116 107.1024 Z"
       id="path215"
       inkscape:connector-curvature="0" /><path
       style="fill:#ffffff;stroke-width:0.68603045"
       d="m 228.03651,262.5298 c -1.13195,-0.50644 -17.21134,-16.00722 -35.73198,-34.44618 -32.14488,-32.00312 -33.78619,-33.75902 -36.14702,-38.67062 -1.36022,-2.82987 -2.64505,-6.07137 -2.85518,-7.20332 -0.35513,-1.91306 -0.0737,-2.26003 3.99335,-4.92386 l 4.37541,-2.86578 3.62249,5.56167 c 24.12223,37.0352 74.80107,47.34526 111.60145,22.7041 10.27686,-6.88129 20.98506,-18.67652 26.06276,-28.70849 0.9549,-1.88659 1.85429,-3.55968 1.99866,-3.718 0.14436,-0.15831 1.76299,0.41496 3.59695,1.27395 l 3.33447,1.56178 -0.87561,4.59543 c -1.04631,5.49124 -3.6008,11.99678 -6.59516,16.7959 -2.84058,4.55266 -64.66098,66.78515 -67.61166,68.06236 -2.74952,1.19013 -6.08257,1.18293 -8.76893,-0.0189 z"
       id="path217"
       inkscape:connector-curvature="0" /><path
       style="fill:#ffffff;stroke-width:0.68603045"
       d="M 272.97151,393.33374 V 307.0636 l 48.75187,-48.70635 48.75187,-48.70635 2.70072,3.08714 2.70071,3.08713 -0.17181,65.79313 -0.17181,65.79313 -12.34855,4.63265 c -8.48603,3.18359 -12.48062,4.38439 -12.7708,3.83896 -0.44157,-0.82999 -0.6774,-2.90078 -2.317,-20.34556 -1.8431,-19.60988 -2.54575,-31.77447 -2.99179,-51.79529 l -0.44323,-19.89489 -8.40388,-0.19262 -8.40387,-0.19262 0.0178,3.62277 c 0.0404,8.23757 1.3792,41.37225 2.04507,50.61586 3.64138,50.54973 10.67541,93.52965 24.05076,146.95695 1.86214,7.43821 3.3857,13.84402 3.3857,14.23513 0,0.48307 -13.5292,0.7111 -42.19087,0.7111 h -42.19087 z"
       id="path219"
       inkscape:connector-curvature="0" /><path
       style="fill:#ffffff;stroke-width:0.68603045"
       d="m 401.16603,477.68749 c -2.83867,-1.47826 -4.18974,-2.76527 -5.9096,-5.6294 l -2.2296,-3.71303 V 326.47793 184.61079 h 15.43569 15.43568 l -0.0151,141.49377 c -0.0145,136.37196 -0.0612,141.59311 -1.28829,144.2379 -3.86942,8.33959 -13.30708,11.57448 -21.42882,7.34503 z"
       id="path221"
       inkscape:connector-curvature="0" /><path
       style="fill:#ffffff;stroke-width:0.68603045"
       d="m 388.4935,164.30828 c -2.70313,-4.61255 -3.63509,-7.68318 -3.66892,-12.08845 -0.0344,-4.48137 1.37829,-9.1906 3.90034,-13.00167 l 1.74012,-2.6295 h 17.93536 17.93535 l 1.89537,2.91563 c 5.12487,7.88356 4.96252,17.78975 -0.42154,25.72145 l -1.51027,2.22491 -17.97938,0.005 -17.97938,0.005 z"
       id="path223"
       inkscape:connector-curvature="0" /><path
       style="fill:#ffffff;stroke-width:0.68603045"
       d="m 385.46709,117.68755 c -0.40358,-1.06149 -0.67262,-14.21239 -0.67262,-32.877728 0,-28.330102 0.11324,-31.472463 1.26792,-35.182451 3.98439,-12.801871 16.35795,-19.867227 28.57405,-16.315911 7.12073,2.070053 12.06605,6.382674 15.37418,13.407212 l 1.77693,3.773168 0.19972,31.557399 c 0.10985,17.35657 -0.0582,32.792251 -0.37352,34.301521 l -0.57324,2.74412 -22.4504,0.1809 -22.4504,0.1809 z"
       id="path225"
       inkscape:connector-curvature="0" /><path
       style="fill:#ffffff;stroke-width:0.68603045"
       d="m 227.829,262.46636 c -2.81946,-1.22481 -67.90516,-66.06337 -70.39222,-70.12493 -1.74489,-2.84953 -4.98523,-11.65817 -4.45001,-12.09705 0.14983,-0.12287 2.16975,-1.49572 4.48869,-3.05078 l 4.21626,-2.82738 3.66844,5.63681 c 7.05224,10.83626 19.80418,22.08201 31.98535,28.2074 13.4711,6.77404 32.69617,9.5424 47.92341,6.90083 8.99678,-1.56072 14.50929,-3.37838 22.73399,-7.49613 14.61595,-7.31757 27.02114,-19.14277 34.37583,-32.76863 1.37125,-2.54048 2.74166,-4.6243 3.04534,-4.63071 0.30369,-0.006 1.89008,0.59785 3.52533,1.34279 l 2.97315,1.35443 -0.89296,4.68645 c -1.06232,5.57529 -3.60288,12.06333 -6.6125,16.88692 -2.84058,4.55266 -64.66098,66.78515 -67.61166,68.06236 -2.79308,1.20899 -6.0731,1.17888 -8.97644,-0.0824 z"
       id="path227"
       inkscape:connector-curvature="0" /><path
       style="fill:#ffffff;stroke-width:0.68603045"
       d="m 221.41576,198.67753 c -2.88679,-0.5483 -7.71275,-1.89619 -10.72437,-2.99529 -5.12838,-1.87163 -14.74405,-6.96772 -15.52186,-8.22625 -0.1918,-0.31033 2.16459,-8.33223 5.23643,-17.82644 l 5.58515,-17.26219 10.33667,-0.002 c 5.68517,-8.7e-4 17.48894,-0.20382 26.2306,-0.451 l 15.89393,-0.44942 5.79561,17.77327 5.79563,17.77326 -1.45165,1.22328 c -2.77985,2.34252 -15.2095,8.02366 -20.6605,9.44316 -7.23183,1.88325 -19.43925,2.34327 -26.51564,0.9992 z m 27.20167,-22.64212 v -8.23237 l -16.29323,-0.18392 -16.29322,-0.18392 v 8.60021 8.60021 l 16.29322,-0.18392 16.29323,-0.18393 z"
       id="path229"
       inkscape:connector-curvature="0" /><path
       style="fill:#ffffff;stroke-width:0.68603045"
       d="m 178.55871,169.7767 c -3.1464,-4.91861 -5.32551,-9.86183 -7.63261,-17.31428 l -1.83465,-5.92632 -0.2411,-32.49396 c -0.23013,-31.015217 -0.17806,-32.701525 1.14426,-37.054981 4.04245,-13.308871 16.07077,-21.592325 29.69538,-20.450087 6.18319,0.518377 9.70602,2.195688 22.29519,10.615326 l 10.3261,6.906098 10.8972,-7.27922 c 12.0898,-8.075872 15.60245,-9.698408 22.18942,-10.249553 14.33542,-1.199476 27.48627,9.027337 30.15205,23.447879 0.95337,5.157276 0.98875,54.742228 0.0449,62.979838 -0.37971,3.31416 -1.60315,8.87101 -2.71876,12.34854 -1.94578,6.06538 -8.10369,17.98531 -9.29132,17.98531 -0.31391,0 -2.75315,-6.70031 -5.42052,-14.88959 -4.14376,-12.72205 -5.1993,-15.25591 -7.25086,-17.40604 -4.91738,-5.15361 -4.22004,-5.06108 -38.26823,-5.07797 -33.48821,-0.0166 -33.22785,-0.0463 -37.76976,4.3074 -3.22249,3.08894 -4.19179,5.27278 -8.96719,20.20313 -2.32315,7.26334 -4.37195,13.20608 -4.55288,13.20608 -0.18094,0 -1.43943,-1.73592 -2.79665,-3.8576 z m 22.03659,-65.77449 v -8.232362 h -8.23237 -8.23236 l -0.19601,7.502242 c -0.10781,4.12624 -0.0365,7.91783 0.15837,8.42576 0.27525,0.71729 2.15734,0.88033 8.42838,0.73012 l 8.07399,-0.19339 z m 79.92254,0 v -8.575377 h -8.23236 -8.23237 v 8.575377 8.57538 h 8.23237 8.23236 z"
       id="path231"
       inkscape:connector-curvature="0" /><path
       style="fill:#ffffff;stroke-width:0.68603045"
       d="m 312.76127,120.21338 c 0,-13.19024 10e-4,-13.20096 1.41231,-12.21261 3.86745,2.70886 6.587,9.56991 5.67961,14.32885 -0.62193,3.26182 -2.5393,6.76047 -4.971,9.07065 l -2.12092,2.01494 z"
       id="path233"
       inkscape:connector-curvature="0" /><path
       style="fill:#ffffff;stroke-width:0.68603045"
       d="m 148.62059,137.96592 c -5.40822,-6.31829 -5.16671,-14.20284 0.62776,-20.49467 l 2.92732,-3.17858 0.0272,13.20609 c 0.0157,7.62238 -0.24022,13.20608 -0.60533,13.20608 -0.34792,0 -1.68756,-1.23251 -2.97699,-2.73892 z"
       id="path235"
       inkscape:connector-curvature="0" /><path
       style="fill:#ffffff;stroke-width:0.68603045"
       d="m 145.15263,96.284371 c 3.63915,-39.493692 33.57898,-71.899259 72.73753,-78.727939 7.64703,-1.33353 20.92649,-1.303962 29.06281,0.06471 29.79843,5.012627 55.46764,25.847949 66.72411,54.159017 2.14955,5.406322 5.23967,16.339448 5.25366,18.587933 0.003,0.525815 -0.95142,0.428666 -2.98946,-0.304206 l -2.99425,-1.076732 -0.38128,-6.213078 c -1.49877,-24.422824 -20.93616,-42.947011 -45.02072,-42.905568 -10.33405,0.01778 -17.31966,2.366188 -28.41078,9.551068 -3.53142,2.28767 -6.61346,4.1594 -6.84896,4.1594 -0.23551,0 -3.52082,-2.026312 -7.30069,-4.502916 -9.30502,-6.096733 -16.16494,-8.562945 -25.13841,-9.037518 -8.72694,-0.461536 -15.3053,0.90035 -23.11575,4.785534 -7.32085,3.641641 -15.51097,11.640468 -19.14962,18.702342 -4.00458,7.772075 -4.80315,11.238883 -5.2707,22.881399 l -0.42298,10.532852 -3.43016,1.300617 c -1.88658,0.715338 -3.4694,1.300865 -3.51738,1.301174 -0.048,3.01e-4 0.0479,-1.465835 0.21303,-3.258089 z"
       id="path237"
       inkscape:connector-curvature="0"
       inkscape:export-xdpi="96"
       inkscape:export-ydpi="96" /></g><g
     id="g166" /><g
     id="g168" /><g
     id="g170" /><g
     id="g172" /><g
     id="g174" /><g
     id="g176" /><g
     id="g178" /><g
     id="g180" /><g
     id="g182" /><g
     id="g184" /><g
     id="g186" /><g
     id="g188" /><g
     id="g190" /><g
     id="g192" /><g
     id="g194" /></svg>