<?xml version="1.0" encoding="UTF-8" standalone="no"?>
<!-- Generator: Adobe Illustrator 19.0.0, SVG Export Plug-In . SVG Version: 6.00 Build 0)  -->

<svg
   xmlns:dc="http://purl.org/dc/elements/1.1/"
   xmlns:cc="http://creativecommons.org/ns#"
   xmlns:rdf="http://www.w3.org/1999/02/22-rdf-syntax-ns#"
   xmlns:svg="http://www.w3.org/2000/svg"
   xmlns="http://www.w3.org/2000/svg"
   xmlns:sodipodi="http://sodipodi.sourceforge.net/DTD/sodipodi-0.dtd"
   xmlns:inkscape="http://www.inkscape.org/namespaces/inkscape"
   version="1.1"
   id="Layer_1"
   x="0px"
   y="0px"
   viewBox="0 0 511.994 511.994"
   style="enable-background:new 0 0 511.994 511.994;"
   xml:space="preserve"
   sodipodi:docname="magic-wand.svg"
   inkscape:version="0.92.2 (5c3e80d, 2017-08-06)"><metadata
     id="metadata422"><rdf:RDF><cc:Work
         rdf:about=""><dc:format>image/svg+xml</dc:format><dc:type
           rdf:resource="http://purl.org/dc/dcmitype/StillImage" /></cc:Work></rdf:RDF></metadata><defs
     id="defs420" /><sodipodi:namedview
     pagecolor="#ffffff"
     bordercolor="#666666"
     borderopacity="1"
     objecttolerance="10"
     gridtolerance="10"
     guidetolerance="10"
     inkscape:pageopacity="0"
     inkscape:pageshadow="2"
     inkscape:window-width="1680"
     inkscape:window-height="925"
     id="namedview418"
     showgrid="false"
     inkscape:zoom="0.8"
     inkscape:cx="255.99699"
     inkscape:cy="255.99699"
     inkscape:window-x="0"
     inkscape:window-y="23"
     inkscape:window-maximized="0"
     inkscape:current-layer="Layer_1" /><polygon
     style="fill:#ffa64d;fill-opacity:1"
     points="496.033,189.384 396.076,203.755 351.366,294.451 321.028,232.816 306.657,203.755   265.78,198.007 206.7,189.384 279.193,118.808 261.948,19.17 351.366,66.434 440.785,19.17 423.54,118.808 "
     id="polygon379" /><path
     style="fill:#333333;fill-opacity:1"
     d="m 507.178,177.936 -66.473,-64.701 15.808,-91.35 C 457.551,15.865 455.108,9.829 450.158,6.237 445.208,2.644 438.725,2.181 433.312,5.039 L 351.35,48.359 269.388,5.039 c -5.397,-2.858 -11.896,-2.395 -16.846,1.198 -4.95,3.593 -7.393,9.628 -6.355,15.648 l 15.808,91.35 -66.457,64.701 c -4.343,4.231 -5.924,10.602 -4.056,16.367 1.868,5.764 6.882,9.996 12.886,10.874 l 27.576,4.024 L 14.02,426.854 C 4.663,436.211 -0.016,448.602 0,460.833 c -0.016,12.215 4.663,24.622 14.02,33.963 9.341,9.357 21.748,14.035 33.963,14.02 12.215,0.016 24.622,-4.663 33.963,-14.02 l 234.611,-234.915 20.486,41.611 c 2.683,5.445 8.255,8.91 14.323,8.91 6.068,0 11.64,-3.465 14.323,-8.91 l 40.989,-83.143 91.622,-13.173 c 6.004,-0.862 11.034,-5.094 12.918,-10.858 1.868,-5.764 0.303,-12.151 -4.04,-16.382 z m -113.37,10.011 c -5.237,0.75 -9.708,4.008 -12.056,8.75 l -30.37,61.619 -16.015,-32.558 c -0.399,-0.814 -1.086,-1.357 -1.597,-2.06 -0.511,-0.719 -0.798,-1.533 -1.453,-2.188 -0.144,-0.144 -0.335,-0.176 -0.479,-0.319 -0.862,-0.798 -1.868,-1.309 -2.858,-1.9 -0.814,-0.479 -1.549,-1.07 -2.411,-1.389 -0.958,-0.351 -1.964,-0.415 -2.97,-0.575 -1.006,-0.16 -1.98,-0.447 -3.002,-0.415 -0.926,0.032 -1.804,0.335 -2.73,0.527 -1.134,0.24 -2.251,0.399 -3.321,0.878 -0.176,0.08 -0.367,0.064 -0.543,0.144 -0.814,0.399 -1.357,1.086 -2.076,1.597 -0.719,0.511 -1.533,0.798 -2.172,1.453 L 176.77303,354.6624 59.383,472.202 c -3.098,3.098 -7.153,4.647 -11.369,4.663 -4.231,-0.016 -8.271,-1.565 -11.385,-4.663 -3.13,-3.098 -4.678,-7.154 -4.694,-11.369 0.016,-4.231 1.565,-8.271 4.663,-11.385 L 146.55557,339.63676 185.63483,300.6095 200.82975,285.4348 277.07,209.296 c 0.447,-0.447 0.623,-1.038 1.006,-1.517 0.687,-0.862 1.293,-1.709 1.788,-2.699 0.495,-0.99 0.814,-1.996 1.086,-3.05 0.16,-0.607 0.527,-1.086 0.623,-1.725 0.064,-0.383 -0.096,-0.734 -0.064,-1.118 0.08,-1.102 -0.032,-2.156 -0.176,-3.257 -0.128,-0.99 -0.255,-1.948 -0.559,-2.89 -0.303,-0.942 -0.782,-1.772 -1.277,-2.651 -0.543,-0.974 -1.086,-1.884 -1.804,-2.73 -0.255,-0.287 -0.351,-0.655 -0.623,-0.942 -0.447,-0.447 -1.038,-0.623 -1.517,-1.006 -0.862,-0.687 -1.709,-1.293 -2.699,-1.788 -0.99,-0.495 -1.996,-0.814 -3.05,-1.086 -0.607,-0.16 -1.086,-0.527 -1.725,-0.623 l -27.065,-3.944 49.308,-48.014 c 3.784,-3.688 5.493,-8.958 4.599,-14.163 l -11.704,-67.607 60.677,32.079 c 4.678,2.475 10.251,2.475 14.93,0 L 419.5,48.486 407.812,116.077 c -0.894,5.205 0.814,10.475 4.599,14.163 l 49.244,47.951 z"
     id="path383"
     inkscape:connector-curvature="0"
     sodipodi:nodetypes="cccccccscccccccccccccsccccccccccscccsccccsccccccccccccscccccccccsccccccccccccc" /><path
     style="fill:#333333;fill-opacity:1"
     d="M335.335,225.726l-14.371-29.061c-2.347-4.742-6.85-8-12.087-8.734L268,182.183  c-8.734-1.229-16.814,4.854-18.043,13.588c-1.229,8.734,4.854,16.814,13.588,18.043l32.526,4.567l10.634,21.508  c3.912,7.904,13.493,11.145,21.397,7.233C336.006,243.211,339.247,233.63,335.335,225.726L335.335,225.726z"
     id="path385" /><g
     id="g387" /><g
     id="g389" /><g
     id="g391" /><g
     id="g393" /><g
     id="g395" /><g
     id="g397" /><g
     id="g399" /><g
     id="g401" /><g
     id="g403" /><g
     id="g405" /><g
     id="g407" /><g
     id="g409" /><g
     id="g411" /><g
     id="g413" /><g
     id="g415" /></svg>