<?xml version="1.0" encoding="iso-8859-1"?>
<!-- Generator: Adobe Illustrator 19.0.0, SVG Export Plug-In . SVG Version: 6.00 Build 0)  -->
<svg version="1.1" id="Layer_1" xmlns="http://www.w3.org/2000/svg" xmlns:xlink="http://www.w3.org/1999/xlink" x="0px" y="0px"
	 viewBox="0 0 496 496" style="enable-background:new 0 0 496 496;" xml:space="preserve">
<g>
	<path style="fill:#FFA64D;" d="M40,288c-22.056,0-40-17.944-40-40s17.944-40,40-40s40,17.944,40,40S62.056,288,40,288z"/>
	<path style="fill:#FFA64D;" d="M456,288c-22.056,0-40-17.944-40-40s17.944-40,40-40s40,17.944,40,40S478.056,288,456,288z"/>
	<path style="fill:#FFA64D;" d="M428.192,184.016c-3.472,0-6.968-0.456-10.416-1.384c-10.32-2.768-18.944-9.384-24.288-18.632
		s-6.76-20.032-3.992-30.352c2.768-10.32,9.384-18.944,18.632-24.288c9.248-5.336,20.032-6.784,30.352-3.992
		c10.32,2.768,18.944,9.384,24.288,18.632s6.76,20.032,3.992,30.352s-9.384,18.944-18.632,24.288
		C441.968,182.192,435.128,184.016,428.192,184.016z"/>
	<path style="fill:#FFA64D;" d="M351.936,107.88c-6.928,0-13.776-1.824-19.936-5.376c-9.248-5.344-15.864-13.968-18.632-24.288
		s-1.352-21.096,3.992-30.352S331.328,32,341.648,29.232c10.328-2.792,21.104-1.344,30.352,3.992
		c9.248,5.344,15.864,13.968,18.632,24.288s1.352,21.104-3.992,30.352s-13.968,15.864-24.288,18.632
		C358.904,107.432,355.408,107.88,351.936,107.88z"/>
	<path style="fill:#FFA64D;" d="M248,80c-22.056,0-40-17.944-40-40s17.944-40,40-40s40,17.944,40,40S270.056,80,248,80z"/>
	<path style="fill:#FFA64D;" d="M144.064,107.88c-3.472,0-6.968-0.456-10.416-1.384c-10.32-2.768-18.944-9.384-24.288-18.632
		s-6.76-20.032-3.992-30.352S114.752,38.568,124,33.224c9.248-5.336,20.016-6.784,30.352-3.992
		c10.32,2.768,18.944,9.384,24.288,18.632s6.76,20.032,3.992,30.352S173.248,97.16,164,102.504
		C157.832,106.064,150.992,107.88,144.064,107.88z"/>
	<path style="fill:#FFA64D;" d="M67.808,184.016c-6.928,0-13.776-1.824-19.936-5.376c-9.256-5.344-15.872-13.968-18.64-24.288
		S27.88,133.248,33.224,124s13.968-15.864,24.288-18.632c10.328-2.792,21.104-1.344,30.352,3.992
		c9.248,5.344,15.864,13.968,18.632,24.288c2.768,10.32,1.352,21.104-3.992,30.352s-13.968,15.864-24.288,18.632
		C74.776,183.56,71.272,184.016,67.808,184.016z"/>
</g>
<g>
	<path style="fill:#333333;" d="M460.6,328c-10.336,0-20.136,4.504-26.88,12.36l-6.272,7.32c-19.776,23.08-48.552,36.32-78.96,36.32
		h-25C336.048,372.664,344,356.32,344,338.104v-5.264c0-11.432-3.2-22.376-8.896-31.856C349.688,295.016,360,280.704,360,264
		c0-22.056-17.944-40-40-40c-5.448,0-10.736,1.176-15.672,3.288C291.128,210.688,270.808,200,248,200
		c-22.792,0-43.104,10.672-56.304,27.256C186.752,225.144,181.416,224,176,224c-22.056,0-40,17.944-40,40
		c0,16.704,10.312,31.016,24.896,36.992C155.2,310.472,152,321.416,152,332.84v5.264c0,18.208,7.952,34.56,20.512,45.896h-25
		c-30.4,0-59.176-13.24-78.96-36.32l-6.28-7.328C55.528,332.504,45.736,328,35.4,328C15.88,328,0,343.88,0,363.4v2.184
		c0,8.68,3.176,17.032,8.944,23.52l9.344,10.504C50.136,435.448,95.896,456,143.848,456H160v40h16v-56h-32.152
		c-43.384,0-84.792-18.592-113.608-51.016l-9.344-10.512C17.744,374.92,16,370.336,16,365.584V363.4c0-10.696,8.704-19.4,19.4-19.4
		c5.664,0,11.04,2.472,14.728,6.776l6.28,7.32C79.224,384.728,112.44,400,147.512,400h66.384H248h34.104h66.384
		c35.088,0,68.296-15.272,91.12-41.904l6.264-7.32c3.688-4.304,9.064-6.776,14.728-6.776c10.696,0,19.4,8.704,19.4,19.4v2.184
		c0,4.76-1.744,9.336-4.896,12.888l-9.344,10.512C436.936,421.408,395.528,440,352.152,440H320v56h16v-40h16.152
		c47.952,0,93.72-20.552,125.56-56.384l9.344-10.512c5.768-6.488,8.944-14.84,8.944-23.52V363.4C496,343.88,480.12,328,460.6,328z
		 M320,240c13.232,0,24,10.768,24,24c0,11.792-8.56,21.568-19.776,23.576c-1.36-1.264-2.736-2.52-4.224-3.672V272
		c0-11.08-2.592-21.544-7.08-30.936C315.192,240.368,317.576,240,320,240z M152,264c0-13.232,10.768-24,24-24
		c2.408,0,4.76,0.464,7.032,1.168C178.576,250.528,176,260.96,176,272v11.904c-1.488,1.152-2.856,2.408-4.224,3.672
		C160.56,285.568,152,275.792,152,264z M248,384h-34.104C188.592,384,168,363.408,168,338.104v-5.264
		c0-15.376,7.64-29.656,20.44-38.184l3.56-2.376V272c0-30.88,25.128-56,56-56s56,25.12,56,56v20.28l3.56,2.376
		c12.8,8.528,20.44,22.808,20.44,38.184v5.264C328,363.408,307.408,384,282.104,384H248z"/>
	<path style="fill:#333333;" d="M248,424c-30.872,0-56,25.12-56,56v16h16v-16c0-22.056,17.944-40,40-40s40,17.944,40,40v16h16v-16
		C304,449.12,278.872,424,248,424z"/>
	<rect x="208" y="272" style="fill:#333333;" width="16" height="16"/>
	<rect x="272" y="272" style="fill:#333333;" width="16" height="16"/>
	<path style="fill:#333333;" d="M302.656,340.44l-13.312-8.872C289.208,331.768,275.4,352,248,352
		c-27.096,0-40.8-19.64-41.368-20.472l-13.288,8.912C194.096,341.56,212.136,368,248,368S301.904,341.56,302.656,340.44z"/>
</g>
<g>
</g>
<g>
</g>
<g>
</g>
<g>
</g>
<g>
</g>
<g>
</g>
<g>
</g>
<g>
</g>
<g>
</g>
<g>
</g>
<g>
</g>
<g>
</g>
<g>
</g>
<g>
</g>
<g>
</g>
</svg>
