<?xml version="1.0" encoding="iso-8859-1"?>
<!-- Generator: Adobe Illustrator 19.0.0, SVG Export Plug-In . SVG Version: 6.00 Build 0)  -->
<svg xmlns="http://www.w3.org/2000/svg" xmlns:xlink="http://www.w3.org/1999/xlink" version="1.1" id="Capa_1" x="0px" y="0px" viewBox="0 0 496 496" style="enable-background:new 0 0 496 496;" xml:space="preserve">
<g>
	<path style="fill:#FFA64D;" d="M24,37.6H4.688l29.168,29.168C37.76,70.68,40,76.08,40,81.6s-2.24,10.92-6.144,14.832L4.688,125.6   H24c13.336,0,25.88,5.192,35.312,14.624l7.032,7.032L80,101.6l20.8-38.4C78.792,46.696,51.504,37.6,24,37.6z"/>
	<path style="fill:#FFA64D;" d="M64,437.6v40l3.376-2.536C84.92,461.912,108.392,459.792,128,469.6l0,0l0,0   c10.304-20.616,27.816-36.728,49.216-45.288L184,421.6l0,0c-10.176-20.352-11.168-44.088-2.712-65.216L184,349.6l-40-24l-16,80   L64,437.6z"/>
	<path style="fill:#FFA64D;" d="M297.728,367.52c-6.36,3.976-18.232,6.08-25.728,6.08l2.552,25.096L328,421.6   c10-14.992,26.824-24,44.848-24H400c0-21.048,4.896-41.8,14.312-60.624L416,333.6C374.176,333.6,333.192,345.352,297.728,367.52z"/>
	<path style="fill:#FFA64D;" d="M248,81.6c0-5.52,2.24-10.92,6.144-14.832L283.312,37.6H264c-27.504,0-54.792,9.096-76.8,25.6   l20.8,38.4l13.656,45.656l7.032-7.032C238.12,130.792,250.664,125.6,264,125.6h19.312l-29.168-29.168   C250.24,92.52,248,87.12,248,81.6z"/>
	<path style="fill:#FFA64D;" d="M8,349.968C24,381.6,24,389.6,24,413.6c15.112-20.144,38.816-32,64-32v-56l-64,40L8,349.968z"/>
</g>
<g>
	<path style="fill:#333333;" d="M278.912,121.2c-2.328-22.752-8.648-42.952-18.872-60.328l-5.896,5.896   c-2.168,2.168-3.752,4.824-4.8,7.68c4.312,8.368,7.664,17.48,10.072,27.256L278.912,121.2z"/>
	<path style="fill:#333333;" d="M496,101.6c0-30.288-13.224-59.024-36.296-78.848l-6.824-5.864l-5.024,7.472   C438.904,37.656,424,45.6,408,45.6c-16.488,0-31.536-8.68-40.224-22.096l0.064-0.336l-0.304-0.064   c-2.352-3.704-4.32-7.696-5.584-12.04L359.424,2.4l-8.296,3.552C312.784,22.368,288,59.912,288,101.6   c0,42.152,25.592,80.024,64.184,96.032c-4.64,8.776-9.8,17.272-15.568,25.352l-5.224,7.312l-19.576-6.528   C310.912,206.136,297.344,191.952,280,190v-48.4c0-5.472-0.28-10.776-0.696-16H264c-0.248,0-0.496,0.032-0.744,0.04   c0.448,5.184,0.744,10.472,0.744,15.96v50.208c-13.936,4.968-24,18.168-24,33.792c0,15.44,12.56,28,28,28h4v-16h-4   c-6.616,0-12-5.384-12-12c0-11.024,8.976-20,20-20s20,8.976,20,20c0,19.848-16.152,36-36,36s-36-16.152-36-36v-84h-0.192   c0.08-1.544,0.192-3.088,0.192-4.64V125.6c0-24.824-16.336-54.808-31.464-68.36l-5.28,5.904C184.536,64.88,163.976,77.6,144,77.6   c-12.024,0-40-2.336-40-24c0-20.336,23.328-32,64-32c20.664,0,40.976,7.984,57.328,22.088c6.04-1.92,12.2-3.44,18.456-4.448   C223.472,17.88,196.064,5.6,168,5.6c-72.2,0-80,33.568-80,48c0,4.696,0.736,9.04,2.16,12.992C73.544,81.752,64,102.936,64,125.6   v11.352c0,20.184,6.672,40.2,18.784,56.352c4.104,5.48,7.472,11.472,10.008,17.824c4.024,10.056,10.768,18.336,19.208,24.296v12.76   l-18.944,7.576c-37.8,15.12-69.744,42.912-89.952,78.272C1.072,337.6,0,341.648,0,345.752v4.216c0,6.688,2.816,12.704,7.304,17.008   C15.968,386.296,16,394.4,16,413.6v24l14.4-19.2c9.696-12.928,23.528-22.032,38.872-26.2l-16.928,21.16   c-2.8,3.504-4.344,7.904-4.344,12.4c0,6.488,3.176,12.2,8,15.824V493.6l16.176-12.144c15.208-11.408,35.224-13.216,52.24-4.704   l7.16,3.576l3.576-7.152c9.44-18.88,25.432-33.6,45.032-41.44l14.856-5.944l-3.888-7.776c-8.76-17.528-9.856-37.864-3.264-56.24   c22.192,10.48,46.048,16.84,70.592,18.96l22.704,49.192c15.616,33.824,49.76,55.672,87,55.672   c52.832,0,95.816-42.984,95.816-95.816c0-33.168-10.056-65.072-29.08-92.248c-7.624-10.896-16.688-20.712-26.776-29.328   l3.368-40.464c0.672-8.056,0.768-16.112,0.464-24.136C459.904,194.192,496,151.448,496,101.6z M455.368,40.64   C471.112,56.984,480,78.776,480,101.6c0,1.656-0.144,3.288-0.24,4.928l-17.136,17.136c-16.176,16.168-37.512,25.232-60.28,25.824   c-1.68-5.176-3.528-10.296-5.64-15.328c27.424-21.128,45.856-52.064,51.024-86.488C450.432,45.52,453.024,43.224,455.368,40.64z    M408,61.6c7.376,0,14.552-1.32,21.304-3.712c-6.36,24.104-20.176,45.648-39.48,61.472l-10.12-20.24l-1.672,11.72   c-14.192-13.56-20.992-33.632-17.04-53.408l2.776-13.896C375.448,54.744,391.144,61.6,408,61.6z M306.32,121.584   c4.28,6.008,9.232,11.504,14.984,16.28l10.208-12.312c-7.48-6.2-13.48-13.76-17.824-22.464l-8.256-16.504   c4.552-26.336,20.744-49.352,44.448-62.256c0.304,0.656,0.712,1.24,1.04,1.88l-5.616,28.08c-5.768,28.832,6.184,58.32,29.92,75.12   c-0.672,4.024-1.44,8.032-2.328,12.016c-9.584-0.432-19.104-2.76-27.704-7l-7.072,14.352c9.544,4.704,20.016,7.496,30.624,8.408   c-2.664,8.864-5.872,17.544-9.608,26.016C332.312,172.384,312.768,149.16,306.32,121.584z M95.584,183.712   C85.536,170.304,80,153.704,80,136.952V125.6c0-17.328,6.944-33.616,19.168-45.616C108.72,88.76,124.072,93.6,144,93.6   c19.296,0,38-9.032,46.944-14.056C200.208,92.4,208,110.6,208,125.6v11.36c0,16.752-5.536,33.352-15.584,46.752   c-4.944,6.592-9,13.816-12.064,21.472c-1.216,3.048-2.856,5.808-4.72,8.376c-8.48-0.128-14.312-4.28-18.112-8.656   C168.088,202.392,176,192.928,176,181.6c0-10.416-6.712-19.216-16-22.528v-1.696c0-8.008,1.056-16.024,3.112-23.776H180   c11.024,0,20-8.976,20-20s-8.976-20-20-20c-10.456,0-19.848,5.808-24.52,15.16c-7.512,15.016-11.48,31.832-11.48,48.616   c0-16.792-3.968-33.6-11.48-48.624C127.848,99.408,118.456,93.6,108,93.6c-11.024,0-20,8.976-20,20s8.976,20,20,20h16.888   c2.056,7.752,3.112,15.768,3.112,23.776v1.696c-9.288,3.312-16,12.112-16,22.528c0,11.328,7.912,20.792,18.488,23.296   c-3.8,4.368-9.64,8.528-18.12,8.656c-1.856-2.568-3.496-5.328-4.72-8.376C104.592,197.536,100.528,190.312,95.584,183.712z    M136,173.6h16c4.408,0,8,3.592,8,8s-3.592,8-8,8h-16c-4.408,0-8-3.592-8-8S131.592,173.6,136,173.6z M144,213.656   c3.656,4.688,8.824,9.488,15.824,12.584c-4.928,2.136-10.36,3.36-16.112,3.36c-5.52,0-10.792-1.216-15.616-3.328   C135.144,223.176,140.328,218.36,144,213.656z M168.968,117.6c0.272-0.568,0.544-1.128,0.824-1.688   c1.944-3.896,5.856-6.312,10.208-6.312c2.208,0,4,1.792,4,4s-1.792,4-4,4H168.968z M119.032,117.6H108c-2.208,0-4-1.792-4-4   s1.792-4,4-4c4.352,0,8.264,2.416,10.208,6.312C118.496,116.472,118.768,117.032,119.032,117.6z M17,341.96   c18.416-32.224,47.536-57.56,82-71.344l13-5.2v10.144c-3.016,2.264-5.936,4.664-8.648,7.368   c-10.168,10.168-17.168,22.624-20.696,36.184l-18.624,7.448c-13.944,5.584-25.72,15.136-34.056,27.64   c-1.408,2.128-3.784,3.4-6.344,3.4c-1.28,0-2.432-0.4-3.496-0.96c-1.24-2.664-2.616-5.496-4.136-8.536v-2.352   C16,344.424,16.344,343.112,17,341.96z M31.512,394.152c-0.568-6.8-1.832-13.2-4.512-20.976   c6.584-0.952,12.536-4.472,16.296-10.104c6.528-9.8,15.76-17.28,26.688-21.656l10.112-4.04C80.08,338.032,80,338.664,80,339.312   v34.664C62.152,375.632,45.184,382.752,31.512,394.152z M72,462.752v-17.56c2.344-0.376,4.632-1.024,6.696-2.208l28.696-16.392   l8.696,30.432C101.2,453.744,85.664,455.688,72,462.752z M169.112,402.064l-3.928-2.616l-8.872,13.312l10.944,7.296   c-14.416,7.064-26.872,17.392-36.48,30.12l-9.072-31.752l3.808-2.176c6.128-3.504,10.36-9.488,11.632-16.264l7.92,5.28   l8.872-13.312l-13.368-8.912l8.912-44.16l11.712,7.808c4.04,2.696,8.168,5.208,12.36,7.6   C167.616,369.616,166.144,386.168,169.112,402.064z M342.208,354.744c3.992,6.544,8.504,12.76,13.584,18.512l11.992-10.592   c-3.6-4.08-6.84-8.448-9.816-12.992c14.728-4.128,29.88-6.784,45.256-7.696c-5.576,13.296-9.016,27.472-10.416,41.832   c-5.768-3.624-11.272-7.704-16.304-12.288l-10.784,11.824c2.416,2.208,5,4.232,7.584,6.256h-0.456   c-15.056,0-29.28,5.504-40.376,15.088c-2.776-14.576-4.216-29.392-4.384-44.24C332.728,358.368,337.44,356.48,342.208,354.744z    M312.328,368.272c0.536,13.376,2,26.704,4.528,39.848l-35.04-15.016l-5.312-11.504c0.008,0,0.016,0,0.024,0   c9.008,0,17.808-2.52,25.44-7.296C305.36,372.176,308.832,370.192,312.328,368.272z M421.816,306.712   C438.944,331.184,448,359.92,448,389.784c0,44.008-35.808,79.816-79.816,79.816c-31.024,0-59.472-18.2-72.472-46.368l-3.896-8.432   l39.136,16.776l3.688-5.536c8.528-12.8,22.808-20.44,38.184-20.44H408v-8c0-19.704,4.656-39.432,13.472-57.048l7.464-14.952H416   c-43.368,0-85.736,12.152-122.512,35.136c-5.088,3.184-10.952,4.864-16.96,4.864c-38.008,0-74.824-11.144-106.456-32.232   l-3.368-2.248l50.176-5.576l-1.768-15.896l-77.808,8.648l-15.848,78.544c-0.424,2.328-1.84,4.336-3.896,5.512l-46.808,26.736   c-0.576,0.336-1.232,0.512-1.896,0.512H67.84c-2.12,0-3.84-1.72-3.84-3.84c0-0.872,0.304-1.728,0.84-2.408L96,384.408V339.32   c0-17.024,6.632-33.032,18.664-45.072c6.48-6.48,14.112-11.392,22.688-14.608l49.448-18.544l-5.616-14.984l-49.448,18.544   c-1.28,0.48-2.496,1.088-3.744,1.632V243.24c5.168,1.528,10.632,2.36,16.296,2.36c22.56,0,42.544-13.536,50.928-34.48   c2.536-6.352,5.904-12.344,10-17.808c0.984-1.312,1.872-2.688,2.784-4.048V225.6c0,28.672,23.328,52,52,52   c23.672,0,43.656-15.912,49.928-37.592l40.616,13.536C379.184,263.096,404.496,281.976,421.816,306.712z M355.6,238.368   l-8.336-2.776l2.368-3.312c17.08-23.92,29.672-50.992,37.048-79.432c7.912,23.568,10.976,48.6,8.888,73.568l-2.536,30.424   C381.432,249.096,368.864,242.792,355.6,238.368z M410.776,187.488c-0.896-7.48-2.304-14.888-4.04-22.216   c24.896-1.576,48.104-11.792,66.104-29.304C461.784,161.68,438.808,181.328,410.776,187.488z"/>
	<rect x="448" y="93.6" style="fill:#333333;" width="16" height="16"/>
	<rect x="384" y="69.6" style="fill:#333333;" width="16" height="16"/>
	<rect x="320" y="77.6" style="fill:#333333;" width="16" height="16"/>
</g>
<g>
</g>
<g>
</g>
<g>
</g>
<g>
</g>
<g>
</g>
<g>
</g>
<g>
</g>
<g>
</g>
<g>
</g>
<g>
</g>
<g>
</g>
<g>
</g>
<g>
</g>
<g>
</g>
<g>
</g>
</svg>
