<?xml version="1.0" encoding="iso-8859-1"?>
<!-- Generator: Adobe Illustrator 19.0.0, SVG Export Plug-In . SVG Version: 6.00 Build 0)  -->
<svg xmlns="http://www.w3.org/2000/svg" xmlns:xlink="http://www.w3.org/1999/xlink" version="1.1" id="Capa_1" x="0px" y="0px" viewBox="0 0 496 496" style="enable-background:new 0 0 496 496;" xml:space="preserve">
<g>
	<path style="fill:#FFA64D;" d="M467.096,133.84l-7.712-18.512C452.488,98.776,436.32,88,418.392,88   c-11.776,0-23.072,4.68-31.4,13.008l-34.544,34.544c1.36,12.88,6.128,25.208,13.952,35.648l1.168,1.56   c5.472,7.296,8.432,16.168,8.432,25.288c0,6.544-1.52,13-4.448,18.848C363.952,232.088,360,248.84,360,265.824v11.032   l25.176,45.728C380.832,332.72,388.272,344,399.304,344c5.4,0,10.4-2.832,13.176-7.456l8.68-14.464   c7.168-11.944,12.024-25.136,14.312-38.872c1.328-7.984,1.64-16.056,1.224-24.088l0.36,0.528   c10.232,27.648,9.64,58.336-1.992,85.768l-1.312,3.104c-4.504,9.016,2.112,19.576,12.192,19.496l0.888-0.016   c5.6-0.048,10.664-3.36,12.936-8.48l4.816-10.824C480.024,313.952,488,276.36,488,238.344l0,0   C488,202.472,480.896,166.952,467.096,133.84z"/>
	<path style="fill:#FFA64D;" d="M28.904,133.84l7.712-18.512C43.512,98.776,59.68,88,77.608,88c11.776,0,23.072,4.68,31.4,13.008   l34.544,34.544c-1.36,12.88-6.128,25.208-13.952,35.648l-1.168,1.56c-5.472,7.296-8.432,16.168-8.432,25.288   c0,6.544,1.52,13,4.448,18.848c7.6,15.192,11.552,31.944,11.552,48.928v11.032l-25.176,45.728   C115.168,332.72,107.728,344,96.696,344c-5.4,0-10.4-2.832-13.176-7.456l-8.68-14.464c-7.168-11.944-12.024-25.136-14.312-38.872   c-1.328-7.992-1.64-16.064-1.216-24.088l-0.36,0.528c-10.232,27.648-9.64,58.336,1.992,85.768l1.312,3.104   c4.504,9.016-2.112,19.576-12.192,19.496L49.168,368c-5.6-0.048-10.664-3.36-12.936-8.48l-4.816-10.824   C15.976,313.952,8,276.36,8,238.344l0,0C8,202.472,15.104,166.952,28.904,133.84z"/>
</g>
<g>
	<rect x="280" y="136" style="fill:#333333;" width="16" height="16"/>
	<rect x="200" y="136" style="fill:#333333;" width="16" height="16"/>
	<rect x="240" y="168" style="fill:#333333;" width="16" height="16"/>
	
		<rect x="281.971" y="383.73" transform="matrix(-0.9647 0.2632 -0.2632 -0.9647 672.6863 692.3022)" style="fill:#333333;" width="15.999" height="14.959"/>
	
		<rect x="173.98" y="401.993" transform="matrix(-0.2627 0.9649 -0.9649 -0.2627 649.305 323.8246)" style="fill:#333333;" width="53.897" height="16"/>
	<path style="fill:#333333;" d="M474.488,130.76l-7.712-18.504C458.608,92.656,439.616,80,418.392,80   c-14,0-27.16,5.456-37.056,15.352l-21.928,21.928c-2.8-29.312-16.92-56.376-39.84-75.424l-10.232,12.296   C331.368,72.472,344,99.384,344,128c0,17.184,5.68,34.232,16.008,48.016l1.168,1.536c4.392,5.88,6.824,13.16,6.824,20.496   c0,5.272-1.248,10.552-3.608,15.272c-4.904,9.8-8.216,20.352-10.224,31.136l-4.76-10.392c-4.864-10.64-14.12-18.584-25.376-21.808   l-32.44-9.272C313.48,188.696,328,164.032,328,136v-32h-12.224c-22.168,0-44.368-5.24-64.192-15.16L248,87.056l-3.576,1.792   C224.592,98.76,202.392,104,180.224,104H168v32c0,28.032,14.52,52.696,36.408,66.992l-32.44,9.272   c-11.256,3.216-20.504,11.168-25.376,21.8l-4.76,10.4c-2.008-10.784-5.32-21.328-10.224-31.128   C129.248,208.6,128,203.32,128,198.048c0-7.336,2.432-14.616,6.824-20.48L136,176c10.32-13.768,16-30.816,16-48   c0-28.616,12.632-55.528,34.664-73.848l-10.232-12.296c-22.92,19.056-37.04,46.112-39.84,75.424l-21.928-21.928   C104.768,85.456,91.608,80,77.608,80c-21.224,0-40.216,12.656-48.384,32.248l-7.712,18.504C7.232,165.024,0,201.216,0,238.344   c0,39.392,8.112,77.608,24.104,113.592l4.816,10.832c3.544,7.968,11.472,13.16,20.184,13.232L50,376.008c0.056,0,0.12,0,0.168,0   c7.488,0,14.296-3.776,18.256-10.136c3.984-6.384,4.352-14.208,1.192-20.496l-1.312-3.096c-4.32-10.184-6.944-20.832-8.016-31.592   c2.216,5.304,4.696,10.512,7.688,15.496l8.68,14.464C80.864,347.656,88.544,352,96.704,352c5.36,0,10.376-1.936,14.448-5.176   c5.544,8.088,14.744,13.176,24.912,13.176h2.168c2.048,0,4.056-0.2,6-0.592l-49.736,114.4l3.848,3.848   C99.096,478.408,117,496,144,496c14.424,0,22.192-5.176,28.44-9.344c5.576-3.72,9.984-6.656,19.56-6.656   c7.968,0,10.696,1.896,15.216,5.048C214.224,489.928,222.952,496,248,496s33.776-6.072,40.784-10.952   c4.52-3.152,7.248-5.048,15.216-5.048c9.576,0,13.984,2.936,19.56,6.656C329.808,490.824,337.576,496,352,496   c27,0,44.904-17.592,45.656-18.344l3.848-3.848l-49.736-114.4c1.952,0.392,3.96,0.592,6.008,0.592h2.168   c10.168,0,19.368-5.096,24.912-13.176c4.072,3.24,9.088,5.176,14.448,5.176c8.16,0,15.832-4.344,20.032-11.344l8.68-14.464   c2.992-4.984,5.472-10.192,7.688-15.496c-1.072,10.76-3.696,21.408-8.016,31.592l-1.104,2.64c-3.368,6.736-3,14.56,0.984,20.944   c3.96,6.36,10.776,10.136,18.264,10.136c0.056,0,0.12,0,0.168,0l0.896-0.008c8.712-0.072,16.64-5.264,20.184-13.232l4.816-10.832   C487.888,315.952,496,277.736,496,238.344C496,201.216,488.768,165.024,474.488,130.76z M184,136v-16.048   c22.056-0.528,44.024-5.704,64-15.064c19.976,9.36,41.944,14.528,64,15.064V136c0,35.288-28.712,64-64,64S184,171.288,184,136z    M269.936,212.864C266.216,224.112,257.8,232,248,232s-18.216-7.888-21.936-19.136c6.976,2,14.32,3.136,21.936,3.136   S262.96,214.864,269.936,212.864z M103.472,325.736c0.992,2.32,0.768,4.848-0.624,6.952c-2.792,4.24-9.832,4.104-12.464-0.264   l-8.68-14.464c-6.68-11.144-11.152-23.272-13.28-36.072c-2.752-16.512-1.408-33.64,3.88-49.52l7.28-21.832l-15.168-5.064   l-7.28,21.832c-3.216,9.648-5.088,19.688-5.76,29.816c-10.952,29.76-10.176,62.216,2.208,91.424l1.52,3.544   c1.232,2.472,0.24,4.544-0.248,5.328c-0.488,0.784-1.912,2.592-4.672,2.592c-0.016,0-0.032,0-0.048,0L49.24,360   c-2.472-0.024-4.704-1.488-5.704-3.736l-4.808-10.824C23.648,311.504,16,275.48,16,238.344c0-35,6.832-69.128,20.28-101.432   l7.712-18.504C49.672,104.8,62.856,96,77.608,96c9.72,0,18.864,3.792,25.744,10.664l31.768,31.768   c-1.68,10.088-5.76,19.76-11.904,27.96l-1.176,1.568c-6.48,8.624-10.04,19.312-10.04,30.088c0,7.752,1.832,15.504,5.296,22.432   c7,14.008,10.704,29.688,10.704,45.352v8.816l-14.272,31.144c-3.92-16.472-2.752-33.712,3.672-49.752l2.024-5.064l-14.856-5.936   l-2.024,5.064C92.744,274.6,93.072,301.472,103.472,325.736z M138.224,344h-2.168c-6.16,0-11.6-3.928-13.552-9.784   c-1.2-3.608-0.928-7.488,0.896-11.144l3.144-6.856l27.52,13.76l-3.056,6.112C148.568,340.968,143.672,344,138.224,344z    M382.272,469.688C376.744,473.736,365.92,480,352,480c-9.576,0-13.984-2.936-19.56-6.656c-3.68-2.456-7.936-5.24-13.72-7.128   l-15.4-56.472l-15.44,4.2l13.68,50.152c-11.272,0.504-16.944,4.352-21.912,7.824c-4.856,3.376-9.936,6.824-23.64,7.792V384h-16   v95.712c-13.704-0.968-18.784-4.416-23.64-7.792c-4.968-3.472-10.64-7.312-21.912-7.824l3.272-11.976l-15.44-4.216l-5,18.312   c-5.792,1.888-10.04,4.672-13.72,7.128C157.984,477.064,153.576,480,144,480c-13.784,0-24.68-6.296-30.256-10.336l77.592-178.48   l-14.496-6.768l-15.624,31.24l-28-14l27.92-60.944c2.92-6.376,8.472-11.144,15.216-13.072l34.52-9.864   C216.784,235.464,231.184,248,248,248s31.216-12.536,37.12-30.216l34.52,9.864c6.752,1.928,12.296,6.696,15.216,13.08   l27.928,60.936l-28.008,14.008l-15.624-31.248l-14.496,6.768L382.272,469.688z M373.488,334.224   c-1.952,5.848-7.392,9.776-13.552,9.776h-2.168c-5.448,0-10.344-3.032-12.784-7.896l-3.064-6.12l27.52-13.76l3.256,7.104   C374.424,326.736,374.696,330.608,373.488,334.224z M457.272,345.44l-4.816,10.832c-1,2.248-3.232,3.712-5.704,3.736l-0.88,0.008   c-0.016,0-0.032,0-0.048,0c-2.768,0-4.192-1.816-4.68-2.592c-0.496-0.784-1.488-2.856-0.04-5.784l1.312-3.096   c12.376-29.208,13.16-61.664,2.208-91.424c-0.672-10.128-2.544-20.168-5.76-29.816l-7.28-21.832l-15.168,5.064l7.28,21.832   c5.288,15.88,6.632,33.008,3.88,49.52c-2.136,12.8-6.6,24.928-13.28,36.072l-8.68,14.464c-2.624,4.36-9.664,4.52-12.464,0.264   c-1.392-2.104-1.616-4.632-0.624-6.952c10.4-24.264,10.728-51.136,0.92-75.64l-2.024-5.064l-14.856,5.936l2.024,5.064   c6.424,16.04,7.592,33.272,3.68,49.744L368,274.64v-8.808c0-15.656,3.704-31.344,10.704-45.352   c3.464-6.928,5.296-14.68,5.296-22.432c0-10.776-3.56-21.464-10.04-30.104l-1.16-1.536c-6.152-8.216-10.232-17.888-11.912-27.976   l31.768-31.768C399.52,99.792,408.672,96,418.392,96c14.752,0,27.936,8.8,33.616,22.408l7.712,18.504   C473.168,169.216,480,203.344,480,238.344C480,275.48,472.352,311.504,457.272,345.44z"/>
</g>
<path style="fill:#FFA64D;" d="M248,0c-45.608,0-80,17.192-80,40s34.392,40,80,40s80-17.192,80-40S293.608,0,248,0z M248,56  c-26.512,0-48-7.16-48-16s21.488-16,48-16s48,7.16,48,16S274.512,56,248,56z"/>
<g>
</g>
<g>
</g>
<g>
</g>
<g>
</g>
<g>
</g>
<g>
</g>
<g>
</g>
<g>
</g>
<g>
</g>
<g>
</g>
<g>
</g>
<g>
</g>
<g>
</g>
<g>
</g>
<g>
</g>
</svg>
